<?xml version="1.0" encoding="UTF-8" standalone="no"?>
<!-- Created with Inkscape (http://www.inkscape.org/) -->

<svg
   version="1.1"
   id="svg1"
   width="1600"
   height="715"
   viewBox="0 0 1600 715"
   sodipodi:docname="apple.svg"
   inkscape:version="1.4.3 (0d15f75, 2025-12-25)"
   xmlns:inkscape="http://www.inkscape.org/namespaces/inkscape"
   xmlns:sodipodi="http://sodipodi.sourceforge.net/DTD/sodipodi-0.dtd"
   xmlns="http://www.w3.org/2000/svg"
   xmlns:svg="http://www.w3.org/2000/svg">
  <defs
     id="defs1">
    <inkscape:path-effect
       effect="bspline"
       id="path-effect4"
       is_visible="true"
       lpeversion="1.3"
       weight="33.333333"
       steps="2"
       helper_size="0"
       apply_no_weight="true"
       apply_with_weight="true"
       only_selected="false"
       uniform="false" />
    <inkscape:path-effect
       effect="bspline"
       id="path-effect3"
       is_visible="true"
       lpeversion="1.3"
       weight="33.333333"
       steps="2"
       helper_size="0"
       apply_no_weight="true"
       apply_with_weight="true"
       only_selected="false"
       uniform="false" />
    <inkscape:path-effect
       effect="bspline"
       id="path-effect2"
       is_visible="true"
       lpeversion="1.3"
       weight="33.333333"
       steps="2"
       helper_size="0"
       apply_no_weight="true"
       apply_with_weight="true"
       only_selected="false"
       uniform="false" />
    <inkscape:path-effect
       effect="bspline"
       id="path-effect1"
       is_visible="true"
       lpeversion="1.3"
       weight="33.333333"
       steps="2"
       helper_size="0"
       apply_no_weight="true"
       apply_with_weight="true"
       only_selected="false"
       uniform="false" />
  </defs>
  <sodipodi:namedview
     id="namedview1"
     pagecolor="#ffffff"
     bordercolor="#000000"
     borderopacity="0.25"
     inkscape:showpageshadow="2"
     inkscape:pageopacity="0.0"
     inkscape:pagecheckerboard="0"
     inkscape:deskcolor="#d1d1d1"
     showgrid="false"
     inkscape:zoom="0.84625"
     inkscape:cx="823.63368"
     inkscape:cy="350.36928"
     inkscape:window-width="1920"
     inkscape:window-height="991"
     inkscape:window-x="-9"
     inkscape:window-y="-9"
     inkscape:window-maximized="1"
     inkscape:current-layer="g1" />
  <g
     inkscape:groupmode="layer"
     inkscape:label="Image"
     id="g1">
    <path
       style="fill:none;fill-opacity:1;stroke:#000000;stroke-width:1px;stroke-linecap:butt;stroke-linejoin:miter;stroke-opacity:1"
       d="m 709.79813,245.69178 c 5.31758,-12.30921 12.60463,-27.6711 21.95974,-39.68497 9.35511,-12.01388 20.77783,-20.67939 32.59479,-28.65583 11.81696,-7.97644 24.02745,-15.26334 33.87489,-19.49772 9.84744,-4.23438 17.33129,-5.41604 23.4367,-4.92365 6.10542,0.49239 10.83206,2.65877 14.27866,5.31759 3.4466,2.65882 5.61297,5.80991 9.35502,8.66568 3.74206,2.85576 9.05953,5.41602 15.06649,6.99161 6.00696,1.57558 12.70303,2.16641 19.20235,1.18165 6.49933,-0.98476 12.80152,-3.54503 18.02066,-3.9389 5.21914,-0.39388 9.35488,1.37858 12.80153,4.33285 3.44664,2.95427 6.20384,7.09007 8.66571,12.11229 2.46187,5.02221 4.62825,10.93052 7.09012,18.61156 2.46187,7.68104 5.21907,17.13432 7.77941,27.96655 2.56034,10.83222 4.92366,23.04271 7.18858,34.95813 2.26491,11.91543 4.43129,23.53509 5.61298,37.42004 1.18168,13.88495 1.37862,30.0343 -0.59089,45.00244 -1.96952,14.96813 -6.10533,28.75417 -11.61992,40.37416 -5.5146,11.61998 -12.40761,21.07326 -23.04291,29.93597 -10.6353,8.86272 -25.01217,17.13434 -38.99556,22.74737 -13.9834,5.61303 -27.57249,8.56718 -39.09401,7.97629 -11.52151,-0.59088 -20.97479,-4.72669 -29.0497,-10.24129 -8.0749,-5.51459 -14.77098,-12.40761 -19.20232,-18.02065 -4.43133,-5.61304 -6.59771,-9.9458 -11.423,-11.91527 -4.82528,-1.96947 -12.30912,-1.57558 -19.69472,-0.2954 -7.3856,1.28018 -14.6725,3.44656 -22.35353,3.74196 -7.68103,0.29541 -15.7557,-1.28014 -23.73215,-5.12067 -7.97644,-3.84054 -15.85418,-9.94578 -21.17178,-18.61158 -5.31761,-8.66579 -8.07482,-19.89156 -8.66564,-30.62529 -0.59083,-10.73373 0.98472,-20.97479 4.6283,-35.0567 3.64358,-14.08191 9.35494,-32.00376 13.88476,-45.59322 4.52982,-13.58946 7.87786,-22.8458 13.19544,-35.155 z"
       id="path1"
       inkscape:path-effect="#path-effect1"
       inkscape:original-d="m 707.82866,248.74446 c 7.28705,-15.36189 14.5741,-30.72378 21.86115,-46.08567 11.42317,-8.66586 22.84589,-17.33136 34.26883,-25.99705 12.21098,-7.28719 24.42147,-14.5741 36.6322,-21.86115 7.48415,-1.18171 14.968,-2.36337 22.452,-3.54505 4.72683,2.16646 9.45347,4.33284 14.1802,6.49926 2.16647,3.15122 4.33284,6.30231 6.49926,9.45347 5.31769,2.56037 10.63516,5.12063 15.95274,7.68095 6.69634,0.59085 13.39241,1.18168 20.08862,1.77252 6.30244,-2.56036 12.60463,-5.12063 18.90695,-7.68094 4.13596,1.77256 8.2717,3.54502 12.40767,5.31758 2.75732,4.13598 5.51453,8.27178 8.27179,12.40768 2.16647,5.90853 4.33285,11.81684 6.49927,17.72525 2.75731,9.45367 5.51452,18.90695 8.27178,28.36042 2.36342,12.21098 4.72674,24.42147 7.09011,36.6322 2.16646,11.62012 4.33284,23.23978 6.49926,34.85967 0.19695,16.15001 0.39389,32.29936 0.59084,48.44904 -4.13598,13.78659 -8.27179,27.57263 -12.40768,41.35894 -6.8933,9.45366 -13.78631,18.90694 -20.67947,28.36041 -14.37744,8.27196 -28.75431,16.54358 -43.13146,24.81537 -13.58964,2.95427 -27.17873,5.90842 -40.7681,8.86263 -9.45366,-4.13598 -18.90694,-8.27179 -28.36041,-12.40769 -6.69634,-6.89329 -13.39242,-13.78631 -20.08863,-20.67946 -2.16646,-4.33293 -4.33284,-8.66569 -6.49926,-12.99853 -7.48415,0.39391 -14.96799,0.78779 -22.45199,1.18169 -7.2872,2.16646 -14.5741,4.33284 -21.86115,6.49926 -8.07501,-1.57561 -16.14968,-3.15116 -24.22452,-4.72674 -7.87805,-6.10549 -15.75579,-12.21073 -23.63368,-18.3161 -2.75732,-11.22622 -5.51453,-22.45199 -8.27179,-33.67799 1.57561,-10.24146 3.15116,-20.48252 4.72674,-30.72378 5.71158,-17.92256 11.42294,-35.84441 17.13441,-53.76662 3.34817,-9.25671 6.69621,-18.51305 10.04432,-27.76957 z"
       sodipodi:nodetypes="cccccccccccccccccccccccccccccccc" />
    <path
       style="fill:none;fill-opacity:1;stroke:#000000;stroke-width:1px;stroke-linecap:butt;stroke-linejoin:miter;stroke-opacity:1"
       d="m 680.99501,378.09846 c 1.2636,7.69441 2.52721,15.38882 5.52242,22.97809 2.99522,7.58928 7.72186,15.07313 13.63035,22.45872 5.90849,7.3856 12.99845,14.67251 21.27034,20.4825 8.27188,5.80999 17.72516,10.14274 31.80708,13.19544 14.08192,3.0527 32.79154,4.82519 49.82763,4.7267 17.0361,-0.0985 32.39769,-2.06793 44.38072,-5.54311 11.98303,-3.47519 20.58686,-8.4559 29.19086,-13.4367"
       id="path2"
       inkscape:path-effect="#path-effect2"
       inkscape:original-d="m 680.99501,378.09846 c 1.2636,7.69441 2.52721,15.38882 3.79081,23.08322 4.72683,7.48415 9.45347,14.968 14.18021,22.452 7.09024,7.28719 14.1802,14.5741 21.27031,21.86115 9.45366,4.33293 18.90694,8.66568 28.36041,12.99852 18.71037,1.77256 37.41999,3.54505 56.12999,5.31758 15.36219,-1.96951 30.72378,-3.93895 46.08567,-5.90842 8.60417,-4.9809 17.208,-9.96161 25.812,-14.94241" />
    <path
       style="fill:none;fill-opacity:1;stroke:#000000;stroke-width:1px;stroke-linecap:butt;stroke-linejoin:miter;stroke-opacity:1"
       d="m 807.6197,276.92405 c -0.8704,-0.20889 -5.04828,2.01931 -9.33065,5.25721 -4.28238,3.2379 -8.66907,7.48533 -13.02108,12.01142 -4.35201,4.52609 -8.66907,9.33056 -11.24543,14.03072 -2.57637,4.70017 -3.41193,9.29575 -3.82972,12.53362 -0.41779,3.23788 -0.41779,5.11789 0.4178,6.09273 0.8356,0.97484 2.50672,1.04447 4.76977,-2e-5 2.26305,-1.04449 5.11788,-3.20302 8.21651,-5.91868 3.09864,-2.71565 6.44087,-5.98826 8.46019,-9.26097 2.01932,-3.27271 2.71562,-6.54532 3.44675,-9.46986 0.73114,-2.92455 1.49707,-5.50086 2.8549,-8.73876 1.35783,-3.2379 3.30747,-7.13718 5.50088,-10.40988 2.19342,-3.2727 4.63047,-5.91864 3.76008,-6.12753 z"
       id="path3"
       inkscape:path-effect="#path-effect3"
       inkscape:original-d="m 810.92719,274.48695 c -4.17789,2.2282 -8.35577,4.4564 -12.53365,6.68461 -4.38687,4.2476 -8.77356,8.49503 -13.16034,12.74254 -4.31723,4.80467 -8.63429,9.60914 -12.95144,14.4137 -0.83559,4.59577 -1.67115,9.19135 -2.50673,13.78702 0,1.88008 0,3.76009 0,5.64014 1.67119,0.0696 3.34231,0.13926 5.01346,0.20889 2.85495,-2.15861 5.70978,-4.31714 8.56467,-6.47571 3.34237,-3.27275 6.68461,-6.54536 10.02692,-9.81803 0.69632,-3.27274 1.39262,-6.54535 2.08894,-9.81803 0.76596,-2.57641 1.53189,-5.15272 2.29783,-7.72908 1.94972,-3.89944 3.89936,-7.79872 5.84904,-11.69808 2.43715,-2.64604 4.8742,-5.29198 7.3113,-7.93797 z" />
    <path
       style="fill:none;fill-opacity:1;stroke:#000000;stroke-width:1px;stroke-linecap:butt;stroke-linejoin:miter;stroke-opacity:1"
       d="m 824.81865,267.55862 c -0.38297,0.87039 -1.28818,6.51054 -2.92454,12.35963 -1.63636,5.8491 -4.00378,11.90691 -5.91866,17.47747 -1.91488,5.57057 -3.37711,10.65356 -3.96897,15.14482 -0.59187,4.49126 -0.31335,8.39054 0.55706,11.31508 0.87041,2.92454 2.33264,4.87418 3.82973,4.14302 1.49709,-0.73117 3.02895,-4.14304 4.73494,-8.04244 1.70598,-3.8994 3.58599,-8.28609 4.76973,-12.60328 1.18374,-4.31719 1.67115,-8.56462 1.39261,-12.25511 -0.27853,-3.6905 -1.32298,-6.82385 -1.84522,-10.16619 -0.52223,-3.34234 -0.52223,-6.89347 -0.4526,-10.61879 0.0696,-3.72532 0.2089,-7.6246 -0.17408,-6.75421 z"
       id="path4"
       inkscape:path-effect="#path-effect4"
       inkscape:original-d="m 825.34089,262.78887 c -0.90521,5.64014 -1.81042,11.28029 -2.71563,16.92043 -2.36751,6.05805 -4.73493,12.11586 -7.1024,18.17379 -1.46229,5.0832 -2.92452,10.16619 -4.38678,15.24928 0.27853,3.89943 0.55705,7.79871 0.83558,11.69807 1.46229,1.94972 2.92452,3.89936 4.38678,5.84904 1.53192,-3.41201 3.06378,-6.82388 4.59567,-10.23582 1.88008,-4.38686 3.76009,-8.77355 5.64014,-13.16033 0.48743,-4.2476 0.97484,-8.49503 1.46226,-12.74254 -1.04449,-3.13348 -2.08894,-6.26683 -3.13341,-9.40024 0,-3.55127 0,-7.1024 0,-10.6536 0.13926,-3.89944 0.27852,-7.79872 0.41779,-11.69808 z" />
    <path
       style="fill:#ff0000;fill-opacity:1;stroke:#000000;stroke-width:0;stroke-opacity:1;paint-order:markers fill stroke"
       d="m 790.84195,460.77278 c -25.10096,-0.92744 -45.91953,-5.1075 -59.49543,-11.94581 -19.44096,-9.7926 -39.79681,-33.325 -45.67454,-52.80211 -1.61281,-5.34439 -1.30305,-6.5022 0.78594,-2.9376 3.84034,6.55304 12.60244,14.20991 20.77989,18.15876 8.36098,4.03747 12.88143,5.00925 23.04284,4.95359 7.61972,-0.0417 10.10553,-0.31421 17.72526,-1.94292 11.45508,-2.44852 18.89672,-2.95608 23.54187,-1.6057 3.97043,1.15424 5.48537,2.57063 13.30219,12.43696 10.98927,13.87055 24.15033,23.02097 38.41805,26.71071 5.23267,1.35322 6.4327,1.44634 15.13671,1.1746 6.71898,-0.20976 11.07707,-0.66816 15.06647,-1.58474 8.60596,-1.97726 8.92745,-2.01032 6.49926,-0.66827 -2.75476,1.52253 -11.3429,4.52187 -17.31027,6.04548 -7.33633,1.87313 -19.28175,3.47761 -28.47998,3.82537 -4.54949,0.172 -9.06943,0.37902 -10.04432,0.46005 -0.97489,0.081 -6.95716,-0.0442 -13.29394,-0.27837 z"
       id="path5" />
    <path
       style="fill:#ff5555;fill-opacity:1;stroke:#ffffff;stroke-width:0;stroke-opacity:1;paint-order:markers fill stroke"
       d="m 785.4716,460.26396 c -25.26873,-1.58691 -45.13656,-6.39301 -57.95941,-14.02059 -13.65132,-8.12039 -28.54234,-23.95832 -36.6241,-38.953 -2.49049,-4.6208 -6.17574,-14.20853 -5.6597,-14.72457 0.11347,-0.11347 1.38783,1.41617 2.83191,3.3992 7.01638,9.63499 20.09501,17.77501 31.87214,19.83693 7.0116,1.22758 18.71535,0.68035 28.36889,-1.32644 8.77741,-1.82466 19.24612,-2.5162 22.92861,-1.51462 3.17262,0.8629 6.03884,3.43052 12.24377,10.96823 12.5829,15.28565 24.30454,23.70855 38.76703,27.85707 5.23017,1.50026 5.76388,1.5393 16.39806,1.19941 6.51009,-0.20807 12.65432,-0.72663 15.06903,-1.2718 2.2424,-0.50626 4.1841,-0.81348 4.31488,-0.6827 0.38089,0.38089 -9.63766,3.86093 -15.50019,5.38414 -12.52528,3.25435 -38.5547,5.01033 -57.05092,3.84874 z"
       id="path6" />
    <path
       style="fill:#ffccaa;fill-opacity:1;stroke:#ffffff;stroke-width:0;stroke-opacity:1;paint-order:markers fill stroke"
       d="m 828.95126,451.37879 c -16.22442,-2.52293 -31.81177,-12.94761 -45.01928,-30.10848 -5.63216,-7.318 -6.20347,-7.87261 -9.65519,-9.37293 -5.68468,-2.4709 -12.60237,-2.18848 -29.22509,1.19314 -15.35148,3.123 -25.0199,2.31425 -36.19463,-3.02765 -18.05212,-8.62952 -27.4812,-23.32689 -29.72812,-46.33801 -1.50999,-15.46419 2.63503,-34.92736 16.29079,-76.49412 8.4984,-25.86829 14.93031,-41.99716 23.24082,-58.27948 12.98931,-25.44925 26.33264,-38.91221 57.80234,-58.32057 23.16647,-14.28749 37.9613,-19.11504 49.42803,-16.12833 5.24813,1.36696 7.65578,2.86618 13.85968,8.63031 6.75212,6.27347 13.20924,9.7847 21.69695,11.79827 7.84827,1.86187 17.98604,1.42813 28.065,-1.20074 5.70638,-1.48839 8.14833,-1.85789 10.74064,-1.62521 4.35846,0.3912 8.73458,2.78214 12.09571,6.60863 7.10412,8.08769 16.03235,33.39407 22.62274,64.12242 10.42765,48.61998 13.27814,73.99275 11.22118,99.8819 -1.88687,23.74851 -9.5101,47.11301 -20.32823,62.30422 -12.02563,16.88681 -35.91604,33.03631 -61.49887,41.57216 -12.82901,4.28046 -26.64895,6.14753 -35.41447,4.78447 z M 817.9353,327.71274 c 0.71626,-0.76242 2.45965,-4.01944 3.87421,-7.23782 6.13037,-13.94778 7.2918,-21.25726 5.13568,-32.32175 -0.87413,-4.48576 -1.24356,-8.66906 -1.24356,-14.08174 0,-9.87268 -0.8291,-9.84077 -3.28593,0.12648 -0.99485,4.03605 -3.57557,12.52292 -5.73494,18.8597 -2.15937,6.33678 -4.37102,13.76622 -4.91477,16.50987 -2.39004,12.0596 1.40375,23.21797 6.16931,18.14526 z m -41.56898,-0.61107 c 3.74834,-1.76989 11.36642,-8.29155 14.43844,-12.3604 2.81502,-3.72847 3.59087,-5.49159 5.65233,-12.84489 1.96808,-7.02023 5.2255,-14.02822 9.17833,-19.74619 4.50596,-6.5181 3.41575,-7.75782 -3.27205,-3.72074 -5.02726,3.0347 -9.86868,7.19742 -17.23902,14.82233 -10.64723,11.015 -14.05888,16.83425 -15.51983,26.47223 -1.26458,8.34251 0.54256,10.31425 6.7618,7.37766 z"
       id="path7" />
    <path
       style="fill:#ffebde;fill-opacity:1;stroke:#ffffff;stroke-width:0;stroke-opacity:1;paint-order:markers fill stroke"
       d="m 825.99705,450.53586 c -8.09397,-1.7659 -18.82834,-7.15792 -26.29247,-13.20704 -4.5153,-3.65931 -10.69303,-10.18498 -16.20784,-17.12068 -4.40922,-5.54527 -5.8184,-6.90271 -8.5672,-8.25268 -3.04425,-1.49506 -3.81948,-1.61353 -10.38006,-1.58638 -5.39074,0.0223 -9.49752,0.48205 -17.13441,1.91812 -17.63345,3.31587 -24.81539,3.06245 -35.39003,-1.24879 -14.40413,-5.87251 -24.59194,-16.63165 -29.22822,-30.86735 -7.15775,-21.97788 -4.08022,-42.29666 14.96459,-98.80056 10.88688,-32.30021 19.65186,-51.83308 30.66321,-68.33335 8.07674,-12.10281 21.27761,-24.49643 37.89739,-35.57992 17.89812,-11.936 32.87311,-19.56943 43.80759,-22.33071 5.06953,-1.28021 12.82684,-1.18673 17.31,0.20859 3.89625,1.21265 5.47084,2.26608 12.71892,8.50923 5.8531,5.04159 11.03837,8.13852 17.15315,10.24482 4.45118,1.53325 5.32951,1.62862 15.06647,1.6358 9.33014,0.007 11.00318,-0.154 17.13442,-1.64757 11.02793,-2.6864 15.73714,-1.79276 21.67747,4.11364 8.3036,8.25618 17.9183,36.74664 26.10272,77.34811 7.59739,37.68929 9.8155,58.13489 8.84572,81.53619 -1.01522,24.49791 -8.25027,49.29163 -19.17495,65.71041 -10.54481,15.84786 -32.10329,31.66386 -56.06249,41.12926 -15.99608,6.31946 -34.07056,8.98445 -44.90398,6.62086 z m -8.0276,-122.56735 c 1.63009,-1.63009 5.10921,-9.22745 7.55931,-16.50729 2.63116,-7.81778 3.15881,-14.77339 1.7585,-23.18113 -0.50951,-3.05922 -1.11112,-9.22807 -1.33692,-13.70856 -0.28019,-5.55983 -0.61934,-8.07778 -1.06818,-7.9304 -0.3617,0.11878 -1.39847,2.85405 -2.30393,6.0784 -0.90546,3.22435 -3.49262,11.71178 -5.74925,18.86097 -2.25662,7.14919 -4.53176,14.85968 -5.05585,17.13442 -1.75614,7.62224 -0.53337,18.02964 2.34181,19.93187 1.14725,0.75902 2.6884,0.48783 3.85451,-0.67828 z m -42.12288,-0.33827 c 4.03243,-1.68486 12.89113,-9.51219 16.30115,-14.4033 1.01932,-1.46205 2.91944,-6.04032 4.38936,-10.57602 2.75459,-8.49975 5.57001,-14.60776 9.57058,-20.7632 4.59986,-7.07753 2.41954,-7.81483 -6.18305,-2.09086 -9.13272,6.0767 -23.95935,22.01206 -27.50391,29.56063 -2.83164,6.03034 -4.28523,15.28543 -2.82827,18.00779 0.74694,1.39568 3.29007,1.50342 6.25414,0.26496 z"
       id="path8" />
    <path
       style="fill:#4d4d4d;fill-opacity:1;stroke:#ffffff;stroke-width:0;stroke-opacity:1;paint-order:markers fill stroke"
       d="m 770.95687,325.82296 c -0.53323,-1.38957 0.31857,-7.60301 1.61987,-11.81613 1.75247,-5.67382 6.40258,-12.05989 15.29871,-21.00992 6.8874,-6.92914 15.66,-14.11951 17.22648,-14.11951 0.26692,0 -0.59041,1.66174 -1.90516,3.69276 -3.61442,5.58354 -6.23917,11.50953 -8.21593,18.54938 -2.47275,8.80625 -3.67545,10.98537 -8.94323,16.20383 -7.54691,7.47623 -14.06396,11.14928 -15.08074,8.49959 z"
       id="path9" />
    <path
       style="fill:#666666;fill-opacity:1;stroke:#ffffff;stroke-width:0;stroke-opacity:1;paint-order:markers fill stroke"
       d="m 814.10714,325.44389 c -0.66002,-1.25627 -1.12099,-3.79346 -1.28632,-7.07983 -0.31394,-6.24026 0.71693,-11.30377 4.49048,-22.05682 1.48251,-4.22452 3.55046,-10.4657 4.59545,-13.86929 l 1.89998,-6.18834 0.39523,4.1204 c 0.21737,2.26621 0.80587,6.23831 1.30777,8.82687 1.30912,6.75188 0.858,14.05045 -1.26927,20.53529 -1.94056,5.91564 -7.356,17.17874 -8.40078,17.47204 -0.38714,0.10868 -1.16678,-0.68347 -1.73254,-1.76032 z"
       id="path10" />
    <path
       style="fill:#666666;fill-opacity:1;stroke:#ffffff;stroke-width:0;stroke-opacity:1;paint-order:markers fill stroke"
       d="m 771.51905,321.86115 c 0.67174,-8.3298 3.24716,-13.61237 11.05111,-22.66752 6.12148,-7.10293 20.26965,-19.74131 21.13306,-18.8779 0.1457,0.1457 -0.67064,1.8093 -1.81409,3.69689 -2.94186,4.85641 -4.7734,9.22593 -7.48984,17.86852 -1.48488,4.7243 -3.06812,8.49867 -4.24839,10.12798 -4.28025,5.90871 -14.45489,14.13564 -17.48224,14.13564 -1.4938,0 -1.49477,-0.004 -1.14961,-4.28361 z"
       id="path11" />
  </g>
</svg>
