<?xml version="1.0" encoding="UTF-8" standalone="no"?>
<!-- Created with Inkscape (http://www.inkscape.org/) -->

<svg
   width="210mm"
   height="297mm"
   viewBox="0 0 210 297"
   version="1.1"
   id="svg1"
   xml:space="preserve"
   inkscape:version="1.4.3 (0d15f75, 2025-12-25)"
   sodipodi:docname="body.svg"
   inkscape:export-filename="..\Users\avina\bitmap.png"
   inkscape:export-xdpi="96"
   inkscape:export-ydpi="96"
   xmlns:inkscape="http://www.inkscape.org/namespaces/inkscape"
   xmlns:sodipodi="http://sodipodi.sourceforge.net/DTD/sodipodi-0.dtd"
   xmlns="http://www.w3.org/2000/svg"
   xmlns:svg="http://www.w3.org/2000/svg"><sodipodi:namedview
     id="namedview1"
     pagecolor="#ffffff"
     bordercolor="#000000"
     borderopacity="0.25"
     inkscape:showpageshadow="2"
     inkscape:pageopacity="0.0"
     inkscape:pagecheckerboard="0"
     inkscape:deskcolor="#d1d1d1"
     inkscape:document-units="mm"
     showguides="true"
     inkscape:zoom="0.85296627"
     inkscape:cx="327.09383"
     inkscape:cy="573.87967"
     inkscape:window-width="1920"
     inkscape:window-height="991"
     inkscape:window-x="-9"
     inkscape:window-y="-9"
     inkscape:window-maximized="1"
     inkscape:current-layer="layer1"
     showgrid="false" /><defs
     id="defs1"><inkscape:path-effect
       effect="bspline"
       id="path-effect9"
       is_visible="true"
       lpeversion="1.3"
       weight="33.333333"
       steps="2"
       helper_size="0"
       apply_no_weight="true"
       apply_with_weight="true"
       only_selected="false"
       uniform="false" /><inkscape:path-effect
       effect="bspline"
       id="path-effect28"
       is_visible="true"
       lpeversion="1.3"
       weight="33.333333"
       steps="2"
       helper_size="0"
       apply_no_weight="true"
       apply_with_weight="true"
       only_selected="false"
       uniform="false" /><inkscape:path-effect
       effect="bspline"
       id="path-effect27"
       is_visible="true"
       lpeversion="1.3"
       weight="33.333333"
       steps="2"
       helper_size="0"
       apply_no_weight="true"
       apply_with_weight="true"
       only_selected="false"
       uniform="false" /><inkscape:path-effect
       effect="bspline"
       id="path-effect26"
       is_visible="true"
       lpeversion="1.3"
       weight="33.333333"
       steps="2"
       helper_size="0"
       apply_no_weight="true"
       apply_with_weight="true"
       only_selected="false"
       uniform="false" /><inkscape:path-effect
       effect="bspline"
       id="path-effect25"
       is_visible="true"
       lpeversion="1.3"
       weight="33.333333"
       steps="2"
       helper_size="0"
       apply_no_weight="true"
       apply_with_weight="true"
       only_selected="false"
       uniform="false" /><inkscape:path-effect
       effect="bspline"
       id="path-effect24"
       is_visible="true"
       lpeversion="1.3"
       weight="33.333333"
       steps="2"
       helper_size="0"
       apply_no_weight="true"
       apply_with_weight="true"
       only_selected="false"
       uniform="false" /><inkscape:path-effect
       effect="bspline"
       id="path-effect23"
       is_visible="true"
       lpeversion="1.3"
       weight="33.333333"
       steps="2"
       helper_size="0"
       apply_no_weight="true"
       apply_with_weight="true"
       only_selected="false"
       uniform="false" /><inkscape:path-effect
       effect="bspline"
       id="path-effect22"
       is_visible="true"
       lpeversion="1.3"
       weight="33.333333"
       steps="2"
       helper_size="0"
       apply_no_weight="true"
       apply_with_weight="true"
       only_selected="false"
       uniform="false" /></defs><g
     inkscape:label="Layer 1"
     inkscape:groupmode="layer"
     id="layer1"><path
       id="path26"
       style="opacity:0.6;fill:#ffffff;fill-opacity:1;stroke:none;stroke-width:0.264583;stroke-opacity:1"
       d="m 41.804167,128.71979 c 0.485069,4.63021 0.969961,9.26054 1.23455,14.64045 0.264588,5.37991 0.30885,11.50931 -1.631425,15.54427 -1.940276,4.03496 -5.864892,5.97499 -9.06198,8.24601 -3.197086,2.27103 -5.66664,4.87289 -5.843054,7.76128 -0.176413,2.8884 1.940429,6.06317 5.9092,8.70903 3.968772,2.64587 9.789697,4.76266 14.111284,5.38004 4.321586,0.61738 7.143376,-0.26475 11.597225,-1.01441 4.453848,-0.74966 10.539175,-1.36701 19.579166,-0.79375 9.039991,0.57326 21.034401,2.33713 32.830557,1.91823 11.79612,-0.41891 23.39311,-3.02081 30.38264,-3.92483 6.98952,-0.90402 9.37081,-0.10991 12.06076,-0.0217 2.68996,0.0882 5.68869,-0.52916 7.82743,-0.46302 2.13875,0.0661 3.41749,0.81564 5.55625,0.30851 2.13876,-0.50713 5.1373,-2.271 6.15156,-4.49792 1.01427,-2.22693 0.0441,-4.91664 -1.78593,-6.32778 -1.83005,-1.41114 -4.52012,-1.54357 -7.43056,-2.46962 -2.91044,-0.92604 -6.04129,-2.64564 -7.73906,-4.67413 -1.67639,-2.00293 -1.95545,-4.30693 -2.21692,-6.61458 -1.68808,1.42869 -3.37453,2.85622 -4.56665,3.93154 -1.19522,1.07811 -1.89332,1.80192 -3.31504,3.06855 -1.42172,1.26663 -3.56702,3.07623 -5.19555,4.36872 -1.62853,1.29248 -2.74031,2.06774 -4.12326,2.882 -1.38295,0.81426 -3.03702,1.66723 -5.40225,2.52026 -2.36523,0.85304 -5.44138,1.7061 -8.12974,2.24895 -2.68836,0.54284 -4.989,0.77564 -6.9665,0.82734 -1.97749,0.0517 -3.63161,-0.0774 -5.27306,-0.25838 -1.64145,-0.18094 -3.27021,-0.4137 -5.3511,-0.91777 -2.08089,-0.50406 -4.61378,-1.27966 -6.707599,-2.10685 -2.093822,-0.82719 -3.74797,-1.70596 -5.195549,-2.58485 -1.44758,-0.87888 -2.688773,-1.75769 -3.748608,-2.52026 -1.059835,-0.76256 -1.938406,-1.40881 -3.062862,-2.35232 -1.124456,-0.94351 -2.494352,-2.18423 -3.825607,-3.64473 -1.331255,-1.4605 -2.623653,-3.14064 -3.696415,-4.88549 -1.072761,-1.74485 -1.926042,-3.55446 -2.512508,-4.81625 -0.568444,-1.22301 -0.886529,-1.93148 -1.196826,-2.62413 -2.22404,3.09602 -4.448939,6.17616 -6.782015,7.78971 -2.359225,1.63163 -4.828622,1.76389 -6.35,0.33073 -1.521379,-1.43316 -2.094612,-4.43192 -2.38125,-7.43056 -0.286638,-2.99864 -0.286804,-5.99702 0.374654,-10.03194 0.467793,-2.85356 1.266656,-6.22569 2.162142,-9.74928 l -3.961515,-1.12293 c -0.820918,1.98987 -1.633705,3.97589 -2.477885,5.97742 -1.367028,3.24118 -2.778284,6.50413 -4.057117,8.44444 -1.278833,1.94031 -2.425336,2.55781 -3.307292,1.74201 -0.881955,-0.81579 -1.499471,-3.06507 -1.742012,-6.72517 -0.223472,-3.37232 -0.09909,-8.05263 0.02067,-12.71705 z m 38.835872,10.18078 -5.17e-4,5.1e-4 -5.16e-4,5.2e-4 h -5.17e-4 v 5.2e-4 h -5.17e-4 v 5.1e-4 c -0.0019,0.001 -0.0046,0.005 -0.0067,0.007 -0.06697,0.0882 -0.119968,0.18522 -0.173116,0.28267 0.0359,-0.0351 0.06992,-0.0713 0.101803,-0.11007 0.03162,-0.0385 0.08239,-0.15853 0.08217,-0.17932 v -5.1e-4 -5.2e-4 -5.2e-4 h -5.17e-4 v -5.1e-4 h -5.16e-4 -5.17e-4 z" /></g></svg>
