<?xml version="1.0" encoding="UTF-8" standalone="no"?>
<!-- Created with Inkscape (http://www.inkscape.org/) -->

<svg
   version="1.1"
   id="svg1"
   width="1600"
   height="715"
   viewBox="0 0 1600 715"
   sodipodi:docname="bread.svg"
   inkscape:version="1.4.3 (0d15f75, 2025-12-25)"
   xmlns:inkscape="http://www.inkscape.org/namespaces/inkscape"
   xmlns:sodipodi="http://sodipodi.sourceforge.net/DTD/sodipodi-0.dtd"
   xmlns="http://www.w3.org/2000/svg"
   xmlns:svg="http://www.w3.org/2000/svg">
  <defs
     id="defs1">
    <inkscape:path-effect
       effect="bspline"
       id="path-effect10"
       is_visible="true"
       lpeversion="1.3"
       weight="33.333333"
       steps="2"
       helper_size="0"
       apply_no_weight="true"
       apply_with_weight="true"
       only_selected="false"
       uniform="false" />
    <inkscape:path-effect
       effect="bspline"
       id="path-effect9"
       is_visible="true"
       lpeversion="1.3"
       weight="33.333333"
       steps="2"
       helper_size="0"
       apply_no_weight="true"
       apply_with_weight="true"
       only_selected="false"
       uniform="false" />
    <inkscape:path-effect
       effect="bspline"
       id="path-effect8"
       is_visible="true"
       lpeversion="1.3"
       weight="33.333333"
       steps="2"
       helper_size="0"
       apply_no_weight="true"
       apply_with_weight="true"
       only_selected="false"
       uniform="false" />
    <inkscape:path-effect
       effect="bspline"
       id="path-effect7"
       is_visible="true"
       lpeversion="1.3"
       weight="33.333333"
       steps="2"
       helper_size="0"
       apply_no_weight="true"
       apply_with_weight="true"
       only_selected="false"
       uniform="false" />
    <inkscape:path-effect
       effect="bspline"
       id="path-effect6"
       is_visible="true"
       lpeversion="1.3"
       weight="33.333333"
       steps="2"
       helper_size="0"
       apply_no_weight="true"
       apply_with_weight="true"
       only_selected="false"
       uniform="false" />
    <inkscape:path-effect
       effect="bspline"
       id="path-effect5"
       is_visible="true"
       lpeversion="1.3"
       weight="33.333333"
       steps="2"
       helper_size="0"
       apply_no_weight="true"
       apply_with_weight="true"
       only_selected="false"
       uniform="false" />
    <inkscape:path-effect
       effect="bspline"
       id="path-effect4"
       is_visible="true"
       lpeversion="1.3"
       weight="33.333333"
       steps="2"
       helper_size="0"
       apply_no_weight="true"
       apply_with_weight="true"
       only_selected="false"
       uniform="false" />
    <inkscape:path-effect
       effect="bspline"
       id="path-effect3"
       is_visible="true"
       lpeversion="1.3"
       weight="33.333333"
       steps="2"
       helper_size="0"
       apply_no_weight="true"
       apply_with_weight="true"
       only_selected="false"
       uniform="false" />
    <inkscape:path-effect
       effect="bspline"
       id="path-effect2"
       is_visible="true"
       lpeversion="1.3"
       weight="33.333333"
       steps="2"
       helper_size="0"
       apply_no_weight="true"
       apply_with_weight="true"
       only_selected="false"
       uniform="false" />
    <inkscape:path-effect
       effect="bspline"
       id="path-effect1"
       is_visible="true"
       lpeversion="1.3"
       weight="33.333333"
       steps="2"
       helper_size="0"
       apply_no_weight="true"
       apply_with_weight="true"
       only_selected="false"
       uniform="false" />
    <inkscape:path-effect
       effect="bspline"
       id="path-effect1-4"
       is_visible="true"
       lpeversion="1.3"
       weight="33.333333"
       steps="2"
       helper_size="0"
       apply_no_weight="true"
       apply_with_weight="true"
       only_selected="false"
       uniform="false" />
  </defs>
  <sodipodi:namedview
     id="namedview1"
     pagecolor="#ffffff"
     bordercolor="#000000"
     borderopacity="0.25"
     inkscape:showpageshadow="2"
     inkscape:pageopacity="0.0"
     inkscape:pagecheckerboard="0"
     inkscape:deskcolor="#d1d1d1"
     inkscape:zoom="0.76446649"
     inkscape:cx="774.39627"
     inkscape:cy="291.05265"
     inkscape:window-width="1920"
     inkscape:window-height="991"
     inkscape:window-x="-9"
     inkscape:window-y="-9"
     inkscape:window-maximized="1"
     inkscape:current-layer="g1" />
  <g
     inkscape:groupmode="layer"
     inkscape:label="Image"
     id="g1">
    <path
       style="fill:none;stroke:#000000;stroke-width:1px;stroke-linecap:butt;stroke-linejoin:miter;stroke-opacity:1"
       d="m 637.04558,208.42422 c 8.28465,-7.84862 15.91524,-13.29904 26.59821,-18.85853 10.68297,-5.55948 24.41776,-11.22781 38.04396,-16.02422 13.62619,-4.79641 27.14297,-8.72064 41.42323,-10.79181 14.28027,-2.07116 29.32314,-2.28917 42.7313,-1.63511 13.40816,0.65407 25.18084,2.18016 35.10069,5.34145 9.91986,3.1613 17.98632,7.95757 25.07193,14.06212 7.08562,6.10455 13.18997,13.51698 17.65935,20.38458 4.46938,6.8676 7.30354,13.18996 7.52153,21.03867 0.21799,7.8487 -2.18014,17.22324 -4.0333,26.16203 -1.85316,8.93878 -3.16124,17.44127 -3.05221,27.90621 0.10902,10.46493 1.63511,22.89165 3.59729,37.38994 1.96217,14.4983 4.36031,31.06726 6.97654,47.09166 2.61624,16.0244 5.4504,31.5033 6.10444,43.3853 0.65403,11.88201 -0.87206,20.16649 -5.23247,27.14309 -4.36041,6.9766 -11.55483,12.64493 -23.32791,17.33233 -11.77308,4.6874 -28.12402,8.39362 -46.43765,12.42698 -18.31363,4.03335 -38.5888,8.3936 -60.60875,11.55487 -22.01995,3.16126 -45.78333,5.12338 -59.84546,3.92424 -14.06214,-1.19913 -18.4224,-5.55939 -22.34673,-12.209 -3.92434,-6.6496 -7.41255,-15.58812 -10.46481,-26.05305 -3.05227,-10.46494 -5.66842,-22.45563 -7.63058,-35.86382 -1.96217,-13.40819 -3.27025,-28.23305 -3.81529,-41.85923 -0.54504,-13.62619 -0.32702,-26.05291 -1.41713,-38.69802 -1.0901,-12.64511 -3.48824,-25.50786 -7.52162,-35.4277 -4.03337,-9.91984 -9.70169,-16.89624 -13.51701,-24.63593 -3.81532,-7.73969 -5.77744,-16.24218 -2.28907,-25.61701 3.48836,-9.37484 12.42688,-19.62143 20.71152,-27.47004 z"
       id="path1"
       inkscape:path-effect="#path-effect1"
       inkscape:original-d="m 637.69963,206.02603 c 7.6306,-5.45042 15.26119,-10.90084 22.89178,-16.35127 13.73535,-5.66855 27.47014,-11.33688 41.20521,-17.00532 13.51732,-3.92439 27.0341,-7.84861 40.55116,-11.77292 15.04347,-0.21802 30.08634,-0.43603 45.12951,-0.65405 11.77315,1.52615 23.54583,3.05224 35.31875,4.57836 8.06679,4.79647 16.13325,9.59274 24.19988,14.38912 6.1046,7.41272 12.20895,14.82515 18.31343,22.23773 2.83427,6.32262 5.66844,12.64498 8.50266,18.96747 -2.39824,9.37492 -4.79638,18.74946 -7.19456,28.12419 -1.30813,8.50284 -2.61621,17.00533 -3.92431,25.50799 1.52615,12.42721 3.05224,24.85393 4.57836,37.2809 2.39823,16.56962 4.79637,33.13858 7.19456,49.70787 2.83428,15.47951 5.66844,30.95841 8.50266,46.43761 -1.52615,8.28481 -3.05224,16.56929 -4.57836,24.85394 -7.1947,5.66855 -14.38912,11.33688 -21.58368,17.00532 -16.3516,3.70636 -32.70254,7.41258 -49.05381,11.11887 -20.27599,4.36042 -40.55116,8.72068 -60.82674,13.08101 -23.76432,1.9622 -47.5277,3.92431 -71.29155,5.88646 -4.36042,-4.36042 -8.72068,-8.72068 -13.08101,-13.08102 -3.48835,-8.93887 -6.97655,-17.87739 -10.46482,-26.81608 -2.61625,-11.99118 -5.23241,-23.98187 -7.84861,-35.9728 -1.30813,-14.82545 -2.6162,-29.65031 -3.92431,-44.47546 0.21803,-12.42722 0.43604,-24.85394 0.65406,-37.28091 -2.39824,-12.86325 -4.79638,-25.726 -7.19456,-38.589 -5.66856,-6.97668 -11.33689,-13.95308 -17.00533,-20.92963 -1.96219,-8.50283 -3.9243,-17.00532 -5.88646,-25.50798 8.93888,-10.24701 17.8774,-20.4936 26.81609,-30.7404 z" />
    <path
       style="fill:none;stroke:#000000;stroke-width:1px;stroke-linecap:butt;stroke-linejoin:miter;stroke-opacity:1"
       d="m 637.04558,208.42422 c 8.28465,-7.84862 15.91524,-13.29904 26.59821,-18.85853 10.68297,-5.55948 24.41776,-11.22781 38.04396,-16.02422 13.62619,-4.79641 27.14297,-8.72064 41.42323,-10.79181 14.28027,-2.07116 29.32314,-2.28917 42.7313,-1.63511 13.40816,0.65407 25.18084,2.18016 35.10069,5.34145 9.91986,3.1613 17.98632,7.95757 25.07193,14.06212 7.08562,6.10455 13.18997,13.51698 17.65935,20.38458 4.46938,6.8676 7.30354,13.18996 7.52153,21.03867 0.21799,7.8487 -2.18014,17.22324 -4.0333,26.16203 -1.85316,8.93878 -3.16124,17.44127 -3.05221,27.90621 0.10902,10.46493 1.63511,22.89165 3.59729,37.38994 1.96217,14.4983 4.36031,31.06726 6.97654,47.09166 2.61624,16.0244 5.4504,31.5033 6.10444,43.3853 0.65403,11.88201 -0.87206,20.16649 -5.23247,27.14309 -4.36041,6.9766 -11.55483,12.64493 -23.32791,17.33233 -11.77308,4.6874 -28.12402,8.39362 -46.43765,12.42698 -18.31363,4.03335 -38.5888,8.3936 -60.60875,11.55487 -22.01995,3.16126 -45.78333,5.12338 -59.84546,3.92424 -14.06214,-1.19913 -18.4224,-5.55939 -22.34673,-12.209 -3.92434,-6.6496 -7.41255,-15.58812 -10.46481,-26.05305 -3.05227,-10.46494 -5.66842,-22.45563 -7.63058,-35.86382 -1.96217,-13.40819 -3.27025,-28.23305 -3.81529,-41.85923 -0.54504,-13.62619 -0.32702,-26.05291 -1.41713,-38.69802 -1.0901,-12.64511 -3.48824,-25.50786 -7.52162,-35.4277 -4.03337,-9.91984 -9.70169,-16.89624 -13.51701,-24.63593 -3.81532,-7.73969 -5.77744,-16.24218 -2.28907,-25.61701 3.48836,-9.37484 12.42688,-19.62143 20.71152,-27.47004 z"
       id="path1-2"
       inkscape:path-effect="#path-effect1-4"
       inkscape:original-d="m 637.69963,206.02603 c 7.6306,-5.45042 15.26119,-10.90084 22.89178,-16.35127 13.73535,-5.66855 27.47014,-11.33688 41.20521,-17.00532 13.51732,-3.92439 27.0341,-7.84861 40.55116,-11.77292 15.04347,-0.21802 30.08634,-0.43603 45.12951,-0.65405 11.77315,1.52615 23.54583,3.05224 35.31875,4.57836 8.06679,4.79647 16.13325,9.59274 24.19988,14.38912 6.1046,7.41272 12.20895,14.82515 18.31343,22.23773 2.83427,6.32262 5.66844,12.64498 8.50266,18.96747 -2.39824,9.37492 -4.79638,18.74946 -7.19456,28.12419 -1.30813,8.50284 -2.61621,17.00533 -3.92431,25.50799 1.52615,12.42721 3.05224,24.85393 4.57836,37.2809 2.39823,16.56962 4.79637,33.13858 7.19456,49.70787 2.83428,15.47951 5.66844,30.95841 8.50266,46.43761 -1.52615,8.28481 -3.05224,16.56929 -4.57836,24.85394 -7.1947,5.66855 -14.38912,11.33688 -21.58368,17.00532 -16.3516,3.70636 -32.70254,7.41258 -49.05381,11.11887 -20.27599,4.36042 -40.55116,8.72068 -60.82674,13.08101 -23.76432,1.9622 -47.5277,3.92431 -71.29155,5.88646 -4.36042,-4.36042 -8.72068,-8.72068 -13.08101,-13.08102 -3.48835,-8.93887 -6.97655,-17.87739 -10.46482,-26.81608 -2.61625,-11.99118 -5.23241,-23.98187 -7.84861,-35.9728 -1.30813,-14.82545 -2.6162,-29.65031 -3.92431,-44.47546 0.21803,-12.42722 0.43604,-24.85394 0.65406,-37.28091 -2.39824,-12.86325 -4.79638,-25.726 -7.19456,-38.589 -5.66856,-6.97668 -11.33689,-13.95308 -17.00533,-20.92963 -1.96219,-8.50283 -3.9243,-17.00532 -5.88646,-25.50798 8.93888,-10.24701 17.8774,-20.4936 26.81609,-30.7404 z"
       transform="matrix(1.2326097,0,0,1.1009525,-169.42482,-38.403978)" />
    <path
       style="fill:none;stroke:#000000;stroke-width:1px;stroke-linecap:butt;stroke-linejoin:miter;stroke-opacity:1"
       d="m 741.69372,269.25095 c -3.48827,3.70629 -6.97654,8.50267 -6.75848,12.427 0.21805,3.92434 4.14228,6.97651 8.06663,6.75846 3.92434,-0.21805 7.84857,-3.70625 10.79182,-8.28467 2.94325,-4.57841 4.90536,-10.24673 4.46929,-13.73502 -0.43606,-3.48828 -3.27022,-4.79636 -6.4315,-4.14228 -3.16128,0.65408 -6.64948,3.27022 -10.13776,6.97651 z"
       id="path2"
       inkscape:path-effect="#path-effect2"
       inkscape:original-d="m 741.69372,268.16087 c -3.48827,4.79637 -6.97654,9.59275 -10.46481,14.38912 3.92438,3.0523 7.84861,6.10448 11.77292,9.15671 3.92438,-3.48834 7.84861,-6.97654 11.77291,-10.46481 1.9622,-5.66856 3.92431,-11.33688 5.88646,-17.00532 -2.83428,-1.30813 -5.66844,-2.61621 -8.50266,-3.92431 -3.48834,2.61626 -6.97654,5.23241 -10.46482,7.84861 z" />
    <path
       style="fill:none;stroke:#000000;stroke-width:1px;stroke-linecap:butt;stroke-linejoin:miter;stroke-opacity:1"
       d="m 808.62494,281.56891 c -1.74414,0.10901 -3.27026,3.16125 -2.72519,5.55946 0.54507,2.3982 3.16122,4.1423 4.90536,4.03327 1.74415,-0.10903 2.6162,-2.07114 2.07114,-4.46936 -0.54507,-2.39821 -2.50718,-5.23237 -4.25131,-5.12337 z"
       id="path3"
       inkscape:path-effect="#path-effect3"
       inkscape:original-d="m 808.40692,278.62569 c -1.52612,3.05223 -3.05224,6.10447 -4.57836,9.15671 2.61626,1.74417 5.23241,3.48827 7.84861,5.2324 0.87209,-1.96219 1.74414,-3.9243 2.61621,-5.88645 -1.9622,-2.83428 -3.92431,-5.66844 -5.88646,-8.50266 z" />
    <path
       style="fill:none;stroke:#000000;stroke-width:1px;stroke-linecap:butt;stroke-linejoin:miter;stroke-opacity:1"
       d="m 668.76705,215.07374 c -2.07117,2.28918 -4.46935,10.3558 -4.25131,16.13329 0.21805,5.77748 3.05222,9.26569 5.01438,8.7206 1.96217,-0.54509 3.05223,-5.12336 3.70628,-9.15671 0.65405,-4.03334 0.87206,-7.52154 0.10899,-11.00985 -0.76308,-3.48831 -2.50718,-6.97651 -4.57834,-4.68733 z"
       id="path4"
       inkscape:path-effect="#path-effect4"
       inkscape:original-d="m 669.09407,209.29629 c -2.39818,8.06663 -4.79637,16.13325 -7.19456,24.19988 2.83428,3.48834 5.66845,6.97655 8.50267,10.46482 1.0901,-4.57845 2.18017,-9.15672 3.27025,-13.73507 0.21802,-3.48834 0.43603,-6.97654 0.65405,-10.46482 -1.74417,-3.48834 -3.48827,-6.97654 -5.23241,-10.46481 z" />
    <path
       style="fill:none;stroke:#000000;stroke-width:1px;stroke-linecap:butt;stroke-linejoin:miter;stroke-opacity:1"
       d="m 685.88138,382.8378 c -3.9243,-1.09009 -10.02878,0 -13.40805,2.94327 -3.37927,2.94328 -4.03331,7.73956 -3.27022,11.44588 0.76308,3.70631 2.9432,6.32246 6.43152,6.75847 3.48832,0.43602 8.2846,-1.30808 11.44586,-3.92432 3.16126,-2.61624 4.68735,-6.10444 4.57832,-9.48373 -0.10902,-3.3793 -1.85312,-6.64949 -5.77743,-7.73957 z"
       id="path5"
       inkscape:path-effect="#path-effect5"
       inkscape:original-d="m 688.06155,380.65763 c -6.10447,1.09008 -12.20895,2.18017 -18.31342,3.27025 -0.65407,4.79647 -1.30811,9.59275 -1.96216,14.38912 2.18022,2.61626 4.36034,5.23241 6.54051,7.84861 4.79647,-1.74417 9.59275,-3.48827 14.38912,-5.23241 1.52615,-3.48834 3.05224,-6.97654 4.57836,-10.46481 -1.74417,-3.27032 -3.48827,-6.54051 -5.23241,-9.81076 z" />
    <path
       style="fill:none;stroke:#000000;stroke-width:1px;stroke-linecap:butt;stroke-linejoin:miter;stroke-opacity:1"
       d="m 757.06392,430.03847 c -2.50719,0.10901 -4.68736,3.16125 -5.45042,5.55945 -0.76305,2.3982 -0.10901,4.1423 1.19911,5.3414 1.30812,1.1991 3.27023,1.85314 5.45043,0.87204 2.18019,-0.9811 4.57833,-3.59725 4.36028,-6.3225 -0.21804,-2.72524 -3.0522,-5.5594 -5.5594,-5.45039 z"
       id="path6"
       inkscape:path-effect="#path-effect6"
       inkscape:original-d="m 756.7369,427.09524 c -2.18017,3.05224 -4.36034,6.10448 -6.54051,9.15671 0.65406,1.74417 1.3081,3.48827 1.96215,5.23241 1.96219,0.65406 3.9243,1.3081 5.88646,1.96215 2.39823,-2.61625 4.79637,-5.2324 7.19456,-7.84861 -2.83428,-2.83428 -5.66844,-5.66844 -8.50266,-8.50266 z" />
    <path
       style="fill:none;stroke:#000000;stroke-width:1px;stroke-linecap:butt;stroke-linejoin:miter;stroke-opacity:1"
       d="m 782.02686,365.50545 c -2.18017,2.72521 -3.27025,7.30357 -3.05222,10.90087 0.21803,3.59731 1.74412,6.21346 4.46937,8.17562 2.72525,1.96217 6.64948,3.27025 9.70174,3.70628 3.05226,0.43603 5.23239,0 6.32248,-2.50724 1.09008,-2.50724 1.09008,-7.08551 0.21799,-10.90083 -0.87208,-3.81533 -2.61618,-6.86751 -4.25133,-9.04769 -1.63514,-2.18018 -3.16123,-3.48826 -5.55945,-3.70627 -2.39822,-0.21801 -5.66841,0.65404 -7.84858,3.37926 z"
       id="path7"
       inkscape:path-effect="#path-effect7"
       inkscape:original-d="m 780.93678,363.6523 c -1.09009,4.57836 -2.18017,9.15672 -3.27026,13.73507 1.52615,2.61626 3.05224,5.23241 4.57836,7.84861 3.92438,1.30813 7.84861,2.61621 11.77292,3.92431 2.18021,-0.43604 4.36034,-0.87207 6.54051,-1.3081 0,-4.57845 0,-9.15672 0,-13.73507 -1.74417,-3.0523 -3.48828,-6.10448 -5.23241,-9.15672 -1.52615,-1.30812 -3.05224,-2.6162 -4.57836,-3.9243 -3.27032,0.87208 -6.54051,1.74413 -9.81076,2.6162 z" />
    <path
       style="fill:none;stroke:#000000;stroke-width:1px;stroke-linecap:butt;stroke-linejoin:miter;stroke-opacity:1"
       d="m 811.13212,193.92609 c -4.68736,1.1991 -10.57381,4.68737 -12.53594,8.61172 -1.96214,3.92435 -2e-5,8.2846 2.94324,10.46477 2.94327,2.18017 6.8675,2.18017 10.57382,-0.21806 3.70632,-2.39824 7.19453,-7.19452 8.93866,-10.5738 1.74414,-3.37928 1.74414,-5.3414 -3e-5,-6.86753 -1.74417,-1.52613 -5.23238,-2.61619 -9.91975,-1.4171 z"
       id="path8"
       inkscape:path-effect="#path-effect8"
       inkscape:original-d="m 812.33122,191.63691 c -5.88646,3.48828 -11.77291,6.97655 -17.65937,10.46482 1.96219,4.36043 3.9243,8.72068 5.88646,13.08102 3.92438,0 7.84861,0 11.77291,0 3.48834,-4.79647 6.97655,-9.59275 10.46482,-14.38912 0,-1.96219 0,-3.92431 0,-5.88646 -3.48834,-1.09011 -6.97655,-2.18017 -10.46482,-3.27026 z" />
    <path
       style="fill:none;stroke:#000000;stroke-width:1px;stroke-linecap:butt;stroke-linejoin:miter;stroke-opacity:1"
       d="m 748.34324,183.02525 c -2.07116,-0.10901 -2.07116,2.94322 -0.76303,5.55945 1.30813,2.61622 3.92428,4.79635 5.99545,4.90534 2.07118,0.10899 3.59727,-1.85313 2.28913,-4.46936 -1.30815,-2.61624 -5.45039,-5.88643 -7.52155,-5.99543 z"
       id="path9"
       inkscape:path-effect="#path-effect9"
       inkscape:original-d="m 746.27208,179.864 c 0,3.05224 0,6.10447 0,9.15671 2.61626,2.18021 5.23241,4.36034 7.84861,6.54051 1.52615,-1.96219 3.05224,-3.92431 4.57836,-5.88646 -4.14241,-3.27032 -8.28465,-6.54051 -12.42697,-9.81076 z" />
    <path
       style="fill:none;stroke:#000000;stroke-width:1px;stroke-linecap:butt;stroke-linejoin:miter;stroke-opacity:1"
       d="m 692.42189,439.30419 c -2.18017,0 -3.27025,3.70629 -3.27024,6.10449 10e-6,2.39819 1.09007,3.48826 3.27028,3.48825 2.1802,-10e-6 5.45038,-1.09008 5.45035,-3.4883 -3e-5,-2.39823 -3.27022,-6.10444 -5.45039,-6.10444 z"
       id="path10"
       inkscape:path-effect="#path-effect10"
       inkscape:original-d="m 691.33181,435.5979 c -1.09009,3.70629 -2.18017,7.41258 -3.27026,11.11887 1.09011,1.0901 2.18017,2.18017 3.27026,3.27025 3.27032,-1.0901 6.5405,-2.18017 9.81076,-3.27025 -3.27032,-3.70637 -6.54051,-7.41258 -9.81076,-11.11887 z" />
    <path
       style="fill:#d38d5f;stroke-width:0;paint-order:markers fill stroke;stroke:#000000;stroke-opacity:1"
       d="m 671.05623,484.59258 c -12.2733,-1.73163 -17.5785,-5.05065 -23.65525,-14.7991 -9.31588,-14.94475 -17.80899,-43.07669 -22.07262,-73.11161 -2.39835,-16.89511 -3.34869,-29.89294 -4.30391,-58.86458 -0.68174,-20.6771 -1.35354,-27.98353 -3.60828,-39.24305 -3.06475,-15.30451 -7.07356,-24.76667 -16.25997,-38.37914 -13.07859,-19.37994 -15.03416,-28.41883 -8.81784,-40.75721 5.96299,-11.83555 25.09474,-30.31886 41.79266,-40.37618 20.15905,-12.14198 64.03619,-27.96013 95.78979,-34.53318 31.20532,-6.45956 76.5155,-6.69934 104.87505,-0.55501 25.68601,5.56508 46.81618,20.19309 61.62683,42.66305 8.16855,12.39291 8.69858,19.19848 3.34389,42.9353 -4.56787,20.24888 -4.91955,23.26176 -4.52847,38.79509 0.44463,17.66039 4.33793,44.91813 14.21709,99.53667 4.6903,25.93106 5.8927,34.86907 5.87769,43.6914 -0.0266,15.60931 -4.98077,25.69244 -16.55481,33.69357 -12.06716,8.34202 -27.96549,13.25406 -70.17234,21.68085 -53.06445,10.59455 -84.62365,15.26865 -119.28753,17.66717 -11.14584,0.77122 -32.65916,0.74646 -38.26198,-0.044 z m 51.88977,-8.74924 c 26.08771,-2.7096 49.79476,-6.80788 85.13389,-14.71724 29.50891,-6.60447 41.04952,-10.03392 51.343,-15.25723 5.17703,-2.62703 7.574,-4.35034 11.49808,-8.26656 8.19267,-8.17625 10.68644,-15.10409 10.60979,-29.47455 -0.0515,-9.66364 -0.76724,-15.57101 -5.14902,-42.49998 -6.58156,-40.44821 -10.63654,-71.50601 -11.19359,-85.73383 -0.46816,-11.95722 0.14763,-17.90921 3.71756,-35.93296 3.15712,-15.93957 3.58725,-20.14905 2.67987,-26.22709 -1.43012,-9.57964 -9.30703,-22.44895 -20.59235,-33.64381 -13.09533,-12.99036 -26.13062,-19.06039 -47.97032,-22.33793 -11.28513,-1.69359 -48.27549,-1.69299 -59.04001,9.6e-4 -22.36357,3.51923 -50.31717,12.55022 -74.39891,24.03611 -15.98283,7.62309 -23.26584,12.61155 -34.73188,23.78941 -14.78011,14.40862 -21.00981,25.18527 -21.00981,36.3445 0,7.5119 2.15454,13.34625 9.37352,25.38286 5.54557,9.24643 7.4387,13.09824 9.64863,19.63129 4.4979,13.29681 6.18813,26.90975 7.12014,57.34482 0.71612,23.38493 1.29718,31.76714 3.29412,47.52009 3.05214,24.07688 7.92836,43.91985 14.76194,60.07128 6.23977,14.74791 11.28912,19.04642 24.58761,20.93139 5.57669,0.79046 28.77694,0.23716 40.31774,-0.96153 z"
       id="path11" />
    <path
       style="fill:#f8e2d3;stroke-width:0;paint-order:markers fill stroke;fill-opacity:1;stroke:#000000;stroke-opacity:1"
       d="m 679.33373,474.49044 c -8.77299,-1.90404 -12.88632,-5.38541 -17.70076,-14.98124 -11.58636,-23.0932 -18.80319,-62.96404 -20.01429,-110.57304 -1.11859,-43.9721 -4.09131,-57.33513 -17.88193,-80.3831 -2.56145,-4.28089 -5.27779,-9.43155 -6.03632,-11.44589 -5.51356,-14.64182 -1.30887,-25.97433 16.36922,-44.11841 13.79271,-14.15628 25.07353,-21.34847 49.28735,-31.42358 20.45096,-8.50943 42.68249,-15.28361 58.0097,-17.67616 25.50365,-3.98107 59.97425,-2.55575 78.48611,3.24532 18.97326,5.94565 37.0631,21.62696 46.34752,40.17666 4.98482,9.95936 5.13075,16.49484 0.84026,37.63106 -3.44494,16.97083 -4.24993,26.38811 -3.35079,39.19955 1.10047,15.68004 4.78585,42.92636 11.10863,82.1269 5.4416,33.73742 6.25181,43.78471 4.28068,53.08478 -1.49591,7.05794 -3.93786,11.42802 -9.46436,16.93727 -9.99239,9.96122 -21.87602,14.2898 -66.11321,24.08155 -47.68544,10.55502 -80.67425,15.17512 -107.59138,15.06824 -7.92538,-0.0315 -13.93008,-0.37556 -16.57643,-0.94991 z m 18.13455,-26.79322 c 1.79596,-1.74074 1.60863,-3.61271 -0.64873,-6.48246 -2.83334,-3.60202 -6.2022,-3.5321 -7.73171,0.16047 -1.27222,3.07139 -0.66738,6.79651 1.26289,7.77802 2.11559,1.07574 5.1448,0.45606 7.11755,-1.45603 z m 63.01618,-6.19069 c 2.05106,-1.61336 3.38746,-4.75382 2.88125,-6.77074 -1.08265,-4.3136 -5.54881,-6.75076 -8.64877,-4.71959 -3.93974,2.58141 -5.30846,7.91218 -2.83796,11.05293 1.72555,2.19367 6.09068,2.41554 8.60548,0.4374 z m -78.50214,-37.6656 c 3.67121,-1.2509 7.84253,-4.72982 9.26471,-7.72684 2.23222,-4.70405 0.8535,-10.87054 -2.93019,-13.10562 -3.88863,-2.29707 -12.84873,-1.16349 -16.51148,2.08895 -3.40204,3.02091 -4.58858,9.64515 -2.61235,14.58422 1.92466,4.81021 6.50615,6.30018 12.78931,4.15929 z M 797.9128,388.754 c 1.88725,-0.7242 2.97253,-3.89819 2.97253,-8.69341 0,-10.59196 -6.75489,-20.05989 -13.31228,-18.65903 -4.83684,1.03329 -7.73565,4.26437 -8.96347,9.99091 -1.82044,8.49043 1.69738,13.96469 10.82986,16.85292 2.86898,0.90734 6.81678,1.14431 8.47336,0.50861 z m 15.43635,-98.42427 c 1.5429,-2.88292 -1.6761,-9.74189 -4.57198,-9.74189 -1.6467,0 -3.31094,2.09377 -3.73338,4.69693 -0.2921,1.80002 -0.0168,2.65561 1.3942,4.33245 2.17148,2.58066 5.71581,2.94606 6.91116,0.71251 z m -66.34116,-2.30299 c 5.27706,-2.50413 11.1998,-12.04709 11.82275,-19.04929 0.28326,-3.18409 0.11626,-4.03522 -1.09066,-5.55845 -2.02527,-2.55604 -6.45942,-2.53399 -10.52238,0.0523 -3.79903,2.41829 -9.8929,9.05484 -11.653,12.69071 -2.19498,4.53424 -1.88316,7.35936 1.14669,10.38921 2.14669,2.14669 2.96562,2.53926 5.29708,2.53926 1.5168,0 3.76658,-0.47869 4.99952,-1.06376 z m -75.36108,-48.80762 c 1.20059,-1.864 3.0066,-10.61138 3.0066,-14.56246 0,-6.50675 -2.44979,-11.6992 -5.1825,-10.98458 -2.86471,0.74914 -6.42261,12.63658 -5.62463,18.79263 0.65294,5.03706 2.72075,8.22602 5.33399,8.22602 0.85804,0 1.931,-0.64016 2.46654,-1.47161 z m 141.07697,-25.89956 c 3.307,-2.09723 6.2094,-5.49492 8.70779,-10.19373 3.60163,-6.77374 1.27321,-10.22915 -6.91931,-10.26833 -4.93544,-0.0236 -11.03049,2.75416 -14.52112,6.61787 -4.06768,4.50244 -3.99357,9.01146 0.21735,13.22237 2.2662,2.2662 2.79724,2.48501 6.03118,2.48501 2.77475,0 4.18529,-0.40532 6.48411,-1.86319 z m -56.44482,-19.8513 c 2.98899,-2.98899 -3.19189,-11.3273 -8.04483,-10.85286 -1.61659,0.15804 -1.99979,0.52097 -2.17589,2.06077 -0.62836,5.49435 6.97655,12.03626 10.22072,8.79209 z"
       id="path12" />
    <path
       style="fill:#995729;fill-opacity:1;stroke-width:0;paint-order:markers fill stroke;stroke:#000000;stroke-opacity:1"
       d="m 739.61449,286.72722 c -2.91654,-1.43831 -4.35265,-4.64836 -3.36984,-7.53238 2.5587,-7.50843 14.23486,-17.67809 18.44288,-16.06332 0.54564,0.20938 1.49467,1.14775 2.10895,2.08527 1.0535,1.60784 1.05299,1.93462 -0.009,5.7581 -2.03026,7.31019 -7.25649,14.41705 -11.90036,16.18265 -2.18521,0.83081 -2.82062,0.77895 -5.27272,-0.43032 z"
       id="path13" />
    <path
       style="fill:#995729;fill-opacity:1;stroke-width:0;paint-order:markers fill stroke;stroke:#000000;stroke-opacity:1"
       d="m 803.77522,213.24097 c -2.59328,-1.04909 -4.85204,-4.48719 -4.85204,-7.38536 0,-2.35784 0.38964,-3.06182 3.18702,-5.75814 4.87682,-4.70063 11.65852,-6.8573 16.22841,-5.16085 4.0327,1.49703 4.00376,3.85109 -0.12378,10.06949 -4.57919,6.89884 -10.04161,10.01404 -14.43961,8.23486 z"
       id="path14" />
    <path
       style="fill:#995729;fill-opacity:1;stroke-width:0;paint-order:markers fill stroke;stroke:#000000;stroke-opacity:1"
       d="m 750.36036,190.49233 c -2.16323,-2.26757 -3.4005,-5.36425 -2.50218,-6.26257 1.48354,-1.48354 8.70023,5.57939 7.56978,7.4085 -0.76349,1.23535 -3.3549,0.64936 -5.0676,-1.14593 z"
       id="path15" />
    <path
       style="fill:#995729;fill-opacity:1;stroke-width:0;paint-order:markers fill stroke;stroke:#000000;stroke-opacity:1"
       d="m 808.21459,288.90685 c -1.69658,-1.80592 -1.87912,-4.52647 -0.38681,-5.76498 0.9101,-0.75532 1.27645,-0.62009 2.65183,0.97888 1.11258,1.29345 1.53554,2.47379 1.3967,3.8977 -0.24983,2.56231 -1.74775,2.92573 -3.66172,0.8884 z"
       id="path16" />
    <path
       style="fill:#995729;fill-opacity:1;stroke-width:0;paint-order:markers fill stroke;stroke:#000000;stroke-opacity:1"
       d="m 791.81851,387.14801 c -4.18728,-0.82305 -9.264,-3.924 -10.70635,-6.53962 -0.93045,-1.68734 -1.1762,-3.20808 -0.99611,-6.16425 0.29692,-4.87405 1.94714,-8.40859 4.72835,-10.12748 4.68854,-2.89767 8.68957,-0.88489 12.08597,6.08005 3.49814,7.17358 3.30046,15.43391 -0.40306,16.84199 -0.88747,0.33742 -1.66801,0.58124 -1.73453,0.54182 -0.0665,-0.0394 -1.40493,-0.32404 -2.97427,-0.63251 z"
       id="path17" />
    <path
       style="fill:#995729;fill-opacity:1;stroke-width:0;paint-order:markers fill stroke;stroke:#000000;stroke-opacity:1"
       d="m 667.95129,238.2572 c -2.62739,-2.90323 -3.18837,-8.86323 -1.45912,-15.50225 0.98837,-3.79463 2.809,-7.5722 3.64948,-7.5722 0.24118,0 0.91352,1.00103 1.49411,2.22451 2.01408,4.24436 0.79857,18.55903 -1.79832,21.17817 -0.67486,0.68064 -1.02889,0.61904 -1.88615,-0.32823 z"
       id="path18" />
    <path
       style="fill:#995729;fill-opacity:1;stroke-width:0;paint-order:markers fill stroke;stroke:#000000;stroke-opacity:1"
       d="m 673.18188,402.22668 c -3.31133,-2.03793 -4.23533,-9.87041 -1.62648,-13.78723 1.78922,-2.68628 5.51193,-4.6213 9.65698,-5.01958 8.10456,-0.77875 12.21467,6.21443 7.64113,13.00109 -2.50532,3.71765 -6.46723,6.03188 -10.76285,6.28678 -2.0703,0.12286 -4.27925,-0.0936 -4.90878,-0.48106 z"
       id="path19" />
    <path
       style="fill:#995729;fill-opacity:1;stroke-width:0;paint-order:markers fill stroke;stroke:#000000;stroke-opacity:1"
       d="m 690.40069,446.81012 c -0.84756,-1.58368 0.31069,-5.90828 1.72808,-6.45218 1.25416,-0.48127 4.76247,3.16965 4.76247,4.95606 0,2.37747 -5.3579,3.6125 -6.49055,1.49612 z"
       id="path20" />
    <path
       style="fill:#995729;fill-opacity:1;stroke-width:0;paint-order:markers fill stroke;stroke:#000000;stroke-opacity:1"
       d="m 754.29223,440.78241 c -2.83733,-1.65305 -2.70847,-5.06572 0.31307,-8.29125 1.78313,-1.90352 3.43496,-1.86284 5.43158,0.13378 2.15997,2.15997 2.05286,4.58827 -0.30644,6.94758 -1.99253,1.99253 -3.51391,2.331 -5.43821,1.20989 z"
       id="path21" />
  </g>
</svg>
