<?xml version="1.0" encoding="UTF-8" standalone="no"?>
<!-- Created with Inkscape (http://www.inkscape.org/) -->

<svg
   version="1.1"
   id="svg1"
   width="1600"
   height="715"
   viewBox="0 0 1600 715"
   xmlns="http://www.w3.org/2000/svg"
   xmlns:svg="http://www.w3.org/2000/svg">
  <defs
     id="defs1" />
  <g
     id="g1">
    <path
       style="fill:none;stroke:none;stroke-width:0;stroke-linecap:butt;stroke-linejoin:miter;stroke-opacity:1;opacity:1;paint-order:markers fill stroke;stroke-dasharray:none"
       d="m 602.26489,360.11817 c 0.3939,7.97636 0.98474,23.9291 3.1512,41.26065 2.16645,17.33155 5.90838,36.04117 8.17328,46.0855 2.2649,10.04432 3.05268,11.42293 6.9917,13.78633 3.93901,2.3634 11.02897,5.71143 23.23988,6.40073 12.21091,0.6893 29.54193,-1.28014 55.14542,-5.21914 25.60349,-3.93901 59.47775,-9.84731 92.17132,-15.95274 32.69357,-6.10543 64.20451,-12.40762 84.7856,-17.82371 20.58109,-5.4161 30.23131,-9.94579 37.81384,-14.1802 7.58253,-4.23441 13.09694,-8.17327 15.65725,-17.6269 2.56032,-9.45362 2.16643,-24.42131 2.06796,-41.55592 -0.0985,-17.13461 0.0985,-36.43506 0.0985,-47.07024 0,-10.63517 -0.19695,-12.60461 0.68933,-14.86953 0.88629,-2.26492 2.85572,-4.82518 3.2496,-7.58247 0.39389,-2.75729 -0.78778,-5.71145 -2.75728,-9.74892 -1.9695,-4.03747 -4.72671,-9.158 -10.04436,-17.62685 -5.31766,-8.46885 -13.19539,-20.28545 -19.39928,-29.64052 -6.20388,-9.35507 -10.73358,-16.24809 -16.05122,-21.86113 -5.31764,-5.61304 -11.42288,-9.94579 -20.28562,-9.84727 -8.86275,0.0985 -20.48241,4.62821 -28.45882,8.46872 -7.97641,3.8405 -12.30917,6.99159 -22.74754,12.60467 -10.43837,5.61308 -26.98162,13.68776 -47.66134,24.42152 -20.67971,10.73377 -45.49458,24.12592 -68.14373,36.92761 -22.64914,12.8017 -43.13125,25.01219 -59.37952,35.25354 -16.24828,10.24134 -28.26182,18.51296 -34.07176,24.42142 -5.80994,5.90846 -5.41606,9.45336 -5.12064,11.22592 0.29543,1.77256 0.49237,1.77256 0.88626,9.74893 z"
       id="path1" />
    <path
       style="fill:none;stroke:none;stroke-width:0;stroke-linecap:butt;stroke-linejoin:miter;stroke-opacity:1;opacity:1;paint-order:markers fill stroke;stroke-dasharray:none"
       d="m 601.18168,350.36928 c 3.24963,2.36336 6.49927,4.72673 11.37378,5.21909 4.87451,0.49235 11.37364,-0.88625 22.89523,-2.75727 11.52158,-1.87103 28.06482,-4.23435 49.72929,-6.69622 21.66448,-2.46187 48.44877,-5.02213 74.93845,-7.38551 26.48968,-2.36339 52.68315,-4.52977 73.55972,-7.38554 20.87657,-2.85577 36.4351,-6.40076 50.81238,-11.32451 14.37729,-4.92374 27.57249,-11.22593 35.35194,-15.85422 7.77944,-4.62829 10.14276,-7.58244 12.50613,-10.53665"
       id="path2" />
    <path
       style="fill:none;stroke:none;stroke-width:0;stroke-linecap:butt;stroke-linejoin:miter;stroke-opacity:1;opacity:1;paint-order:markers fill stroke;stroke-dasharray:none"
       d="m 606.189,415.93481 c 9.26146,-7.47801 18.52294,-14.95605 29.35764,-20.46762 10.8347,-5.51157 23.24213,-9.05655 34.86213,-8.46567 11.62,0.59089 22.45189,5.31753 31.51154,8.56718 9.05965,3.24965 16.34655,5.02214 25.20928,5.31755 8.86274,0.29541 19.30074,-0.88625 27.76954,-5.12069 8.4688,-4.23444 14.96793,-11.52135 23.23982,-16.44506 8.27189,-4.92371 18.316,-7.48397 28.75432,-8.37022 10.43831,-0.88625 21.2702,-0.0985 28.45881,1.77255 7.18861,1.87103 10.73359,4.82518 16.6421,7.09009 5.9085,2.26491 14.18012,3.84045 23.04284,4.03739 8.86273,0.19693 18.31601,-0.98473 25.99702,-4.43136 7.681,-3.44664 13.5893,-9.15799 18.31607,-13.29391 4.72677,-4.13592 8.27175,-6.69619 11.8168,-9.2565"
       id="path3"
       transform="translate(0,-8.8626293)" />
    <path
       style="fill:none;stroke:none;stroke-width:0;stroke-linecap:butt;stroke-linejoin:miter;stroke-opacity:1;opacity:1;paint-order:markers fill stroke;stroke-dasharray:none"
       d="m 606.189,415.93481 c 9.26146,-7.47801 18.52294,-14.95605 29.35764,-20.46762 10.8347,-5.51157 23.24213,-9.05655 34.86213,-8.46567 11.62,0.59089 22.45189,5.31753 31.51154,8.56718 9.05965,3.24965 16.34655,5.02214 25.20928,5.31755 8.86274,0.29541 19.30074,-0.88625 27.76954,-5.12069 8.4688,-4.23444 14.96793,-11.52135 23.23982,-16.44506 8.27189,-4.92371 18.316,-7.48397 28.75432,-8.37022 10.43831,-0.88625 21.2702,-0.0985 28.45881,1.77255 7.18861,1.87103 10.73359,4.82518 16.6421,7.09009 5.9085,2.26491 14.18012,3.84045 23.04284,4.03739 8.86273,0.19693 18.31601,-0.98473 25.99702,-4.43136 7.681,-3.44664 13.5893,-9.15799 18.31607,-13.29391 4.72677,-4.13592 8.27175,-6.69619 11.8168,-9.2565"
       id="path4"
       transform="translate(0,-8.8626293)" />
    <path
       style="fill:none;stroke:none;stroke-width:0;stroke-linecap:butt;stroke-linejoin:miter;stroke-opacity:1;opacity:1;paint-order:markers fill stroke;stroke-dasharray:none"
       d="m 608.90462,414.68144 c 8.35625,-7.06022 16.71253,-14.12047 27.09462,-19.42315 10.3821,-5.30267 22.78953,-8.84765 34.40953,-8.25677 11.62,0.59089 22.45189,5.31753 31.51154,8.56718 9.05965,3.24965 16.34655,5.02214 25.20928,5.31755 8.86274,0.29541 19.30074,-0.88625 27.76954,-5.12069 8.4688,-4.23444 14.96793,-11.52135 23.23982,-16.44506 8.27189,-4.92371 18.316,-7.48397 28.75432,-8.37022 10.43831,-0.88625 21.2702,-0.0985 28.45881,1.77255 7.18861,1.87103 10.73359,4.82518 16.6421,7.09009 5.9085,2.26491 14.18012,3.84045 23.04284,4.03739 8.86273,0.19693 18.31601,-0.98473 25.99702,-4.43136 7.681,-3.44664 13.5893,-9.15799 18.31607,-13.29391 4.72677,-4.13592 8.27175,-6.69619 11.8168,-9.2565"
       id="path4-2"
       transform="translate(0.80310116,13.59293)" />
    <path
       style="fill:none;stroke:none;stroke-width:0;stroke-linecap:butt;stroke-linejoin:miter;stroke-opacity:1;opacity:1;paint-order:markers fill stroke;stroke-dasharray:none"
       d="m 679.07434,289.51255 c 1.96948,-4.52978 5.90843,-7.87789 9.15808,-9.15804 3.24966,-1.28014 5.80992,-0.49237 7.97636,-0.98476 2.16644,-0.49239 3.93893,-2.26487 6.79471,-2.56028 2.85577,-0.29541 6.79464,0.88625 9.74887,4.03745 2.95423,3.15121 4.92367,8.27174 5.31755,13.09699 0.39388,4.82526 -0.78778,9.35496 -3.93899,12.60461 -3.15121,3.24965 -8.27174,5.21909 -12.90004,6.20382 -4.6283,0.98474 -8.76411,0.98474 -12.7031,-0.39392 -3.93898,-1.37866 -7.68091,-4.13587 -9.55191,-8.37029 -1.871,-4.23443 -1.871,-9.94579 0.0985,-14.47558 z"
       id="path5" />
    <path
       style="fill:none;stroke:none;stroke-width:0;stroke-linecap:butt;stroke-linejoin:miter;stroke-opacity:1;opacity:1;paint-order:markers fill stroke;stroke-dasharray:none"
       d="m 740.32496,263.12162 c 2.95421,-1.18169 5.90842,-1.57558 8.17333,-2.75729 2.26491,-1.1817 3.84046,-3.15113 6.79471,-4.4313 2.95426,-1.28016 7.28701,-1.87099 11.71837,-1.77251 4.43136,0.0985 8.96106,0.88625 12.80157,3.05271 3.8405,2.16646 6.99159,5.71144 9.15803,9.55195 2.16643,3.84052 3.34809,7.97633 3.93893,11.32446 0.59084,3.34813 0.59084,5.90839 -0.68934,9.15806 -1.28019,3.24967 -3.84045,7.18854 -7.48403,10.14277 -3.64357,2.95422 -8.37021,4.92366 -13.78632,5.90839 -5.41611,0.98474 -11.52136,0.98474 -17.03593,-1.08325 -5.51457,-2.06799 -10.43816,-6.2038 -13.88475,-10.14278 -3.4466,-3.93898 -5.41604,-7.6809 -6.59773,-11.61989 -1.18168,-3.93899 -1.57557,-8.0748 -0.29539,-11.1275 1.28019,-3.05271 4.23434,-5.02214 7.18855,-6.20382 z"
       id="path6" />
    <path
       style="fill:none;stroke:none;stroke-width:0;stroke-linecap:butt;stroke-linejoin:miter;stroke-opacity:1;opacity:1;paint-order:markers fill stroke;stroke-dasharray:none"
       d="m 693.94387,281.43772 c -0.88626,0 -1.47711,-5.12063 -0.88625,-7.68094 0.59086,-2.56032 2.36336,-2.56032 2.65877,5e-5 0.2954,2.56036 -0.88626,7.68089 -1.77252,7.68089 z"
       id="path16-1"
       transform="matrix(0.68751108,-0.37161211,0.58771695,1.0873217,110.67205,220.75719)" />
    <path
       style="fill:none;stroke:none;stroke-width:0;stroke-linecap:butt;stroke-linejoin:miter;stroke-opacity:1;opacity:1;paint-order:markers fill stroke;stroke-dasharray:none"
       d="m 807.87789,222.84589 c 3.54505,-2.85574 8.46874,-4.43131 11.91534,-6.89319 3.44659,-2.46188 5.41603,-5.80991 8.6657,-7.68092 3.24968,-1.871 7.77938,-2.26489 11.1275,0.0985 3.34813,2.36342 5.51451,7.48395 7.0901,13.09701 1.57559,5.61306 2.5603,11.7183 1.18163,16.54355 -1.37867,4.82524 -5.12059,8.37022 -10.83214,10.83208 -5.71155,2.46185 -13.39234,3.84046 -19.59623,3.34807 -6.20389,-0.4924 -10.93053,-2.85572 -13.58932,-6.20386 -2.6588,-3.34815 -3.24963,-7.68091 -2.46182,-11.91532 0.78781,-4.2344 2.95419,-8.37022 6.49924,-11.22595 z"
       id="path7" />
    <path
       style="fill:none;stroke:none;stroke-width:0;stroke-linecap:butt;stroke-linejoin:miter;stroke-opacity:1;opacity:1;paint-order:markers fill stroke;stroke-dasharray:none"
       d="m 875.1354,263.12162 c -6.40079,0.59084 -11.52142,1.96947 -14.67259,5.51458 -3.15117,3.54511 -4.33283,9.25646 -4.03739,14.27866 0.29544,5.0222 2.06793,9.35496 5.51456,12.50614 3.44663,3.15117 8.56716,5.12061 14.96803,5.71144 6.40086,0.59083 14.08165,-0.19694 19.20231,-3.1512 5.12065,-2.95426 7.68092,-8.07479 8.96107,-12.90005 1.28016,-4.82525 1.28016,-9.35495 -0.29545,-12.9985 -1.57561,-3.64355 -4.7267,-6.40076 -10.14283,-7.87786 -5.41613,-1.47711 -13.09692,-1.67405 -19.49771,-1.08321 z"
       id="path8" />
    <path
       style="fill:none;stroke:none;stroke-width:0;stroke-linecap:butt;stroke-linejoin:miter;stroke-opacity:1;opacity:1;paint-order:markers fill stroke;stroke-dasharray:none"
       d="m 690.1034,286.55835 c 1.77252,0.59084 3.54505,1.18168 4.82522,0.78777 1.28016,-0.39391 2.06793,-1.77251 2.85572,-3.15114"
       id="path12" />
    <path
       style="fill:none;stroke:none;stroke-width:0;stroke-linecap:butt;stroke-linejoin:miter;stroke-opacity:1;opacity:1;paint-order:markers fill stroke;stroke-dasharray:none"
       d="m 748.59675,267.6514 c 1.57558,1.18169 3.15116,2.36337 4.43133,2.26489 1.28016,-0.0985 2.26488,-1.4771 3.24962,-2.85573"
       id="path13" />
    <path
       style="fill:none;stroke:none;stroke-width:0;stroke-linecap:butt;stroke-linejoin:miter;stroke-opacity:1;opacity:1;paint-order:markers fill stroke;stroke-dasharray:none"
       d="m 817.72526,222.15657 c 2.16642,0 4.33284,0 5.80995,-0.59085 1.47711,-0.59085 2.26489,-1.77251 3.05268,-2.9542"
       id="path14" />
    <path
       style="fill:none;stroke:none;stroke-width:0;stroke-linecap:butt;stroke-linejoin:miter;stroke-opacity:1;opacity:1;paint-order:markers fill stroke;stroke-dasharray:none"
       d="m 877.99114,267.6514 c 1.96947,0.98474 3.93894,1.96947 6.00691,1.96946 2.06797,0 4.23435,-0.98472 6.40077,-1.96946"
       id="path15" />
    <path
       style="fill:none;stroke:none;stroke-width:0;stroke-linecap:butt;stroke-linejoin:miter;stroke-opacity:1;opacity:1;paint-order:markers fill stroke;stroke-dasharray:none"
       d="m 693.94387,281.43772 c -0.88626,0 -1.47711,-5.12063 -0.88625,-7.68094 0.59086,-2.56032 2.36336,-2.56032 2.65877,5e-5 0.2954,2.56036 -0.88626,7.68089 -1.77252,7.68089 z"
       id="path16"
       transform="matrix(0.93540482,0,0,1.5133638,44.847832,-139.45654)" />
    <path
       style="fill:none;stroke:none;stroke-width:0;stroke-linecap:butt;stroke-linejoin:miter;stroke-opacity:1;opacity:1;paint-order:markers fill stroke;stroke-dasharray:none"
       d="m 693.94387,281.43772 c -0.88626,0 -1.47711,-5.12063 -0.88625,-7.68094 0.59086,-2.56032 2.36336,-2.56032 2.65877,5e-5 0.2954,2.56036 -0.88626,7.68089 -1.77252,7.68089 z"
       id="path16-1-1"
       transform="matrix(0.68751108,-0.37161211,0.58771695,1.0873217,180.29146,172.4107)" />
    <path
       style="fill:none;stroke:none;stroke-width:0;stroke-linecap:butt;stroke-linejoin:miter;stroke-opacity:1;opacity:1;paint-order:markers fill stroke;stroke-dasharray:none"
       d="m 693.94387,281.43772 c -0.88626,0 -1.47711,-5.12063 -0.88625,-7.68094 0.59086,-2.56032 2.36336,-2.56032 2.65877,5e-5 0.2954,2.56036 -0.88626,7.68089 -1.77252,7.68089 z"
       id="path16-1-16"
       transform="matrix(0.76626214,0.15365343,-0.24300802,1.2118691,420.00958,-178.83599)" />
    <path
       style="opacity:1;fill:#ff6600;stroke:none;stroke-width:0;paint-order:markers fill stroke;stroke-linecap:butt;stroke-dasharray:none"
       d="m 611.01546,354.56735 c -2.45356,-0.55771 -6.85476,-2.73419 -8.35465,-4.13156 -0.74185,-0.69113 -0.86007,-1.12941 -0.63776,-2.36438 1.07555,-5.97501 8.32671,-12.6324 27.58399,-25.3253 11.72202,-7.72624 40.88685,-25.68651 46.01314,-28.33579 l 1.30979,-0.6769 0.17003,4.05933 c 0.13532,3.23049 0.38834,4.5324 1.23919,6.37623 4.12687,8.9431 14.56367,12.17563 26.67865,8.26302 10.00126,-3.22996 14.28074,-8.96784 13.65539,-18.309 -0.50824,-7.59191 -4.29766,-14.28542 -9.45498,-16.70098 -1.84675,-0.86497 -2.01295,-1.04343 -1.37494,-1.47628 2.03755,-1.38236 36.78322,-20.22769 52.94927,-28.71857 9.71156,-5.1008 43.66025,-22.45704 43.92582,-22.45704 0.0859,0 -0.39811,0.76506 -1.07547,1.70013 -3.21506,4.43827 -4.18594,12.50734 -2.05752,17.10035 1.94649,4.20042 6.28905,7.41089 11.83272,8.74799 2.96625,0.71544 11.16352,0.60675 15.09121,-0.2001 11.43103,-2.34822 18.01284,-7.00267 20.05105,-14.1795 1.35522,-4.7719 0.0212,-14.68799 -2.96638,-22.04969 -1.53811,-3.79005 -3.73122,-6.86884 -5.85005,-8.21256 l -1.85482,-1.1763 4.48392,-1.90782 c 13.12543,-5.58464 21.66462,-7.57725 28.19819,-6.58003 7.7354,1.18065 14.23314,6.12613 22.25644,16.93951 3.68497,4.96641 16.89405,24.67796 25.3371,37.80984 10.83841,16.85753 16.1223,26.83307 16.50237,31.15508 0.20597,2.34226 0.10211,2.70709 -1.91101,6.71246 -1.69571,3.37386 -2.66044,4.72809 -4.74189,6.6564 -9.8668,9.14091 -37.1854,21.19265 -61.90146,27.30817 -21.02515,5.20227 -36.41177,7.1755 -102.81349,13.18517 -70.4247,6.37376 -96.80129,9.37332 -132.23001,15.03725 -13.54869,2.16601 -16.92905,2.46114 -20.05384,1.75087 z M 774.1615,303.31396 c 8.17175,-2.2037 14.38312,-7.0899 17.81166,-14.01163 1.76107,-3.55534 1.82378,-3.81599 1.79815,-7.47399 -0.0759,-10.83763 -6.30046,-21.74828 -14.70227,-25.77082 -3.61913,-1.73274 -7.41682,-2.44424 -13.09172,-2.45274 -6.21689,-0.009 -10.49816,1.0065 -13.7494,3.26232 -2.20977,1.53321 -2.34096,1.56958 -3.42306,0.9491 -1.32625,-0.76048 -1.72966,-0.48408 -1.72966,1.18505 0,1.17388 -0.15199,1.27322 -3.58602,2.34382 -4.88244,1.52215 -7.06816,2.70224 -9.11218,4.91975 -2.20243,2.38935 -2.77852,4.47086 -2.50687,9.0577 0.72922,12.31294 12.63498,25.71879 25.42593,28.62953 3.83155,0.87191 12.47929,0.54473 16.86544,-0.63809 z m 116.48995,-2.47681 c 1.79795,-0.46577 4.2295,-1.36798 5.40345,-2.0049 6.3016,-3.41893 10.4966,-11.48943 10.48292,-20.16742 -0.0109,-6.90092 -2.30389,-10.88805 -7.7932,-13.55095 -2.8882,-1.40109 -8.10759,-2.7428 -10.66976,-2.7428 h -1.22287 l 0.2173,-2.70705 c 0.18243,-2.27274 0.10519,-2.75007 -0.48146,-2.97519 -1.05632,-0.40534 -2.21728,0.91375 -2.79782,3.17889 l -0.51635,2.01469 -4.42132,0.27743 c -13.64091,0.85593 -18.93009,3.51662 -21.77897,10.95578 -1.16598,3.04468 -1.59189,9.95943 -0.82698,13.42641 1.85222,8.39535 8.05411,13.4197 18.61867,15.08363 3.81804,0.60134 11.99868,0.19273 15.78639,-0.78852 z"
       id="path17" />
    <path
       style="opacity:1;fill:#ff9955;stroke:none;stroke-width:0;paint-order:markers fill stroke;stroke-linecap:butt;stroke-dasharray:none"
       d="m 606.63293,404.73246 c -0.20691,-0.6056 -1.27272,-9.8106 -1.87449,-16.18929 -0.41156,-4.36246 -1.3878,-19.77424 -1.92868,-30.44778 -0.16261,-3.20902 -0.12569,-5.51454 0.0867,-5.41364 0.20346,0.0967 1.8335,0.8968 3.62231,1.77811 2.82323,1.39094 3.73282,1.62803 6.89351,1.79678 3.77082,0.20134 5.68021,-0.0352 24.11275,-2.9868 29.42094,-4.71122 59.9844,-8.11232 129.72328,-14.43558 37.54858,-3.40456 47.56784,-4.39422 59.53484,-5.88058 35.90806,-4.45997 58.73111,-10.73206 83.55767,-22.96278 9.2471,-4.55556 14.94463,-8.06527 18.47261,-11.37926 l 2.33228,-2.19081 -0.27034,12.95144 c -0.14869,7.12329 -0.27067,18.5999 -0.27108,25.50358 l -7.3e-4,12.55214 -3.44676,2.55486 c -1.89571,1.40517 -5.3268,4.17961 -7.62463,6.16543 -12.09874,10.45587 -15.5485,12.73437 -23.0882,15.24932 -6.2938,2.09937 -10.65233,2.69129 -19.73511,2.68014 -12.88998,-0.0158 -19.67741,-1.4928 -30.49855,-6.63663 -3.56164,-1.69303 -7.88575,-3.47231 -9.60913,-3.95394 -10.06457,-2.81279 -24.94519,-3.20527 -38.01874,-1.00276 -9.8969,1.66735 -19.22791,5.64442 -26.73845,11.39648 -2.41273,1.84782 -6.36083,4.87308 -8.77356,6.72279 -5.04717,3.86941 -9.99258,6.54787 -14.97522,8.11066 -6.96158,2.18348 -16.56924,3.12215 -24.29688,2.3738 -8.58205,-0.83109 -12.2236,-1.81923 -30.91634,-8.3892 -16.90498,-5.94163 -26.54466,-6.72685 -40.24669,-3.2784 -13.4926,3.39575 -24.83857,9.54631 -40.48634,21.94734 -2.69744,2.13775 -5.0064,3.88682 -5.13102,3.88682 -0.12462,0 -0.30687,-0.23501 -0.405,-0.52224 z"
       id="path18" />
    <path
       style="opacity:1;fill:#ffb380;stroke:none;stroke-width:0;paint-order:markers fill stroke;stroke-linecap:butt;stroke-dasharray:none"
       d="m 638.83389,466.43732 c -7.31273,-0.99558 -13.83471,-3.2194 -18.47514,-6.29955 -3.65469,-2.42584 -4.47409,-4.71678 -8.11358,-22.68428 l -1.79091,-8.84136 1.6013,-1.33846 c 15.03525,-12.56733 24.82088,-18.59718 36.35196,-22.39988 12.03079,-3.96749 21.29498,-4.5729 32.45343,-2.12081 3.58682,0.78821 6.37994,1.70106 23.11806,7.55546 3.22008,1.12627 7.89742,2.50934 10.39411,3.07349 14.13134,3.19309 29.80707,2.07571 40.62135,-2.89552 3.77428,-1.73501 6.75389,-3.74865 14.57167,-9.84767 9.26072,-7.22473 13.2602,-9.49677 21.18607,-12.03546 11.35806,-3.63805 25.92047,-4.65327 39.14161,-2.72877 5.622,0.81835 10.06121,2.2411 15.50241,4.96846 7.77827,3.8988 14.93535,5.96824 23.75225,6.86787 14.17684,1.44652 27.97805,-0.81575 36.90906,-6.05007 3.49236,-2.04682 6.21407,-4.1288 12.95588,-9.91069 6.31789,-5.41832 10.92986,-9.08287 11.43111,-9.08287 0.50664,0 -0.15055,15.41725 -0.82814,19.42716 -2.04138,12.08087 -6.30752,16.8765 -21.76231,24.4633 -12.6395,6.20476 -27.62961,10.78722 -55.14806,16.8587 -49.13007,10.8397 -149.36759,28.55054 -182.15572,32.18485 -14.23192,1.5775 -24.31771,1.84338 -31.71641,0.8361 z"
       id="path19" />
    <path
       style="opacity:1;fill:#ffb380;stroke:none;stroke-width:0;fill-opacity:1;paint-order:markers fill stroke;stroke-linecap:butt;stroke-dasharray:none"
       d="m 637.12723,465.17072 c -9.25372,-1.62881 -17.18519,-5.37016 -19.02352,-8.97358 -1.14141,-2.23735 -2.65062,-8.05066 -4.79345,-18.46386 l -1.78834,-8.69051 4.238,-3.47318 c 12.61724,-10.34024 22.15997,-16.07645 32.49104,-19.5306 7.31428,-2.4455 11.55633,-3.28728 17.91256,-3.55451 9.44874,-0.39725 13.72396,0.54266 34.04975,7.48587 5.74459,1.96233 12.23076,3.94725 14.4137,4.41094 16.1422,3.42885 33.46219,1.53507 44.23151,-4.83632 1.46386,-0.86606 5.59997,-3.8032 9.19134,-6.52699 11.8374,-8.97778 15.00742,-10.82683 22.95818,-13.39135 7.33058,-2.36449 13.12903,-3.23793 23.0526,-3.47248 13.91752,-0.32895 20.94689,0.94913 31.1938,5.67165 11.09508,5.11342 17.52604,6.66408 29.17662,7.03517 8.5313,0.27173 14.00687,-0.21583 20.32935,-1.81018 9.66091,-2.43622 13.00717,-4.48101 27.9252,-17.06423 2.64251,-2.22893 5.32064,-4.42375 5.95141,-4.87737 l 1.14684,-0.82477 -0.22911,5.14488 c -0.5374,12.06811 -1.31765,16.53067 -3.76769,21.54886 -2.56696,5.25766 -7.31911,9.11083 -17.51515,14.20173 -15.89896,7.93838 -35.68048,13.42922 -81.54025,22.63346 -61.46173,12.33562 -136.65133,25.01779 -162.44814,27.39998 -8.41942,0.77749 -22.62369,0.7552 -27.15625,-0.0426 z"
       id="path20" />
    <path
       style="opacity:1;fill:#ffccaa;stroke:none;stroke-width:0;paint-order:markers fill stroke;stroke-linecap:butt;stroke-dasharray:none"
       d="m 607.25537,403.01082 c 0,-0.315 -0.36786,-3.93409 -0.81747,-8.04243 -0.90055,-8.2289 -1.96588,-23.36777 -2.38581,-33.90372 l -0.27095,-6.79798 2.85048,1.3339 c 4.40506,2.06137 8.59317,2.09536 21.09538,0.17117 43.66599,-6.72053 61.89419,-8.81041 136.82568,-15.68723 47.00142,-4.31354 58.52602,-5.51192 72.69517,-7.55918 22.06603,-3.18825 41.05342,-7.95878 57.23701,-14.38065 14.30874,-5.6779 28.93457,-13.39221 33.90584,-17.88346 l 1.61038,-1.45488 -0.13221,23.87454 -0.13221,23.87454 -0.95075,0.83557 c -0.52292,0.45957 -3.00244,2.47341 -5.51004,4.47521 -2.50761,2.0018 -6.25133,5.07297 -8.31938,6.82482 -6.25837,5.30148 -8.99838,7.2262 -13.36923,9.3912 -8.10981,4.017 -15.20422,5.27229 -27.57403,4.87898 -4.13611,-0.13151 -9.13431,-0.52904 -11.10712,-0.8834 -4.20632,-0.75554 -10.34957,-2.82574 -15.63134,-5.26756 -12.08278,-5.586 -19.7673,-7.0369 -34.67643,-6.54718 -11.40717,0.37469 -19.3869,1.8283 -27.26724,4.9671 -5.76638,2.29679 -10.53331,5.16389 -17.75445,10.67855 -12.01213,9.17346 -16.1473,11.31335 -25.79344,13.34774 -2.78906,0.58822 -5.43412,0.74502 -12.32475,0.73061 -11.21736,-0.0235 -13.0445,-0.40679 -31.75192,-6.66153 -15.78112,-5.27635 -20.62646,-6.45029 -27.99182,-6.78193 -6.04428,-0.27216 -10.56558,0.2776 -18.04206,2.1938 -12.69937,3.2548 -23.79587,9.19148 -38.43957,20.56534 -3.03131,2.35443 -5.61637,4.28079 -5.74459,4.28079 -0.12823,0 -0.23313,-0.25773 -0.23313,-0.57273 z"
       id="path21" />
    <path
       style="opacity:1;fill:#ffccaa;stroke:none;stroke-width:0;paint-order:markers fill stroke;stroke-linecap:butt;stroke-dasharray:none"
       d="m 642.97627,464.55286 c -7.95454,-0.37082 -12.5966,-1.52921 -18.6916,-4.66434 -4.53073,-2.3305 -5.35498,-3.41695 -6.9353,-9.14142 -1.9399,-7.02695 -4.82803,-21.31408 -4.37121,-21.62364 0.21405,-0.14505 2.27087,-1.79712 4.57073,-3.67128 12.23655,-9.97157 21.68909,-15.44082 32.9769,-19.08042 7.2277,-2.33048 11.57663,-2.9193 19.7491,-2.67391 8.27784,0.24855 9.57763,0.5595 28.93732,6.92276 13.30565,4.37338 16.34216,5.15467 23.15773,5.95847 5.54873,0.6544 16.71646,0.23411 21.93484,-0.82549 8.7003,-1.76662 13.29288,-3.86875 21.29237,-9.74603 15.55576,-11.42891 17.87313,-12.82174 25.50786,-15.33123 7.6665,-2.51994 11.22912,-3.02085 23.20378,-3.26251 15.56479,-0.31412 19.1282,0.34729 31.98858,5.93745 11.04296,4.80017 16.49303,6.01103 28.61411,6.35731 9.12512,0.26068 13.76549,-0.18066 20.9618,-1.99366 8.42579,-2.12275 12.9243,-4.85904 26.29005,-15.99132 l 6.37128,-5.30661 -0.001,2.82523 c -0.002,4.58708 -0.80696,12.19731 -1.65113,15.61625 -2.16196,8.7561 -6.84167,13.41577 -19.86354,19.77849 -16.18618,7.90885 -37.14474,13.59112 -85.43772,23.16382 -68.94563,13.66648 -143.69611,25.96358 -161.68409,26.59842 -3.10208,0.10948 -6.86218,0.2502 -8.35577,0.31269 -1.49359,0.0625 -5.34769,-0.009 -8.56466,-0.15903 z"
       id="path22" />
    <path
       style="opacity:1;fill:#edb03c;stroke:none;stroke-width:0;fill-opacity:1;stroke-opacity:1;paint-order:markers fill stroke;stroke-linecap:butt;stroke-dasharray:none"
       d="m 610.00915,425.83078 c -0.12487,-0.40213 -0.79976,-4.30322 -1.49975,-8.66911 -0.7,-4.36589 -1.36172,-8.34356 -1.47051,-8.83927 -0.16566,-0.75487 0.92494,-1.77207 6.71343,-6.26159 16.30686,-12.6475 28.18309,-18.84839 42.04564,-21.95312 3.67814,-0.82378 5.43711,-0.9619 12.03672,-0.94514 6.47209,0.0164 8.35655,0.16924 11.58732,0.93961 4.9403,1.17799 10.34664,2.9115 18.61572,5.96903 7.73114,2.85861 13.91059,4.68445 19.23807,5.68425 5.60035,1.05102 19.05741,1.03524 24.71632,-0.029 10.17123,-1.91281 15.2235,-4.42658 26.00376,-12.93826 11.28853,-8.913 17.49488,-12.04692 28.51762,-14.40007 10.60581,-2.26415 24.66979,-2.45368 35.58741,-0.47958 3.78308,0.68405 7.22637,1.94138 13.71161,5.00686 6.4052,3.02764 10.92125,4.52157 17.23972,5.703 5.62189,1.05118 21.59317,1.06012 26.83695,0.015 11.26282,-2.24471 16.86243,-5.33606 29.43722,-16.25128 5.40565,-4.69224 10.80959,-8.90234 11.07985,-8.63209 0.14885,0.14886 0.30508,13.1934 0.23246,19.41049 -0.0133,1.14066 -0.48652,1.65689 -3.90541,4.26061 -2.13963,1.62948 -5.94673,4.76767 -8.46021,6.97375 -5.36591,4.70966 -9.41253,7.81011 -13.02579,9.98014 -7.8735,4.72863 -20.86681,7.11576 -33.3193,6.12142 -10.60296,-0.84665 -15.78185,-2.24186 -25.6977,-6.92306 -10.30497,-4.8649 -15.27549,-5.82521 -30.08076,-5.81168 -8.75579,0.008 -11.0038,0.1459 -15.54714,0.95369 -6.59855,1.1732 -11.35137,2.53609 -16.24336,4.65786 -5.04747,2.18921 -8.1281,4.17009 -15.81176,10.16714 -10.86052,8.47659 -15.36869,10.87848 -24.09764,12.83889 -5.11319,1.14836 -17.21485,1.59247 -22.95769,0.8425 -4.90968,-0.64117 -10.96703,-2.17021 -16.8919,-4.26397 -23.2093,-8.20187 -25.92849,-8.87431 -35.9298,-8.88525 -7.36466,-0.008 -11.19962,0.52501 -18.05276,2.50935 -12.05284,3.48992 -22.85004,9.69438 -36.14408,20.76971 -2.11934,1.76564 -3.93972,3.21024 -4.04528,3.21024 -0.10557,0 -0.2941,-0.329 -0.41898,-0.73112 z"
       id="path23" />
    <path
       style="opacity:1;fill:#ff0000;fill-opacity:1;stroke:none;stroke-width:0;paint-order:markers fill stroke;stroke-linecap:butt;stroke-dasharray:none"
       d="m 758.60073,302.71828 c -5.86637,-1.11829 -11.31708,-4.36843 -16.64694,-9.9262 -3.84416,-4.00853 -6.03005,-7.46492 -7.511,-11.87661 -3.37903,-10.06596 -0.70346,-15.07725 9.75146,-18.26429 l 3.4555,-1.05336 1.08245,2.16223 c 0.59535,1.18923 1.54101,2.77325 2.10146,3.52005 1.18709,1.5818 0.97263,1.70946 -0.77783,0.46302 -1.0083,-0.71797 -1.32518,-0.78383 -1.60363,-0.33329 -0.47148,0.76287 -0.23837,1.044 1.9092,2.30256 2.26234,1.32582 3.86488,1.11256 5.40643,-0.71946 1.17509,-1.39651 1.28468,-1.83538 0.56883,-2.27781 -0.28293,-0.17486 -0.86132,0.16858 -1.38055,0.81975 l -0.89361,1.1207 -0.72943,-2.41111 c -0.40119,-1.32612 -1.16274,-3.3026 -1.69235,-4.39218 l -0.96291,-1.98107 1.40781,-1.07379 c 6.11412,-4.66347 18.14661,-5.28694 26.39401,-1.36762 7.6112,3.61698 13.95698,14.71955 13.98618,24.4702 0.008,2.73133 -0.16485,3.37723 -1.7753,6.62726 -3.40562,6.87283 -9.3782,11.42691 -17.75645,13.53923 -4.40214,1.10986 -10.48037,1.38627 -14.33333,0.65179 z"
       id="path24" />
    <path
       style="opacity:1;fill:#ff0000;fill-opacity:1;stroke:none;stroke-width:0;paint-order:markers fill stroke;stroke-linecap:butt;stroke-dasharray:none"
       d="m 814.68728,251.10984 c -5.23472,-1.13917 -9.73688,-4.13202 -11.58481,-7.7011 -1.35406,-2.6152 -1.51854,-8.00816 -0.34968,-11.46464 1.90907,-5.64535 4.67084,-8.50674 11.73447,-12.15776 l 4.96711,-2.56738 0.61787,1.19484 c 0.33983,0.65716 0.91228,1.43917 1.27211,1.7378 1.14178,0.9476 0.71856,1.27623 -1.64361,1.27623 -1.76399,0 -2.29783,0.14559 -2.29783,0.62668 0,0.49342 0.58331,0.62668 2.74309,0.62668 1.5087,0 3.15374,-0.21098 3.65564,-0.46884 1.31946,-0.67788 3.2104,-2.52493 3.2104,-3.13587 0,-1.11089 -0.86496,-0.97126 -2.02485,0.32689 l -1.21008,1.3543 -0.68037,-2.3404 c -0.37421,-1.28722 -0.68037,-2.52709 -0.68037,-2.75527 0,-0.4402 13.12962,-8.02119 13.892,-8.02119 0.24656,0 1.24696,0.46805 2.22312,1.04012 2.40896,1.41175 4.82222,5.15256 6.39883,9.91887 5.29669,16.0126 3.33126,23.84257 -7.26468,28.94142 -5.25577,2.52912 -9.71573,3.5748 -16.08485,3.77123 -2.8723,0.0886 -5.97437,-0.003 -6.89351,-0.20261 z"
       id="path25" />
    <path
       style="opacity:1;fill:#ff0000;fill-opacity:1;stroke:none;stroke-width:0;paint-order:markers fill stroke;stroke-linecap:butt;stroke-dasharray:none"
       d="m 877.30356,300.35862 c -6.56369,-0.51101 -11.19833,-2.29959 -14.87827,-5.74175 -4.56765,-4.2725 -6.36708,-11.30253 -4.70141,-18.36748 2.0317,-8.61748 7.20683,-11.86836 19.87991,-12.48804 l 5.26172,-0.25728 -0.19564,2.46247 c -0.1076,1.35436 -0.2507,2.52519 -0.31798,2.60183 -0.0673,0.0766 -1.00443,-0.25083 -2.08252,-0.72772 -3.05046,-1.34937 -3.91454,-0.2546 -0.98048,1.24224 2.61192,1.33251 5.52742,1.48307 8.48699,0.43829 2.80507,-0.99024 3.25185,-1.30843 2.81951,-2.00797 -0.22385,-0.3622 -0.97985,-0.25407 -2.88148,0.41211 -1.4179,0.49673 -2.67615,0.805 -2.7961,0.68505 -0.11995,-0.11995 0.18199,-1.30417 0.67098,-2.63159 l 0.88907,-2.4135 2.12345,0.27313 c 11.49812,1.47899 16.53715,5.96884 16.53715,14.73485 0,5.8412 -2.21176,11.84129 -5.76537,15.64039 -3.21185,3.43373 -7.86647,5.51133 -13.39723,5.97989 -1.52421,0.12913 -3.2413,0.28588 -3.81576,0.34833 -0.57446,0.0624 -2.7599,-0.02 -4.85654,-0.18325 z"
       id="path26" />
    <path
       style="opacity:1;fill:#ff0000;fill-opacity:1;stroke:none;stroke-width:0;paint-order:markers fill stroke;stroke-linecap:butt;stroke-dasharray:none"
       d="m 692.0664,312.45037 c -9.04781,-1.51104 -14.70042,-8.86275 -13.5981,-17.68548 l 0.2852,-2.28263 5.20834,-2.97914 c 3.74377,-2.14141 5.35278,-2.85926 5.72199,-2.55285 0.2825,0.23445 1.40489,0.6507 2.49421,0.925 1.5528,0.391 2.25013,0.38706 3.22861,-0.0182 1.98287,-0.82134 3.66205,-4.17874 2.08996,-4.17874 -0.20323,0 -0.70268,0.56401 -1.10989,1.25336 -1.03529,1.75261 -1.3504,1.56155 -0.87207,-0.52876 0.39347,-1.71947 0.56337,-1.86931 4.83244,-4.2619 2.43355,-1.36388 4.85853,-2.44387 5.38883,-2.39998 1.67852,0.13892 4.91752,2.04856 6.56199,3.86878 2.04282,2.26117 3.846,6.13819 4.67222,10.04578 1.66507,7.87494 -1.35348,14.28978 -8.33506,17.71318 -5.21305,2.55621 -12.07395,3.83227 -16.56867,3.08162 z"
       id="path27" />
    <path
       style="opacity:1;fill:#ff0000;fill-opacity:1;stroke:none;stroke-width:0;stroke-linecap:butt;stroke-dasharray:none;paint-order:markers fill stroke"
       d="m 678.76886,292.89471 c 0,-0.80167 2.45866,-4.16971 4.16202,-5.70143 2.0903,-1.87966 5.86261,-3.72537 7.22005,-3.53263 0.66837,0.0949 0.98029,0.45922 1.07191,1.25198 0.11582,1.00211 -0.23093,1.33034 -3.34231,3.16373 -6.25463,3.68557 -9.11167,5.1964 -9.11167,4.81835 z"
       id="path28" />
    <path
       style="opacity:1;fill:#ff0000;fill-opacity:1;stroke:none;stroke-width:0;stroke-linecap:butt;stroke-dasharray:none;paint-order:markers fill stroke"
       d="m 696.99039,283.85922 c 0,-0.12039 0.13686,-1.26588 0.15261,-1.27736 0.005,-0.004 0.26161,-0.0647 0.56878,-0.13453 0.8894,-0.2023 1.42808,-0.40453 3.20712,-1.20409 1.78622,-0.80278 2.2476,-0.99196 2.9866,-1.22464 0.45477,-0.14317 1.45782,-0.38468 1.48718,-0.35805 0.007,0.006 -0.66979,0.36247 -1.50614,0.78943 -0.83635,0.42696 -2.69682,1.38098 -4.13439,2.12001 -1.43757,0.73904 -2.64707,1.35532 -2.68777,1.36947 -0.0555,0.0193 -0.0741,-7e-4 -0.0741,-0.0802 z"
       id="path29" />
    <path
       style="opacity:1;fill:#ff0000;fill-opacity:1;stroke:none;stroke-width:0;stroke-linecap:butt;stroke-dasharray:none;paint-order:markers fill stroke"
       d="m 822.71702,215.05719 c 0.83479,-0.90785 2.36193,-2.45372 2.98781,-3.02448 2.2742,-2.07393 4.47919,-3.32424 7.10316,-4.02774 1.07304,-0.28768 2.5882,-0.51759 3.14957,-0.4779 l 0.25679,0.0181 -0.73405,0.40435 c -2.26825,1.24947 -4.76893,2.70862 -9.86764,5.75781 -1.87356,1.12044 -3.44852,2.05323 -3.49992,2.07286 -0.0514,0.0196 0.22055,-0.30576 0.60428,-0.72307 z"
       id="path30" />
    <path
       style="opacity:1;fill:#ffaf79;fill-opacity:1;stroke:none;stroke-width:0;paint-order:markers fill stroke;stroke-linecap:butt;stroke-dasharray:none"
       d="m 609.2785,352.90406 c -1.3,-0.55087 -3.24902,-1.52044 -4.33114,-2.15461 -1.90611,-1.11706 -1.96067,-1.20397 -1.74855,-2.78545 0.74592,-5.56123 10.33616,-13.74666 33.33368,-28.45084 9.84477,-6.29456 30.51839,-19.02824 35.68896,-21.98221 l 3.7601,-2.14815 0.2448,3.46518 c 0.56904,8.05463 6.18351,14.15766 14.50965,15.77226 5.30184,1.02813 13.6136,-0.30043 19.08641,-3.05079 4.76778,-2.39606 7.93846,-6.01914 9.22153,-10.53732 1.36234,-4.7973 0.39576,-12.01478 -2.32264,-17.34328 -1.18141,-2.31576 -4.67634,-6.03414 -6.30598,-6.70916 -1.14275,-0.47334 -1.18411,-0.55853 -0.50141,-1.03281 1.00384,-0.69737 26.28349,-14.44912 41.26954,-22.45 15.1055,-8.06466 49.92554,-25.94166 50.12993,-25.73727 0.0835,0.0835 -0.24357,1.27803 -0.72676,2.65458 -1.31839,3.75599 -1.2885,10.46213 0.06,13.47014 1.37901,3.07595 5.37252,6.7232 9.07531,8.28842 2.84733,1.20361 2.95652,1.2156 10.81435,1.18742 8.96344,-0.0321 11.93875,-0.59338 17.756,-3.34934 8.19265,-3.88132 11.69808,-9.00995 11.69808,-17.11493 0,-9.20273 -3.76184,-20.61148 -8.15708,-24.73848 -0.79863,-0.74989 -1.45205,-1.44167 -1.45205,-1.53729 0,-0.38155 13.18374,-5.31296 17.0126,-6.3636 3.37546,-0.92623 4.99354,-1.1259 9.30806,-1.14862 6.14322,-0.0323 8.45158,0.63554 13.06311,3.77957 6.33,4.31562 11.60241,11.09508 28.39025,36.50524 18.99841,28.75608 25.36545,40.10179 25.38513,45.23487 0.0103,2.675 -2.66615,8.00096 -5.56485,11.07386 -7.96832,8.44716 -35.13758,20.85261 -59.6311,27.22748 -20.89789,5.43906 -37.41294,7.66658 -97.73386,13.18223 -77.94128,7.12683 -99.60504,9.5386 -135.57232,15.09294 -8.27221,1.27745 -16.92043,2.40789 -19.21826,2.51209 -3.72325,0.16883 -4.4351,0.0805 -6.54153,-0.81213 z m 165.21199,-48.70994 c 7.90882,-2.07479 14.66796,-7.33974 18.21398,-14.18755 2.1099,-4.07447 2.47838,-6.49563 1.77924,-11.69068 -0.998,-7.41572 -4.03579,-13.72002 -9.00842,-18.69507 -5.3776,-5.38022 -10.48568,-7.04699 -20.71372,-6.75891 -6.46889,0.18221 -9.97041,0.99748 -12.72575,2.96298 -0.88848,0.63379 -1.886,0.90605 -3.31957,0.90605 -1.96163,0 -2.07018,0.0614 -2.53433,1.43355 -0.44298,1.30952 -0.7717,1.52998 -3.79963,2.5483 -4.72286,1.58833 -6.41474,2.55158 -8.61691,4.90587 -2.26829,2.42498 -2.83912,4.1238 -2.84233,8.45889 -0.01,13.35274 13.0747,28.32235 27.15391,31.06579 2.58535,0.50377 13.21911,-0.11119 16.41353,-0.94922 z m 116.50755,-2.50064 c 1.75879,-0.45715 4.15399,-1.31573 5.32266,-1.90794 7.46002,-3.78028 12.46908,-15.06641 10.92289,-24.61085 -0.80503,-4.96937 -3.32397,-8.56565 -7.48733,-10.68964 -2.23171,-1.13854 -8.57527,-2.94954 -10.3316,-2.94954 h -1.41552 v -2.42318 c 0,-2.58378 -0.46476,-3.42586 -1.89078,-3.42586 -1.21074,0 -2.51885,1.51853 -3.1491,3.65565 l -0.52363,1.7756 -2.12726,10e-4 c -5.23231,0.003 -12.58491,1.31712 -16.31569,2.91632 -4.21269,1.80577 -7.57355,6.39262 -8.58262,11.71344 -0.53638,2.82836 -0.51793,9.27962 0.0334,11.67206 1.75357,7.60947 7.90424,12.83465 17.5153,14.87977 3.88009,0.82564 13.80281,0.49156 18.02928,-0.60701 z"
       id="path31" />
    <path
       style="opacity:1;fill:#1a1a1a;fill-opacity:1;stroke:none;stroke-width:0;stroke-linecap:butt;stroke-dasharray:none;paint-order:markers fill stroke"
       d="m 693.08031,283.64878 c 0.0749,-0.87309 0.36832,-3.36111 0.46809,-3.96709 0.14173,-0.86057 0.39444,-1.87069 0.53505,-2.13876 0.1307,-0.2493 0.21853,-0.13254 0.27965,0.37206 0.09,0.74264 0.0451,1.99542 -0.13961,3.90423 -0.0936,0.96663 -0.18809,1.8342 -0.20997,1.92795 -0.0383,0.16345 -0.0585,0.16923 -0.49552,0.14117 l -0.45562,-0.0292 z"
       id="path34" />
    <path
       style="opacity:1;fill:#1a1a1a;fill-opacity:1;stroke:none;stroke-width:0;stroke-linecap:butt;stroke-dasharray:none;paint-order:markers fill stroke"
       d="m 693.08961,284.5853 c -0.0176,-0.26018 -0.0321,-0.59153 -0.0321,-0.73634 v -0.2633 h 0.49852 c 0.27419,0 0.49853,0.0157 0.49853,0.035 0,0.0707 -0.10251,0.80221 -0.1288,0.91916 -0.0211,0.0937 -0.11394,0.16516 -0.41566,0.31963 l -0.38853,0.19892 z"
       id="path35" />
    <path
       style="opacity:1;fill:#1a1a1a;fill-opacity:1;stroke:none;stroke-width:0;stroke-linecap:butt;stroke-dasharray:none;paint-order:markers fill stroke"
       d="m 693.40248,286.48328 c -0.0669,-0.21623 -0.28525,-1.52435 -0.25771,-1.54375 0.19956,-0.14053 0.74562,-0.41645 0.77198,-0.39008 0.0361,0.036 -0.30769,1.64437 -0.4113,1.92447 -0.0563,0.15223 -0.0587,0.15245 -0.10297,0.009 z"
       id="path36" />
    <path
       style="opacity:1;fill:#1a1a1a;fill-opacity:1;stroke:none;stroke-width:0;stroke-linecap:butt;stroke-dasharray:none;paint-order:markers fill stroke"
       d="m 748.53381,260.70297 c -0.11209,-0.49363 -0.0757,-0.91263 0.0897,-1.03356 0.12742,-0.0931 0.25171,-0.0376 0.66168,0.29518 0.56397,0.45783 0.56133,0.46562 -0.28906,0.85366 l -0.3952,0.18036 z"
       id="path37" />
    <path
       style="opacity:1;fill:#1a1a1a;fill-opacity:1;stroke:none;stroke-width:0;paint-order:markers fill stroke;stroke-linecap:butt;stroke-dasharray:none"
       d="m 752.08939,267.22901 c -0.69072,-0.92411 -1.54995,-2.29889 -2.3048,-3.68772 -0.67497,-1.24187 -1.25747,-2.53682 -1.17381,-2.60951 0.0329,-0.0286 0.28129,-0.17352 0.55197,-0.32206 l 0.49214,-0.27008 0.25643,0.46164 c 0.94888,1.70827 2.06905,4.39853 2.59867,6.24111 0.29543,1.0278 0.22988,1.05689 -0.4206,0.18662 z"
       id="path38" />
    <path
       style="opacity:1;fill:#1a1a1a;fill-opacity:1;stroke:none;stroke-width:0;stroke-linecap:butt;stroke-dasharray:none;paint-order:markers fill stroke"
       d="m 820.4065,217.44605 c -0.32137,-0.58241 -0.97132,-2.13461 -1.16475,-2.78154 -0.22524,-0.75335 -0.23946,-1.59925 -0.0273,-1.62466 0.16183,-0.0194 0.72288,0.59207 1.12263,1.22353 0.32977,0.52091 1.22112,2.3314 1.30362,2.64782 0.0469,0.1799 -0.0551,0.2711 -0.73514,0.65724 l -0.32857,0.18657 z"
       id="path39" />
    <path
       style="opacity:1;fill:#1a1a1a;fill-opacity:1;stroke:none;stroke-width:0;stroke-linecap:butt;stroke-dasharray:none;paint-order:markers fill stroke"
       d="m 822.43961,220.27318 c -0.65771,-0.78724 -1.87018,-2.47316 -1.87066,-2.60117 -3e-4,-0.0766 1.0871,-0.67874 1.13616,-0.62919 0.0135,0.0137 0.23528,0.54094 0.49282,1.17176 0.49509,1.21274 0.93455,2.55929 0.88174,2.7018 -0.0174,0.0469 -0.30537,-0.24261 -0.64006,-0.6432 z"
       id="path40" />
    <path
       style="opacity:1;fill:#1a1a1a;fill-opacity:1;stroke:none;stroke-width:0;stroke-linecap:butt;stroke-dasharray:none;paint-order:markers fill stroke"
       d="m 884.01467,263.3928 c 0.01,-0.1477 0.47132,-1.56571 0.69194,-2.12619 0.40352,-1.02516 0.91412,-1.81542 1.16202,-1.79849 0.34422,0.0235 0.078,2.07081 -0.49521,3.80884 l -0.0841,0.25507 -0.63904,-0.0436 c -0.35147,-0.024 -0.63748,-0.067 -0.63558,-0.0956 z"
       id="path41" />
    <path
       style="opacity:1;fill:#1a1a1a;fill-opacity:1;stroke:none;stroke-width:0;paint-order:markers fill stroke;stroke-linecap:butt;stroke-dasharray:none"
       d="m 883.5998,266.87592 c 0.0333,-0.88918 0.2326,-2.62385 0.38092,-3.31497 l 0.0457,-0.21304 0.5981,0.0499 c 0.32896,0.0274 0.61436,0.0661 0.63422,0.086 0.0952,0.0952 -0.98185,3.05747 -1.40795,3.87219 l -0.28971,0.55392 z"
       id="path42" />
  </g>
</svg>
