<?xml version="1.0" encoding="UTF-8" standalone="no"?>
<!-- Created with Inkscape (http://www.inkscape.org/) -->

<svg
   version="1.1"
   id="svg1"
   width="1600"
   height="715"
   viewBox="0 0 1600 715"
   sodipodi:docname="cookie.svg"
   inkscape:version="1.4.3 (0d15f75, 2025-12-25)"
   xmlns:inkscape="http://www.inkscape.org/namespaces/inkscape"
   xmlns:sodipodi="http://sodipodi.sourceforge.net/DTD/sodipodi-0.dtd"
   xmlns="http://www.w3.org/2000/svg"
   xmlns:svg="http://www.w3.org/2000/svg">
  <defs
     id="defs1">
    <inkscape:path-effect
       effect="bspline"
       id="path-effect12"
       is_visible="true"
       lpeversion="1.3"
       weight="33.333333"
       steps="2"
       helper_size="0"
       apply_no_weight="true"
       apply_with_weight="true"
       only_selected="false"
       uniform="false" />
    <inkscape:path-effect
       effect="bspline"
       id="path-effect11"
       is_visible="true"
       lpeversion="1.3"
       weight="33.333333"
       steps="2"
       helper_size="0"
       apply_no_weight="true"
       apply_with_weight="true"
       only_selected="false"
       uniform="false" />
    <inkscape:path-effect
       effect="bspline"
       id="path-effect10"
       is_visible="true"
       lpeversion="1.3"
       weight="33.333333"
       steps="2"
       helper_size="0"
       apply_no_weight="true"
       apply_with_weight="true"
       only_selected="false"
       uniform="false" />
    <inkscape:path-effect
       effect="bspline"
       id="path-effect9"
       is_visible="true"
       lpeversion="1.3"
       weight="33.333333"
       steps="2"
       helper_size="0"
       apply_no_weight="true"
       apply_with_weight="true"
       only_selected="false"
       uniform="false" />
    <inkscape:path-effect
       effect="bspline"
       id="path-effect8"
       is_visible="true"
       lpeversion="1.3"
       weight="33.333333"
       steps="2"
       helper_size="0"
       apply_no_weight="true"
       apply_with_weight="true"
       only_selected="false"
       uniform="false" />
    <inkscape:path-effect
       effect="bspline"
       id="path-effect7"
       is_visible="true"
       lpeversion="1.3"
       weight="33.333333"
       steps="2"
       helper_size="0"
       apply_no_weight="true"
       apply_with_weight="true"
       only_selected="false"
       uniform="false" />
    <inkscape:path-effect
       effect="bspline"
       id="path-effect6"
       is_visible="true"
       lpeversion="1.3"
       weight="33.333333"
       steps="2"
       helper_size="0"
       apply_no_weight="true"
       apply_with_weight="true"
       only_selected="false"
       uniform="false" />
    <inkscape:path-effect
       effect="bspline"
       id="path-effect5"
       is_visible="true"
       lpeversion="1.3"
       weight="33.333333"
       steps="2"
       helper_size="0"
       apply_no_weight="true"
       apply_with_weight="true"
       only_selected="false"
       uniform="false" />
    <inkscape:path-effect
       effect="bspline"
       id="path-effect4"
       is_visible="true"
       lpeversion="1.3"
       weight="33.333333"
       steps="2"
       helper_size="0"
       apply_no_weight="true"
       apply_with_weight="true"
       only_selected="false"
       uniform="false" />
    <inkscape:path-effect
       effect="bspline"
       id="path-effect3"
       is_visible="true"
       lpeversion="1.3"
       weight="33.333333"
       steps="2"
       helper_size="0"
       apply_no_weight="true"
       apply_with_weight="true"
       only_selected="false"
       uniform="false" />
    <inkscape:path-effect
       effect="bspline"
       id="path-effect2"
       is_visible="true"
       lpeversion="1.3"
       weight="33.333333"
       steps="2"
       helper_size="0"
       apply_no_weight="true"
       apply_with_weight="true"
       only_selected="false"
       uniform="false" />
    <inkscape:path-effect
       effect="bspline"
       id="path-effect1"
       is_visible="true"
       lpeversion="1.3"
       weight="33.333333"
       steps="2"
       helper_size="0"
       apply_no_weight="true"
       apply_with_weight="true"
       only_selected="false"
       uniform="false" />
  </defs>
  <sodipodi:namedview
     id="namedview1"
     pagecolor="#ffffff"
     bordercolor="#000000"
     borderopacity="0.25"
     inkscape:showpageshadow="2"
     inkscape:pageopacity="0.0"
     inkscape:pagecheckerboard="0"
     inkscape:deskcolor="#d1d1d1"
     showgrid="false"
     inkscape:zoom="1.1967782"
     inkscape:cx="574.87677"
     inkscape:cy="310.41674"
     inkscape:window-width="1920"
     inkscape:window-height="991"
     inkscape:window-x="-9"
     inkscape:window-y="-9"
     inkscape:window-maximized="1"
     inkscape:current-layer="g1" />
  <g
     inkscape:groupmode="layer"
     inkscape:label="Image"
     id="g1">
    <path
       style="fill:none;stroke:#000000;stroke-width:1px;stroke-linecap:butt;stroke-linejoin:miter;stroke-opacity:1"
       d="m 587.88774,226.29247 c 2.95421,-1.37863 5.90842,-2.75727 9.65046,-4.03744 3.74205,-1.28017 8.27175,-2.46183 12.21073,-4.72676 3.93898,-2.26492 7.28701,-5.61296 13.29399,-8.37024 6.00698,-2.75728 14.67249,-4.92366 21.76265,-6.49925 7.09016,-1.57559 12.60457,-2.5603 19.79324,-4.5298 7.18866,-1.96951 16.05112,-4.92366 23.0428,-6.49924 6.99168,-1.57558 12.11221,-1.77252 16.64203,-1.18167 4.52983,0.59086 8.4687,1.96946 11.71835,2.9542 3.24966,0.98474 5.80993,1.57558 11.02911,1.871 5.21918,0.29542 13.09692,0.29542 18.21757,0.29542 5.12065,0 7.48397,0 10.33974,1.37866 2.85577,1.37865 6.20381,4.13586 8.56719,6.40077 2.36338,2.26491 3.74199,4.0374 7.09014,5.90842 3.34816,1.87102 8.66563,3.84046 12.99851,5.71147 4.33287,1.87102 7.68091,3.64351 11.226,5.41606 3.54509,1.77254 7.28701,3.54503 10.8321,5.51452 3.54508,1.9695 6.89312,4.13588 11.02907,8.56726 4.13594,4.43138 9.05952,11.12745 13.3924,16.44507 4.33288,5.31762 8.0748,9.25649 10.43818,11.81681 2.36338,2.56033 3.34809,3.74199 4.72674,5.61301 1.37865,1.87103 3.15114,4.43129 5.31759,8.17334 2.16644,3.74205 4.7267,8.66563 6.40077,12.80156 1.67406,4.13593 2.46183,7.48397 3.15115,10.83211 0.68933,3.34813 1.28016,6.69617 1.67405,10.04431 0.3939,3.34814 0.59084,6.69617 1.28017,10.43821 0.68933,3.74204 1.87099,7.87785 2.65878,12.40769 0.78779,4.52984 1.18168,9.45342 -0.19699,14.96801 -1.37866,5.51459 -4.52975,11.61983 -7.18856,18.21763 -2.65881,6.59781 -4.82519,13.68777 -6.6962,18.51301 -1.87102,4.82523 -3.44657,7.3855 -5.71149,10.63517 -2.26492,3.24967 -5.21907,7.18854 -8.76417,11.42295 -3.54509,4.23441 -7.6809,8.76411 -11.61988,12.21071 -3.93899,3.44661 -7.68091,5.80992 -11.87139,8.40066 -4.19048,2.59074 -8.8293,5.40876 -14.91931,10.0089 -6.09001,4.60014 -13.38172,10.77124 -18.60325,13.6599 -5.22154,2.88866 -8.37263,2.49477 -11.12992,3.38106 -2.75729,0.88628 -5.12061,3.05266 -7.38552,4.62825 -2.26492,1.57559 -4.4313,2.5603 -7.68097,4.82523 -3.24967,2.26493 -7.58243,5.80991 -11.22599,7.58243 -3.64355,1.77253 -6.5977,1.77253 -9.65042,1.77253 -3.05271,0 -6.2038,0 -10.73365,0.98476 -4.52985,0.98475 -10.43815,2.95419 -14.96797,4.62825 -4.52982,1.67407 -7.68091,3.05267 -11.6199,4.33285 -3.939,1.28017 -8.66564,2.46183 -13.19547,3.05267 -4.52983,0.59084 -8.86259,0.59084 -13.4909,0.49236 -4.62831,-0.0985 -9.55189,-0.29542 -14.67257,-0.88627 -5.12069,-0.59085 -10.43816,-1.57557 -16.24817,-2.36336 -5.81001,-0.7878 -12.1122,-1.37863 -17.42982,-1.67405 -5.31762,-0.29542 -9.65037,-0.29542 -12.9985,-1.37865 -3.34813,-1.08323 -5.71145,-3.24961 -7.18856,-4.92367 -1.47711,-1.67407 -2.06794,-2.85573 -4.2344,-4.82523 -2.16646,-1.9695 -5.90838,-4.72671 -8.66566,-6.49924 -2.75728,-1.77254 -4.52977,-2.56031 -6.59774,-3.44658 -2.06797,-0.88628 -4.43129,-1.87099 -6.79468,-3.8405 -2.3634,-1.9695 -4.72672,-4.92365 -6.3023,-6.89313 -1.57559,-1.96948 -2.36336,-2.9542 -3.64354,-4.43133 -1.28017,-1.47713 -3.05266,-3.44656 -5.80997,-5.51453 -2.7573,-2.06796 -6.49922,-4.23434 -10.24122,-6.40076"
       id="path1"
       inkscape:path-effect="#path-effect1"
       inkscape:original-d="m 587.88774,226.29247 c 2.95421,-1.37863 5.90842,-2.75727 8.86263,-4.1359 4.52988,-1.1817 9.05958,-2.36336 13.58936,-3.54505 3.34818,-3.34817 6.69621,-6.69621 10.04432,-10.04431 8.66585,-2.16647 17.33136,-4.33284 25.99704,-6.49926 5.51464,-0.98476 11.02905,-1.96948 16.54358,-2.95421 8.8628,-2.95427 17.72526,-5.90842 26.58789,-8.86263 5.12073,-0.19695 10.24126,-0.3939 15.36189,-0.59084 3.93902,1.37865 7.87789,2.75726 11.81684,4.13589 2.56036,0.59085 5.12063,1.18168 7.68094,1.77253 7.87805,0 15.75579,0 23.63368,0 2.36341,0 4.72673,0 7.0901,0 3.34817,2.75731 6.69621,5.51452 10.04432,8.27178 1.37865,1.77256 2.75726,3.54505 4.13589,5.31758 5.31768,1.96951 10.63515,3.93895 15.95273,5.90842 3.34817,1.77256 6.69621,3.54505 10.04431,5.31758 3.74208,1.77256 7.484,3.54505 11.226,5.31757 3.34817,2.16647 6.69621,4.33285 10.04432,6.49927 4.92378,6.69634 9.84736,13.39241 14.77104,20.08862 3.74208,3.93903 7.484,7.8779 11.226,11.81684 0.98476,1.18171 1.96947,2.36337 2.95421,3.54505 1.77256,2.56037 3.54505,5.12063 5.31758,7.68095 2.56036,4.92378 5.12063,9.84736 7.68094,14.77105 0.78781,3.34817 1.57558,6.69621 2.36337,10.04431 0.59086,3.34817 1.18169,6.69621 1.77253,10.04431 0.19695,3.34818 0.39389,6.69621 0.59084,10.04432 1.18171,4.13597 2.36337,8.27178 3.54505,12.40768 0.3939,4.92378 0.78779,9.84736 1.18168,14.77105 -3.15122,6.10549 -6.30231,12.21073 -9.45347,18.3161 -2.16646,7.09024 -4.33284,14.1802 -6.49926,21.27031 -1.57561,2.56036 -3.15116,5.12063 -4.72673,7.68094 -2.95427,3.93903 -5.90842,7.8779 -8.86263,11.81684 -4.13598,4.52988 -8.27179,9.05958 -12.40768,13.58937 -3.74208,2.36341 -7.484,4.72673 -11.226,7.0901 -4.63896,2.81811 -9.27778,5.63613 -13.9166,8.45415 -6.76302,7.30175 -14.44381,13.01311 -22.12476,18.72458 -3.15122,-0.3939 -6.30231,-0.78779 -9.45347,-1.18168 -2.36342,2.16646 -4.72674,4.33284 -7.0901,6.49926 -2.16647,0.98475 -4.33285,1.96947 -6.49927,2.95421 -4.33292,3.54512 -8.66568,7.0901 -12.99852,10.63515 -2.95427,0 -5.90842,0 -8.86263,0 -3.15122,0 -6.30231,0 -9.45347,0 -5.90854,1.96951 -11.81684,3.93895 -17.72526,5.90842 -3.15122,1.37866 -6.30231,2.75726 -9.45347,4.1359 -4.72683,1.1817 -9.45347,2.36336 -14.18021,3.54505 -4.33292,0 -8.66568,0 -12.99852,0 -4.92378,-0.19695 -9.84736,-0.3939 -14.77105,-0.59085 -5.31768,-0.98475 -10.63515,-1.96947 -15.95273,-2.9542 -6.30244,-0.59086 -12.60463,-1.18169 -18.90694,-1.77253 -4.33293,0 -8.66568,0 -12.99853,0 -2.36341,-2.16646 -4.72673,-4.33284 -7.0901,-6.49926 -0.59085,-1.18171 -1.18168,-2.36337 -1.77252,-3.54505 -3.74208,-2.75732 -7.484,-5.51453 -11.226,-8.27179 -1.77256,-0.78781 -3.54505,-1.57558 -5.31758,-2.36337 -2.36341,-0.98476 -4.72673,-1.96947 -7.0901,-2.95421 -2.36342,-2.95427 -4.72674,-5.90842 -7.09011,-8.86263 -0.7878,-0.98475 -1.57557,-1.96947 -2.36336,-2.95421 -1.77257,-1.96951 -3.54506,-3.93894 -5.31758,-5.90842 -3.74208,-2.16646 -7.484,-4.33284 -11.226,-6.49926" />
    <path
       style="fill:none;stroke:#000000;stroke-width:1px;stroke-linecap:butt;stroke-linejoin:miter;stroke-opacity:1"
       d="m 549.60057,434.0821 c -4.24751,-3.48157 -8.49503,-6.96314 -11.69809,-11.17589 -3.20307,-4.21275 -5.3616,-9.15648 -6.75423,-14.37889 -1.39264,-5.22241 -2.01931,-10.72318 -2.19338,-14.79665 -0.17408,-4.07346 0.10444,-6.7194 -0.59189,-10.96697 -0.69633,-4.24757 -2.36745,-10.09649 -3.20302,-14.83146 -0.83558,-4.73497 -0.83558,-8.35573 -0.34815,-11.83734 0.48743,-3.4816 1.46225,-6.82384 2.50673,-12.39443 1.04448,-5.57059 2.15856,-13.36915 3.34231,-19.56639 1.18374,-6.19724 2.43708,-10.79282 4.10826,-14.06551 1.67117,-3.2727 3.76007,-5.22234 5.08307,-7.79873 1.323,-2.57639 1.88005,-5.77937 2.50674,-9.26098 0.62669,-3.48161 1.32299,-7.24163 2.22821,-10.16617 0.90522,-2.92454 2.0193,-5.01344 3.76011,-7.38093 1.7408,-2.3675 4.10822,-5.01344 6.26682,-7.72909 2.15859,-2.71565 4.10823,-5.50085 6.26683,-8.14687 2.1586,-2.64601 4.52601,-5.1527 6.96314,-7.79872 2.43712,-2.64602 4.9438,-5.43122 6.96313,-8.28613 2.01932,-2.85492 3.55118,-5.77938 5.29198,-8.4254 1.74081,-2.64601 3.69045,-5.01343 5.06567,-6.46699 1.37523,-1.45356 2.17598,-1.9932 2.97674,-2.53284"
       id="path2"
       inkscape:path-effect="#path-effect2"
       inkscape:original-d="m 549.60057,434.0821 c -4.24751,-3.48157 -8.49503,-6.96314 -12.74254,-10.44471 -2.15862,-4.94393 -4.31715,-9.88766 -6.47572,-14.83149 -0.6267,-5.50099 -1.25337,-11.00176 -1.88005,-16.50264 0.27853,-2.64605 0.55705,-5.29199 0.83558,-7.93798 -1.67119,-5.84915 -3.34231,-11.69807 -5.01346,-17.54711 0,-3.6209 0,-7.24166 0,-10.8625 0.97486,-3.34237 1.94968,-6.68461 2.92452,-10.02692 1.11412,-7.79887 2.2282,-15.59743 3.3423,-23.39614 1.25339,-4.59577 2.50673,-9.19135 3.7601,-13.78702 2.08898,-1.94972 4.17788,-3.89936 6.26682,-5.84904 0.55707,-3.2031 1.11411,-6.40608 1.67116,-9.60913 0.69633,-3.76017 1.39263,-7.52019 2.08894,-11.28028 1.11412,-2.08899 2.2282,-4.17789 3.34231,-6.26683 2.36751,-2.64605 4.73493,-5.29199 7.1024,-7.93798 1.94972,-2.78531 3.89936,-5.57051 5.84904,-8.35576 2.36751,-2.50679 4.73493,-5.01347 7.1024,-7.5202 2.50678,-2.78531 5.01346,-5.57051 7.52019,-8.35576 1.53192,-2.92458 3.06378,-5.84904 4.59567,-8.77356 1.94972,-2.36751 3.89936,-4.73493 5.84904,-7.1024 0.80077,-0.53965 1.60152,-1.07929 2.40228,-1.61893" />
    <path
       style="fill:none;stroke:#000000;stroke-width:1px;stroke-linecap:butt;stroke-linejoin:miter;stroke-opacity:1"
       d="m 657.32033,246.00771 c 1.81042,-1.46226 3.7601,-1.74079 5.22237,-1.88005 1.46227,-0.13926 2.43709,-0.13926 3.13341,0.6267 0.69632,0.76596 1.11409,2.29782 1.39262,4.31716 0.27853,2.01933 0.41779,4.52601 -0.55707,6.4757 -0.97486,1.94969 -3.06376,3.34229 -5.15272,4.03861 -2.08897,0.69631 -4.17787,0.69631 -5.70977,0.55705 -1.5319,-0.13927 -2.50672,-0.41779 -2.99414,-1.67117 -0.48742,-1.25339 -0.48742,-3.48155 0.34817,-5.91868 0.83559,-2.43712 2.50671,-5.08306 4.31713,-6.54532 z"
       id="path3"
       inkscape:path-effect="#path-effect3"
       inkscape:original-d="m 657.18107,244.82397 c 1.94968,-0.27852 3.89936,-0.55705 5.84904,-0.83557 0.97486,0 1.94968,0 2.92452,0 0.4178,1.53192 0.83558,3.06378 1.25336,4.59567 0.13927,2.50678 0.27853,5.01346 0.41779,7.52019 -2.08898,1.39265 -4.17788,2.78525 -6.26682,4.17788 -2.08899,0 -4.17789,0 -6.26683,0 -0.97486,-0.27853 -1.94968,-0.55705 -2.92452,-0.83557 0,-2.22825 0,-4.45641 0,-6.68462 1.67119,-2.64604 3.34231,-5.29198 5.01346,-7.93798 z" />
    <path
       style="fill:none;stroke:#000000;stroke-width:1px;stroke-linecap:butt;stroke-linejoin:miter;stroke-opacity:1"
       d="m 576.82645,291.75553 c -2.36747,1.81042 -3.62083,5.43125 -4.31715,9.12175 -0.69632,3.6905 -0.83558,7.45052 -0.0696,11.00176 0.76597,3.55123 2.43709,6.89347 4.45642,8.49499 2.01934,1.60152 4.38676,1.46226 6.89351,0.34814 2.50676,-1.11412 5.1527,-3.20303 6.47569,-6.19721 1.323,-2.99419 1.323,-6.89347 1.39263,-10.16618 0.0696,-3.2727 0.2089,-5.91864 -0.69633,-8.2165 -0.90523,-2.29785 -2.85487,-4.24749 -5.57053,-5.22233 -2.71565,-0.97484 -6.19715,-0.97484 -8.56462,0.83558 z"
       id="path4"
       inkscape:path-effect="#path-effect4"
       inkscape:original-d="m 575.71235,289.94511 c -1.25337,3.62084 -2.50673,7.24167 -3.7601,10.8625 -0.13926,3.76017 -0.27852,7.52019 -0.41779,11.28029 1.67119,3.34237 3.34231,6.68461 5.01346,10.02692 2.36752,-0.13927 4.73494,-0.27853 7.1024,-0.41779 2.64605,-2.08898 5.29199,-4.17788 7.93798,-6.26683 0,-3.89943 0,-7.79871 0,-11.69807 0.13927,-2.64605 0.27853,-5.29199 0.41779,-7.93798 -1.94972,-1.94972 -3.89936,-3.89936 -5.84904,-5.84904 -3.48163,0 -6.96313,0 -10.4447,0 z" />
    <path
       style="fill:none;stroke:#000000;stroke-width:1px;stroke-linecap:butt;stroke-linejoin:miter;stroke-opacity:1"
       d="m 661.63749,315.70873 c -2.646,0.55705 -3.7601,3.48157 -3.96899,6.75428 -0.20888,3.27271 0.48742,6.89347 1.46227,9.33058 0.97485,2.43711 2.22819,3.69045 3.96899,4.31714 1.74081,0.62668 3.96897,0.62668 5.5705,-0.69635 1.60154,-1.32302 2.57636,-3.96896 3.13341,-6.96314 0.55705,-2.99418 0.69631,-6.33642 -1.32304,-8.9128 -2.01935,-2.57638 -6.19715,-4.38676 -8.84314,-3.82971 z"
       id="path5"
       inkscape:path-effect="#path-effect5"
       inkscape:original-d="m 660.10559,313.34126 c -1.1141,2.92452 -2.2282,5.84904 -3.3423,8.77356 0.69632,3.6209 1.39262,7.24166 2.08894,10.86249 1.25339,1.25339 2.50673,2.50673 3.76009,3.7601 2.22825,0 4.45641,0 6.68462,0 0.97486,-2.64605 1.94968,-5.29199 2.92451,-7.93798 0.13927,-3.34237 0.27853,-6.68461 0.41779,-10.02692 -4.17796,-1.81045 -8.35576,-3.62083 -12.53365,-5.43125 z" />
    <path
       style="fill:none;stroke:#000000;stroke-width:1px;stroke-linecap:butt;stroke-linejoin:miter;stroke-opacity:1"
       d="m 704.18226,285.97612 c -1.32299,-0.20889 -2.43709,1.46226 -2.29782,2.92454 0.13928,1.46227 1.53188,2.71561 2.85489,2.92449 1.32301,0.20889 2.57635,-0.62667 2.43707,-2.08895 -0.13928,-1.46228 -1.67114,-3.55118 -2.99414,-3.76008 z"
       id="path6"
       inkscape:path-effect="#path-effect6"
       inkscape:original-d="m 703.97337,284.09608 c -1.1141,1.67115 -2.22821,3.3423 -3.34231,5.01346 1.39266,1.25339 2.78526,2.50673 4.17789,3.76009 1.25339,-0.83559 2.50673,-1.67115 3.76009,-2.50673 -1.53192,-2.08898 -3.06378,-4.17788 -4.59567,-6.26682 z" />
    <path
       style="fill:none;stroke:#000000;stroke-width:1px;stroke-linecap:butt;stroke-linejoin:miter;stroke-opacity:1"
       d="m 756.89322,223.30787 c -1.25336,0.90521 -1.81041,2.85489 -1.46224,4.24753 0.34817,1.39263 1.60151,2.22819 2.71562,2.22819 1.11411,-1e-5 2.08893,-0.83557 2.71562,-2.15859 0.62668,-1.32301 0.9052,-3.13339 0.0696,-4.10823 -0.8356,-0.97485 -2.78524,-1.11411 -4.03861,-0.2089 z"
       id="path7"
       inkscape:path-effect="#path-effect7"
       inkscape:original-d="m 756.19691,222.2634 c -0.55705,1.94968 -1.1141,3.89936 -1.67115,5.84904 1.25339,0.83559 2.50673,1.67115 3.76009,2.50673 0.97486,-0.83559 1.94968,-1.67115 2.92452,-2.50673 0.27853,-1.81045 0.55705,-3.62083 0.83558,-5.43125 -1.94972,-0.13927 -3.89936,-0.27853 -5.84904,-0.41779 z" />
    <path
       style="fill:none;stroke:#000000;stroke-width:1px;stroke-linecap:butt;stroke-linejoin:miter;stroke-opacity:1"
       d="m 777.43449,309.85969 c -3.5512,2.50673 -8.00761,6.96314 -10.30545,11.6285 -2.29784,4.66535 -2.4371,9.53945 -1.3926,13.09067 1.04449,3.55122 3.27265,5.77938 5.64014,6.89349 2.36749,1.1141 4.87417,1.1141 8.28615,-0.34819 3.41199,-1.46229 7.72905,-4.38675 11.21064,-8.35579 3.4816,-3.96904 6.12754,-8.9824 6.89347,-13.36921 0.76593,-4.38682 -0.34815,-8.14684 -2.57638,-10.23578 -2.22824,-2.08895 -5.57048,-2.50673 -8.56465,-2.43709 -2.99418,0.0696 -5.64012,0.62667 -9.19132,3.1334 z"
       id="path8"
       inkscape:path-effect="#path-effect8"
       inkscape:original-d="m 778.3397,307.91001 c -4.45641,4.45641 -8.91282,8.91282 -13.36923,13.36923 -0.13927,4.8743 -0.27853,9.7484 -0.41779,14.62259 2.22825,2.22825 4.45641,4.45641 6.68461,6.68462 2.50678,0 5.01346,0 7.52019,0 4.31724,-2.92458 8.6343,-5.84904 12.95144,-8.77356 2.64605,-5.01356 5.29199,-10.02692 7.93798,-15.04038 -1.11412,-3.76017 -2.2282,-7.52019 -3.34231,-11.28028 -3.34237,-0.4178 -6.68461,-0.83558 -10.02692,-1.25337 -2.64604,0.55706 -5.29198,1.1141 -7.93797,1.67115 z" />
    <path
       style="fill:none;stroke:#000000;stroke-width:1px;stroke-linecap:butt;stroke-linejoin:miter;stroke-opacity:1"
       d="m 784.88504,387.63796 c -1.25336,-0.34816 -1.81041,2.15857 -2.08894,4.52606 -0.27852,2.36749 -0.27852,4.59565 0.41781,5.98828 0.69632,1.39263 2.08892,1.94968 3.3423,1.18371 1.25338,-0.76597 2.36746,-2.85487 1.94965,-5.5009 -0.41781,-2.64602 -2.36745,-5.849 -3.62082,-6.19715 z"
       id="path9"
       inkscape:path-effect="#path-effect9"
       inkscape:original-d="m 784.18873,384.78307 c -0.55705,2.50673 -1.1141,5.01346 -1.67115,7.52019 0,2.22825 0,4.45641 0,6.68461 1.39265,0.55707 2.78525,1.11411 4.17788,1.67116 1.11413,-2.08899 2.22821,-4.17789 3.34231,-6.26683 -1.94972,-3.20311 -3.89936,-6.40609 -5.84904,-9.60913 z" />
    <path
       style="fill:none;stroke:#000000;stroke-width:1px;stroke-linecap:butt;stroke-linejoin:miter;stroke-opacity:1"
       d="m 675.14597,395.43667 c -2.50673,0.90521 -5.01346,2.01932 -6.26682,4.52608 -1.25337,2.50677 -1.25337,6.40605 -0.62667,9.19132 0.62669,2.78528 1.88003,4.4564 3.55121,5.15271 1.67117,0.69631 3.76007,0.41779 5.08307,-0.55707 1.323,-0.97485 1.88004,-2.64597 2.646,-3.55118 0.76596,-0.90522 1.74078,-1.04448 2.99416,-1.9497 1.25337,-0.90523 2.78523,-2.57634 3.82971,-4.59568 1.04448,-2.01933 1.60152,-4.38675 0.90518,-6.19718 -0.69633,-1.81043 -2.64597,-3.06377 -4.8742,-3.34229 -2.22823,-0.27851 -4.73491,0.41779 -7.24164,1.32299 z"
       id="path10"
       inkscape:path-effect="#path-effect10"
       inkscape:original-d="m 675.14597,395.22778 c -2.50673,1.1141 -5.01346,2.2282 -7.52019,3.34231 0,3.89943 0,7.79871 0,11.69807 1.25339,1.67119 2.50673,3.34231 3.7601,5.01346 2.08898,-0.27853 4.17788,-0.55705 6.26682,-0.83558 0.55707,-1.67118 1.11411,-3.3423 1.67116,-5.01346 0.97486,-0.13926 1.94968,-0.27852 2.92451,-0.41779 1.53193,-1.67118 3.06379,-3.3423 4.59568,-5.01346 0.55706,-2.36751 1.1141,-4.73493 1.67115,-7.1024 -1.94972,-1.25339 -3.89936,-2.50673 -5.84904,-3.76009 -2.50678,0.69632 -5.01346,1.39262 -7.52019,2.08894 z" />
    <path
       style="fill:none;stroke:#000000;stroke-width:1px;stroke-linecap:butt;stroke-linejoin:miter;stroke-opacity:1"
       d="m 609.41394,370.02122 c -0.83557,1.67115 -0.97484,4.03862 -0.62667,5.36162 0.34816,1.32299 1.18372,1.60151 2.71564,1.04445 1.53191,-0.55707 3.76007,-1.94967 4.87417,-3.48157 1.1141,-1.53191 1.1141,-3.20303 0.41777,-4.31714 -0.69632,-1.1141 -2.08892,-1.67115 -3.5512,-1.46224 -1.46227,0.2089 -2.99413,1.18372 -3.82971,2.85488 z"
       id="path11"
       inkscape:path-effect="#path-effect11"
       inkscape:original-d="m 608.71763,369.3249 c -0.13927,2.36747 -0.27853,4.73494 -0.41779,7.1024 0.83559,0.27853 1.67115,0.55705 2.50673,0.83558 2.22825,-1.39266 4.45641,-2.78526 6.68461,-4.17788 0,-1.67119 0,-3.34231 0,-5.01346 -1.39265,-0.55707 -2.78525,-1.11411 -4.17788,-1.67116 -1.53192,0.97486 -3.06378,1.94968 -4.59567,2.92452 z" />
    <path
       style="fill:none;stroke:#000000;stroke-width:1px;stroke-linecap:butt;stroke-linejoin:miter;stroke-opacity:1"
       d="m 673.82298,455.80709 c -1.74079,0.69631 -3.5512,3.48157 -4.45641,5.84905 -0.90521,2.36749 -0.90521,4.31713 -0.13925,5.3616 0.76596,1.04448 2.29782,1.18374 4.31715,0.62667 2.01934,-0.55706 4.52602,-1.8104 5.50085,-3.55121 0.97484,-1.7408 0.4178,-3.96896 -0.69632,-5.77939 -1.11412,-1.81043 -2.78524,-3.20303 -4.52602,-2.50672 z"
       id="path12"
       inkscape:path-effect="#path-effect12"
       inkscape:original-d="m 673.89261,453.71815 c -1.81042,2.78525 -3.62083,5.57051 -5.43125,8.35576 0,1.94972 0,3.89936 0,5.84904 1.53192,0.13927 3.06378,0.27853 4.59567,0.41779 2.50678,-1.25339 5.01346,-2.50673 7.52019,-3.7601 -0.55706,-2.22824 -1.1141,-4.4564 -1.67115,-6.68461 -1.67119,-1.39265 -3.34231,-2.78525 -5.01346,-4.17788 z" />
    <path
       style="fill:#e1a57f;stroke:#000000;stroke-width:0;paint-order:markers fill stroke;fill-opacity:1"
       d="m 665.11905,485.82725 c -5.01201,-0.19394 -10.9341,-0.78481 -17.756,-1.7716 -14.08478,-2.03737 -16.01799,-2.25126 -26.73846,-2.95824 -5.26656,-0.34732 -10.32714,-0.89604 -11.50808,-1.24783 -3.07865,-0.9171 -5.79351,-2.89377 -8.39259,-6.1106 -3.98563,-4.93294 -11.06615,-10.06851 -19.24025,-13.95513 -5.51828,-2.62384 -7.15922,-4.04524 -13.51656,-11.70827 -4.99709,-6.02339 -7.87801,-8.55682 -13.77086,-12.10983 -4.57093,-2.75598 -6.45152,-4.21824 -11.01948,-8.56827 -9.22482,-8.7847 -12.73407,-18.34881 -13.64322,-37.18316 -0.32726,-6.77981 -0.58253,-8.62705 -2.07839,-15.04038 -1.35015,-5.78858 -1.75407,-8.44246 -1.93941,-12.74255 -0.22318,-5.17785 -0.15591,-5.81134 1.44179,-13.57812 0.92174,-4.48078 2.08077,-10.68494 2.57562,-13.78701 2.73244,-17.12884 4.29165,-22.48762 8.21499,-28.2338 1.50125,-2.19876 2.99307,-4.62843 3.31516,-5.39929 0.32208,-0.77086 1.26066,-4.75205 2.08572,-8.84709 2.34806,-11.65419 3.30862,-13.86467 8.95424,-20.60586 1.44329,-1.72338 4.28113,-5.29547 6.30631,-7.93798 2.02518,-2.64251 6.23893,-7.62464 9.36389,-11.07139 5.402,-5.95828 7.16771,-8.30422 12.42091,-16.50264 1.25151,-1.95316 3.26572,-4.73026 4.47604,-6.17132 2.6287,-3.12987 5.7479,-4.77254 15.14398,-7.97528 7.3165,-2.49391 10.0863,-3.86065 15.79298,-7.79296 5.3275,-3.67103 7.33328,-4.70197 12.95543,-6.65891 5.194,-1.80792 10.85806,-3.26248 23.54929,-6.04759 5.21441,-1.14431 13.47023,-3.24195 18.34625,-4.66143 13.57477,-3.9518 17.13287,-4.87678 21.69157,-5.63905 5.74052,-0.95988 12.53334,-0.63514 17.67249,0.84487 12.17379,3.50589 15.89327,3.95412 33.03389,3.98089 9.59163,0.015 11.23426,0.33331 15.07413,2.92127 1.3444,0.90609 4.40437,3.45696 6.79993,5.66861 4.77015,4.40394 6.48742,5.40295 16.53385,9.61846 7.63348,3.20303 24.23078,11.54414 28.13386,14.1389 4.43639,2.94931 7.74535,6.41015 16.02066,16.75599 4.04353,5.05523 9.48728,11.54887 12.09723,14.4303 6.45688,7.12851 7.79555,8.78177 10.64272,13.14373 3.22444,4.93994 8.4857,15.41763 9.8841,19.68397 1.53685,4.68873 3.04043,12.43074 4.04764,20.8415 0.46779,3.90632 1.51239,10.01647 2.32132,13.57812 1.8964,8.34969 2.30931,14.70691 1.26122,19.41792 -0.82139,3.69198 -1.72022,6.18675 -4.82007,13.37846 -2.65334,6.15583 -3.55866,8.51157 -6.74342,17.54711 -3.33974,9.47524 -5.4511,13.71973 -9.78454,19.66991 -8.79764,12.07991 -18.14917,21.68209 -26.1445,26.84524 -2.61058,1.68584 -7.28458,4.71027 -10.38666,6.72095 -3.10207,2.01068 -9.45399,6.59136 -14.11538,10.1793 -12.43781,9.57358 -14.89227,10.98054 -21.34886,12.23777 -3.22869,0.62869 -5.25941,1.61113 -9.96292,4.81995 -1.55506,1.0609 -4.70744,3.18259 -7.00527,4.71486 -2.29784,1.53228 -5.94302,4.00185 -8.1004,5.48796 -5.03369,3.46743 -7.83318,4.37004 -13.56416,4.37338 -8.48659,0.005 -14.48507,1.44322 -29.82357,7.15097 -15.73815,5.85647 -21.75927,6.81279 -38.75416,6.15519 z m 9.21996,-17.68341 c 6.05055,-1.80513 7.68509,-7.17588 3.51731,-11.55713 -2.0923,-2.19947 -3.93497,-2.24277 -6.0359,-0.14184 -2.77707,2.77707 -4.44107,7.37024 -3.59682,9.92835 0.76372,2.31411 2.55517,2.8328 6.11541,1.77062 z m 3.34767,-54.14183 c 0.59944,-0.56003 1.35678,-1.53122 1.68298,-2.15822 0.32621,-0.62699 1.60538,-1.78753 2.8426,-2.57897 3.7334,-2.38822 6.43935,-7.26938 5.96996,-10.76894 -0.23998,-1.78923 -1.45572,-3.39169 -3.30192,-4.35227 -2.9669,-1.54368 -11.1766,0.18315 -14.53418,3.05711 -2.37043,2.029 -3.04027,3.78613 -3.07738,8.07263 -0.0377,4.35108 0.82316,6.90718 2.95716,8.78086 1.39059,1.22095 1.68112,1.30525 3.93615,1.14214 1.84716,-0.13361 2.69776,-0.42184 3.52463,-1.19434 z m 110.18584,-14.99964 c 1.9398,-2.30532 1.85102,-5.72838 -0.24384,-9.40224 -0.52018,-0.91226 -1.456,-1.94504 -2.0796,-2.29506 -1.04941,-0.58901 -1.1964,-0.5738 -1.97456,0.20436 -1.92615,1.92615 -2.19081,9.81331 -0.3935,11.72646 1.36883,1.45706 3.35204,1.35834 4.6915,-0.23352 z M 613.79773,376.01874 c 3.35591,-1.92474 4.75333,-4.49092 3.85258,-7.0748 -1.27229,-3.6497 -6.84438,-3.14026 -8.82759,0.80708 -0.85078,1.69338 -1.00025,6.24069 -0.23043,7.01051 0.85047,0.85047 2.94976,0.55091 5.20544,-0.74279 z m 165.04629,-33.84521 c 3.86539,-1.35857 6.77564,-3.33624 10.76616,-7.31617 5.64566,-5.63067 8.5525,-11.15898 8.89691,-16.92043 0.33313,-5.5727 -1.1193,-8.6496 -4.99886,-10.58975 -2.12025,-1.06033 -2.80134,-1.18693 -6.27118,-1.1657 -2.3392,0.0143 -4.60434,0.27493 -5.67608,0.65306 -4.42102,1.55983 -11.05637,7.44116 -13.9922,12.40218 -2.27133,3.83815 -3.0163,6.58319 -2.99206,11.02497 0.0173,3.17665 0.1914,4.11665 1.12176,6.05793 2.81914,5.88242 7.33847,7.89494 13.14555,5.85391 z m -110.29507,-5.83908 c 3.12133,-1.90317 5.30043,-10.26892 3.8237,-14.67953 -0.79844,-2.38472 -2.31576,-4.00396 -5.01666,-5.35361 -6.42394,-3.21009 -10.37458,-0.3932 -10.38148,7.40219 -0.005,5.80074 2.18597,11.32072 5.05453,12.73375 1.93872,0.955 4.86061,0.90893 6.51991,-0.1028 z M 584.2152,321.2714 c 3.09937,-1.4064 4.94849,-3.18339 6.4185,-6.1681 l 1.37239,-2.78653 v -7.979 -7.979 l -1.25336,-2.01359 c -0.87272,-1.40206 -1.95123,-2.4077 -3.5512,-3.31128 -2.01013,-1.1352 -2.694,-1.29768 -5.46176,-1.29768 -2.71699,0 -3.39842,0.15518 -4.82397,1.09857 -3.60237,2.38393 -5.86753,9.5056 -5.48605,17.24817 0.30453,6.18079 2.38454,11.19619 5.46053,13.16658 1.73261,1.10987 4.90634,1.11934 7.32492,0.0219 z m 123.25604,-30.10187 c 0.78386,-1.4033 0.35272,-3.07824 -1.18929,-4.62025 -1.41396,-1.41397 -3.00092,-1.55197 -4.18863,-0.36426 -2.18482,2.18482 0.0351,6.45334 3.21821,6.18799 1.16486,-0.0971 1.71201,-0.40201 2.15971,-1.20348 z m -45.55372,-31.07225 c 2.39117,-0.84365 3.97712,-2.11722 5.07986,-4.07928 0.84732,-1.50759 0.92482,-2.08827 0.74292,-5.56587 -0.14682,-2.80684 -0.42823,-4.26921 -1.01563,-5.27765 -0.75782,-1.30104 -0.97876,-1.40359 -3.28079,-1.52288 -3.11286,-0.1613 -5.60539,0.75334 -7.58081,2.7818 -3.85546,3.95897 -5.45857,11.04116 -3.04547,13.45426 0.66697,0.66696 1.40078,0.81227 4.10205,0.81227 1.80938,0 4.05842,-0.27119 4.99787,-0.60265 z m 98.44637,-30.84591 c 2.42567,-2.42566 2.38028,-6.08713 -0.0871,-7.02522 -2.70258,-1.02752 -5.54216,1.23656 -5.54216,4.41895 0,1.5092 0.21412,1.99102 1.28543,2.89246 1.69906,1.42967 2.69347,1.36415 4.34381,-0.28619 z"
       id="path13" />
    <path
       style="fill:#784421;fill-opacity:1;stroke:#000000;stroke-width:0;paint-order:markers fill stroke"
       d="m 576.98021,318.49777 c -5.25654,-5.25654 -5.49207,-19.254 -0.41615,-24.73102 4.01732,-4.33475 11.97538,-2.00023 13.63184,3.99895 0.41475,1.50212 0.48246,5.8206 0.15046,9.59664 -0.64724,7.36144 -2.00314,9.79633 -6.86344,12.32514 -3.13117,1.62915 -3.80761,1.50539 -6.50271,-1.18971 z"
       id="path14" />
    <path
       style="fill:#784421;fill-opacity:1;stroke:#000000;stroke-width:0;paint-order:markers fill stroke"
       d="m 653.42817,257.38027 c -0.62374,-1.96523 1.99899,-8.19722 4.31311,-10.24854 0.90111,-0.79878 2.82779,-1.69021 4.2815,-1.98096 2.32189,-0.46437 2.74681,-0.25587 3.49638,1.71563 2.49978,6.57492 -1.08345,12.16238 -7.79972,12.16238 -3.01695,0 -3.87235,-0.32861 -4.29127,-1.64851 z"
       id="path15" />
    <path
       style="fill:#784421;fill-opacity:1;stroke:#000000;stroke-width:0;paint-order:markers fill stroke"
       d="m 770.26956,339.68439 c -2.65023,-1.8563 -4.69288,-7.69624 -4.09244,-11.70029 1.15895,-7.72844 9.64285,-17.49802 17.14793,-19.7466 4.1524,-1.24409 8.86988,-0.33523 11.40175,2.19664 2.70418,2.70418 2.69599,8.4702 -0.0203,14.30402 -5.26189,11.30094 -18.27661,19.26107 -24.43691,14.94623 z"
       id="path16" />
    <path
       style="fill:#784421;fill-opacity:1;stroke:#000000;stroke-width:0;paint-order:markers fill stroke"
       d="m 663.20188,335.02648 c -2.52506,-1.01338 -4.34965,-5.56507 -4.34965,-10.85082 0,-5.63188 1.06537,-7.49209 4.29084,-7.49209 3.16301,0 8.2451,4.7165 8.23815,7.64553 -0.008,3.31583 -1.69039,8.25432 -3.39191,9.95584 -1.79848,1.79848 -2.05488,1.8382 -4.78743,0.74154 z"
       id="path17" />
    <path
       style="fill:#784421;fill-opacity:1;stroke:#000000;stroke-width:0;paint-order:markers fill stroke"
       d="m 671.71986,412.97099 c -2.72299,-1.81819 -3.71243,-8.23118 -1.88781,-12.23578 0.52513,-1.15254 2.58408,-2.85813 4.58656,-3.79941 6.43129,-3.02306 12.01223,-1.74995 12.00452,2.73844 -0.004,2.60813 -2.97817,7.12295 -5.4262,8.23835 -1.14997,0.52396 -2.09086,1.19741 -2.09086,1.49656 0,0.29914 -0.76667,1.36681 -1.70371,2.37261 -1.72706,1.85378 -3.81043,2.3057 -5.4825,1.18923 z"
       id="path18" />
    <path
       style="fill:#784421;fill-opacity:1;stroke:#000000;stroke-width:0;paint-order:markers fill stroke"
       d="m 757.40484,228.94919 c -2.1316,-0.85884 -1.44845,-5.03449 0.89561,-5.47423 1.25754,-0.23592 2.19323,0.22958 2.44031,1.21403 0.25119,1.00081 -0.62999,3.22275 -1.57191,3.96367 -0.83923,0.66013 -0.855,0.66278 -1.76401,0.29653 z"
       id="path19" />
    <path
       style="fill:#784421;fill-opacity:1;stroke:#000000;stroke-width:0;paint-order:markers fill stroke"
       d="m 704.06947,290.82458 c -1.44926,-0.78648 -1.91965,-2.82779 -0.87043,-3.77732 0.73577,-0.66586 0.99895,-0.62056 1.87946,0.32349 1.44679,1.5512 1.75256,2.65407 0.95653,3.4501 -0.56726,0.56726 -0.92589,0.56794 -1.96556,0.004 z"
       id="path20" />
    <path
       style="fill:#784421;fill-opacity:1;stroke:#000000;stroke-width:0;paint-order:markers fill stroke"
       d="m 609.57906,375.43872 c -0.4604,-0.86026 -0.21054,-3.69219 0.44648,-5.06049 1.0675,-2.22315 3.94382,-3.26943 5.53523,-2.01348 2.25584,1.7803 0.49843,5.23257 -3.61319,7.0978 -1.66501,0.75533 -1.95308,0.75243 -2.36852,-0.0238 z"
       id="path21" />
    <path
       style="fill:#784421;fill-opacity:1;stroke:#000000;stroke-width:0;paint-order:markers fill stroke"
       d="m 669.96313,466.59264 c -0.68238,-0.68238 -0.7446,-0.92158 -0.58661,-2.2555 0.23697,-2.00089 1.63805,-4.90858 3.1617,-6.56154 1.57381,-1.70738 2.71532,-1.82669 4.11221,-0.4298 1.98952,1.98953 2.73951,4.97033 1.66368,6.61225 -0.98437,1.50235 -4.82765,3.39793 -6.88928,3.39793 -0.3841,0 -1.04186,-0.3435 -1.4617,-0.76334 z"
       id="path22" />
    <path
       style="fill:#784421;fill-opacity:1;stroke:#000000;stroke-width:0;paint-order:markers fill stroke"
       d="m 784.57874,398.66969 c -1.02614,-0.71874 -1.37307,-2.29799 -1.17322,-5.34054 0.0983,-1.49654 0.39985,-3.2736 0.6701,-3.94901 l 0.49136,-1.22803 0.7295,0.68022 c 0.88019,0.82073 1.96214,2.88058 2.43456,4.63501 0.48502,1.80125 -0.0414,3.91059 -1.22438,4.90601 -1.03148,0.86793 -1.0974,0.87806 -1.92792,0.29634 z"
       id="path23" />
    <path
       style="fill:#c68b58;fill-opacity:1;stroke:#000000;stroke-width:0;paint-order:markers fill stroke"
       d="m 648.40752,483.77725 c -6.43394,-0.89504 -17.78987,-2.17719 -25.2354,-2.84923 -8.0331,-0.72507 -14.48822,-1.72215 -15.87596,-2.45225 -1.28625,-0.6767 -4.21868,-3.17489 -6.51651,-5.55154 -4.75554,-4.91864 -11.0898,-9.4594 -18.38269,-13.17778 -5.85413,-2.98481 -8.32772,-5.12331 -15.37383,-13.29126 -3.25592,-3.77431 -7.74263,-7.69455 -12.06255,-10.53961 -9.24879,-6.09113 -16.61293,-13.59079 -19.69115,-20.0535 -2.70016,-5.66899 -4.70388,-15.43836 -5.44107,-26.5286 -0.26131,-3.93122 -1.22471,-10.69939 -2.14088,-15.04038 -2.35677,-11.16683 -2.13404,-15.98551 1.68819,-36.52297 3.91856,-21.05508 4.69201,-23.70148 9.08236,-31.07595 2.32893,-3.9119 3.78358,-7.84754 5.10968,-13.82455 1.01963,-4.59567 2.4403,-9.83661 3.15704,-11.64654 1.30316,-3.29079 13.21392,-18.77312 22.10364,-28.73167 2.59428,-2.90619 7.36939,-9.18079 10.61135,-13.94354 3.24197,-4.76276 7.00047,-9.4471 8.35223,-10.40964 1.35176,-0.96253 6.51902,-3.26538 11.48281,-5.11743 4.96378,-1.85204 12.27034,-5.41217 16.2368,-7.91139 9.11966,-5.7462 14.5851,-7.78211 31.22478,-11.63146 7.35308,-1.70102 20.1374,-4.96503 28.40961,-7.25334 19.92333,-5.51133 24.34327,-5.8038 38.43653,-2.54333 8.99691,2.08143 13.33214,2.59235 25.24205,2.97481 16.32192,0.52415 16.35444,0.53435 24.47476,7.68115 3.53347,3.10983 8.20495,6.07419 13.36923,8.48364 4.36589,2.03695 13.39012,6.38915 20.05384,9.67157 15.60219,7.68533 17.43025,9.45707 47.43883,45.97737 3.93743,4.79184 11.76039,19.53287 13.83567,26.07096 2.37553,7.48401 8.24209,45.57532 7.65704,49.71681 -0.29215,2.06805 -2.42168,8.46021 -4.73228,14.2048 -2.31062,5.74459 -5.43939,13.85439 -6.95284,18.02178 -3.70053,10.18972 -6.461,15.46571 -11.9928,22.92148 -7.6123,10.25986 -18.68137,20.6789 -29.48155,27.75023 -5.34217,3.49775 -14.30454,9.78409 -19.9164,13.96966 -11.72491,8.74494 -13.47514,9.74593 -20.42743,11.6828 -3.61323,1.00662 -8.45871,3.67479 -16.69121,9.19101 -13.89025,9.30722 -15.64318,10.09787 -22.42291,10.11382 -6.97688,0.0164 -13.17232,1.5489 -31.15207,7.70565 l -15.04038,5.15023 -13.36923,0.21777 c -9.71239,0.1582 -16.56896,-0.22736 -25.0673,-1.40958 z m 30.26208,-17.90764 c 1.04919,-1.21975 1.90762,-2.96746 1.90762,-3.88378 0,-2.85738 -2.43357,-6.54633 -4.6926,-7.11331 -4.31564,-1.08316 -9.54496,7.1667 -7.70151,12.15002 0.65197,1.76243 1.10026,1.90777 4.6502,1.50763 2.87486,-0.32403 4.44037,-1.03769 5.83629,-2.66056 z m 3.36695,-55.71512 c 6.35928,-6.23477 8.01524,-10.51793 5.41702,-14.01114 -3.11128,-4.18296 -14.62126,-2.8269 -18.56544,2.18731 -1.27479,1.62064 -1.68014,3.3919 -1.68014,7.34183 0,6.71915 1.9685,9.61154 6.53637,9.60417 2.63436,-0.004 3.81745,-0.73505 8.29219,-5.12217 z M 788.31854,399.0458 c 0.54567,-0.65749 1.0242,-2.32333 1.06339,-3.70184 0.16653,-5.85695 -4.13135,-10.52614 -6.59179,-7.16128 -1.31748,1.80175 -1.4655,8.15839 -0.24317,10.44234 1.01399,1.89465 4.34672,2.13763 5.77157,0.42078 z M 614.65199,375.77395 c 4.839,-3.24974 4.09167,-9.79136 -1.11859,-9.79136 -2.76065,0 -5.65135,3.75597 -5.65135,7.34295 0,1.78256 0.25067,3.4917 0.55705,3.79807 1.05658,1.05659 3.38214,0.55139 6.21289,-1.34966 z m 166.61222,-34.33107 c 5.1497,-2.4194 11.8723,-9.05975 15.01192,-14.82826 2.7012,-4.963 3.33222,-12.34568 1.36977,-16.02575 -2.46811,-4.62825 -11.49625,-6.22001 -18.05284,-3.18288 -4.05972,1.88052 -10.84487,8.55271 -13.04326,12.82611 -3.36706,6.54514 -3.07842,14.59552 0.6836,19.06644 3.8647,4.59293 7.60291,5.16424 14.03081,2.14434 z m -112.18503,-5.02657 c 3.65381,-2.77426 5.30345,-13.29046 2.67377,-17.04487 -3.04159,-4.34246 -10.51009,-5.79158 -13.3979,-2.59961 -2.08694,2.30675 -2.1315,11.60574 -0.0744,15.52808 2.53063,4.82527 7.41347,6.6866 10.79854,4.1164 z M 586.64657,320.4735 c 4.32523,-2.834 5.353,-5.89035 5.3564,-15.92876 0.004,-10.36055 -0.73581,-12.27511 -5.51049,-14.2701 -4.65293,-1.94412 -7.69199,-1.49584 -10.77756,1.58973 -3.24136,3.24136 -4.58893,7.46252 -4.58893,14.37449 0,6.74453 1.32078,11.06777 4.28767,14.03467 2.13846,2.13846 2.91379,2.40854 5.8021,2.02114 1.8336,-0.24594 4.27746,-1.06546 5.43081,-1.82117 z m 121.36294,-30.3884 c 0.3446,-2.43305 -2.15039,-5.30833 -4.32249,-4.98133 -2.53603,0.38178 -3.56266,2.64684 -2.37806,5.24673 0.83252,1.8272 1.47088,2.16141 3.71489,1.94494 2.10712,-0.20326 2.771,-0.69474 2.98566,-2.21034 z m -42.4084,-31.82762 c 2.09135,-2.09135 2.44246,-3.08561 2.44246,-6.91649 0,-5.66932 -1.62243,-8.18932 -5.26973,-8.18505 -5.6402,0.007 -11.37154,6.3639 -11.42345,12.67108 -0.0362,4.40041 0.58456,4.87291 6.40214,4.87291 4.8611,0 5.65238,-0.24624 7.84858,-2.44245 z M 761.163,228.76209 c 2.73002,-3.89765 0.77862,-8.01354 -3.3125,-6.98673 -2.85495,0.71654 -4.32808,3.96952 -3.05899,6.75487 1.22057,2.67885 4.57211,2.80082 6.37149,0.23186 z"
       id="path24" />
  </g>
</svg>
