<?xml version="1.0" encoding="UTF-8" standalone="no"?>
<!-- Created with Inkscape (http://www.inkscape.org/) -->

<svg
   version="1.1"
   id="svg1"
   width="1600"
   height="715"
   viewBox="0 0 1600 715"
   sodipodi:docname="doughnut.svg"
   inkscape:version="1.4.3 (0d15f75, 2025-12-25)"
   xmlns:inkscape="http://www.inkscape.org/namespaces/inkscape"
   xmlns:sodipodi="http://sodipodi.sourceforge.net/DTD/sodipodi-0.dtd"
   xmlns="http://www.w3.org/2000/svg"
   xmlns:svg="http://www.w3.org/2000/svg">
  <defs
     id="defs1">
    <inkscape:path-effect
       effect="bspline"
       id="path-effect11"
       is_visible="true"
       lpeversion="1.3"
       weight="33.333333"
       steps="2"
       helper_size="0"
       apply_no_weight="true"
       apply_with_weight="true"
       only_selected="false"
       uniform="false" />
    <inkscape:path-effect
       effect="bspline"
       id="path-effect10"
       is_visible="true"
       lpeversion="1.3"
       weight="33.333333"
       steps="2"
       helper_size="0"
       apply_no_weight="true"
       apply_with_weight="true"
       only_selected="false"
       uniform="false" />
    <inkscape:path-effect
       effect="bspline"
       id="path-effect9"
       is_visible="true"
       lpeversion="1.3"
       weight="33.333333"
       steps="2"
       helper_size="0"
       apply_no_weight="true"
       apply_with_weight="true"
       only_selected="false"
       uniform="false" />
    <inkscape:path-effect
       effect="bspline"
       id="path-effect8"
       is_visible="true"
       lpeversion="1.3"
       weight="33.333333"
       steps="2"
       helper_size="0"
       apply_no_weight="true"
       apply_with_weight="true"
       only_selected="false"
       uniform="false" />
    <inkscape:path-effect
       effect="bspline"
       id="path-effect7"
       is_visible="true"
       lpeversion="1.3"
       weight="33.333333"
       steps="2"
       helper_size="0"
       apply_no_weight="true"
       apply_with_weight="true"
       only_selected="false"
       uniform="false" />
    <inkscape:path-effect
       effect="bspline"
       id="path-effect6"
       is_visible="true"
       lpeversion="1.3"
       weight="33.333333"
       steps="2"
       helper_size="0"
       apply_no_weight="true"
       apply_with_weight="true"
       only_selected="false"
       uniform="false" />
    <inkscape:path-effect
       effect="bspline"
       id="path-effect5"
       is_visible="true"
       lpeversion="1.3"
       weight="33.333333"
       steps="2"
       helper_size="0"
       apply_no_weight="true"
       apply_with_weight="true"
       only_selected="false"
       uniform="false" />
    <inkscape:path-effect
       effect="bspline"
       id="path-effect4"
       is_visible="true"
       lpeversion="1.3"
       weight="33.333333"
       steps="2"
       helper_size="0"
       apply_no_weight="true"
       apply_with_weight="true"
       only_selected="false"
       uniform="false" />
    <inkscape:path-effect
       effect="bspline"
       id="path-effect3"
       is_visible="true"
       lpeversion="1.3"
       weight="33.333333"
       steps="2"
       helper_size="0"
       apply_no_weight="true"
       apply_with_weight="true"
       only_selected="false"
       uniform="false" />
    <inkscape:path-effect
       effect="bspline"
       id="path-effect2"
       is_visible="true"
       lpeversion="1.3"
       weight="33.333333"
       steps="2"
       helper_size="0"
       apply_no_weight="true"
       apply_with_weight="true"
       only_selected="false"
       uniform="false" />
    <inkscape:path-effect
       effect="bspline"
       id="path-effect1"
       is_visible="true"
       lpeversion="1.3"
       weight="33.333333"
       steps="2"
       helper_size="0"
       apply_no_weight="true"
       apply_with_weight="true"
       only_selected="false"
       uniform="false" />
  </defs>
  <sodipodi:namedview
     id="namedview1"
     pagecolor="#ffffff"
     bordercolor="#000000"
     borderopacity="0.25"
     inkscape:showpageshadow="2"
     inkscape:pageopacity="0.0"
     inkscape:pagecheckerboard="0"
     inkscape:deskcolor="#d1d1d1"
     showgrid="false"
     inkscape:zoom="0.59838911"
     inkscape:cx="857.30169"
     inkscape:cy="299.97203"
     inkscape:window-width="1920"
     inkscape:window-height="991"
     inkscape:window-x="-9"
     inkscape:window-y="-9"
     inkscape:window-maximized="1"
     inkscape:current-layer="g1" />
  <g
     inkscape:groupmode="layer"
     inkscape:label="Image"
     id="g1">
    <path
       style="fill:#ffccaa;stroke:#000000;stroke-width:1px;stroke-linecap:butt;stroke-linejoin:miter;stroke-opacity:1;fill-opacity:1"
       d="m 622.08685,397.73451 c 1.39263,5.64014 2.78526,11.28028 6.5106,17.19901 3.72534,5.91874 9.78315,12.1158 19.46204,16.88559 9.6789,4.76978 22.97823,8.11202 37.67061,9.60909 14.69239,1.49708 30.77692,1.14893 47.55826,0.0348 16.78134,-1.11412 34.25847,-2.99413 52.39764,-6.7891 18.13916,-3.79497 36.93926,-9.50463 50.69155,-14.62258 13.75228,-5.11796 22.45603,-9.64391 28.47918,-14.58779 6.02315,-4.94388 9.36539,-10.30539 11.07136,-13.54326 1.70597,-3.23787 1.7756,-4.35195 1.84523,-5.46606"
       id="path2"
       inkscape:path-effect="#path-effect2"
       inkscape:original-d="m 622.08685,397.73451 c 1.39263,5.64014 2.78526,11.28028 4.17789,16.92043 6.05805,6.19732 12.11586,12.39438 18.17379,18.59158 13.29986,3.34237 26.59919,6.68461 39.89879,10.02692 16.08517,-0.34816 32.1697,-0.69631 48.25455,-1.04447 17.47783,-1.88009 34.95496,-3.7601 52.43244,-5.64014 18.80085,-5.70989 37.60095,-11.41955 56.40143,-17.12933 8.70409,-4.52613 17.40784,-9.05208 26.11177,-13.57812 3.34237,-5.36172 6.68461,-10.72323 10.02692,-16.08485 0.0696,-1.11412 0.13926,-2.2282 0.20889,-3.34231" />
    <path
       id="path1"
       style="fill:#ffcaff;stroke:#000000;stroke-width:1px;stroke-linecap:butt;stroke-linejoin:miter;stroke-opacity:1;fill-opacity:1"
       d="M 746.27539 291.38086 C 737.50194 291.63328 728.62215 292.27693 720.12695 293.63477 C 703.13655 296.35045 687.68073 301.92174 672.7793 309.51172 C 657.87788 317.10169 643.53438 326.71031 633.85547 336.04102 C 624.17656 345.37172 619.16285 354.4243 616.23828 363.26758 C 613.31371 372.11086 612.47816 380.74462 611.64258 389.37891 L 611.99023 391.32812 C 612.33839 393.27781 613.03425 397.178 618.74414 397.80469 C 624.45402 398.43139 635.17737 395.78455 642.14062 397.31641 C 649.10387 398.84827 652.30723 404.55835 656.76367 407.13477 C 661.22011 409.71119 666.92968 409.15453 676.12109 408.17969 C 685.31249 407.20484 697.98531 405.8111 709.47461 407.06445 C 720.96392 408.3178 731.26945 412.21871 738.85938 412.21875 C 746.44931 412.21879 751.32274 408.31859 758.56445 405.74219 C 765.80616 403.16579 775.41547 401.91163 787.94922 402.25977 C 800.48297 402.60792 815.94032 404.55838 825.82812 404.14062 C 835.71594 403.72285 840.03328 400.93718 844.83789 397.10742 C 849.6425 393.27767 854.93507 388.40362 861.48047 386.73242 C 868.02588 385.06121 875.82317 386.59423 881.11523 386.24609 C 886.4073 385.89794 889.19277 383.66988 890.93359 377.26367 C 892.67441 370.85745 893.37141 360.27296 889.40234 349.61914 C 885.43327 338.96532 876.79799 328.24222 863.70703 318.8418 C 850.61606 309.44137 833.06972 301.36538 817.40234 296.97852 C 801.73497 292.59165 787.94973 291.89436 771.79492 291.47656 C 763.71752 291.26766 755.04884 291.12844 746.27539 291.38086 z M 741.60352 327.67383 C 742.14008 327.65723 742.6666 327.70671 743.17578 327.82422 C 745.89143 328.45093 748.11875 331.02712 750.27734 332.80273 C 752.43594 334.57835 754.52517 335.55444 757.10156 334.92773 C 759.67795 334.30103 762.74146 332.07301 764.86523 331.55078 C 766.98901 331.02855 768.17376 332.21198 768.76562 333.91797 C 769.35749 335.62396 769.35727 337.85142 771.3418 339.03516 C 773.32633 340.21889 777.29497 340.35853 778.89648 341.47266 C 780.498 342.58678 779.73232 344.67573 777.12109 346.06836 C 774.50987 347.46099 770.05335 348.15779 766.91992 349.51562 C 763.78649 350.87346 761.9761 352.89175 758.5293 354.00586 C 755.08249 355.11997 750.00044 355.32838 745.64844 355.95508 C 741.29644 356.58177 737.67505 357.62629 734.40234 357.55664 C 731.12964 357.487 728.20546 356.30289 726.04688 355.11914 C 723.88829 353.9354 722.49513 352.7533 720.19727 352.0918 C 717.8994 351.4303 714.69646 351.29008 712.81641 349.79297 C 710.93636 348.29586 710.37984 345.44179 711.07617 344.08398 C 711.7725 342.72618 713.72254 342.86462 715.70703 342.20312 C 717.69153 341.54163 719.70918 340.07972 721.72852 340.04492 C 723.74785 340.01012 725.76812 341.40175 727.82227 339.93945 C 729.87641 338.47715 731.9653 334.16188 734.61133 331.3418 C 736.76122 329.05048 739.2784 327.74574 741.60352 327.67383 z " />
    <path
       style="fill:#ff5555;stroke:#000000;stroke-width:1px;stroke-linecap:butt;stroke-linejoin:miter;stroke-opacity:1;fill-opacity:1"
       d="m 664.562,343.66573 c 2.2282,-1.42744 2.4371,0.31334 0.3133,2.61121 -2.1238,2.29786 -6.58012,5.15269 -6.68453,4.28225 -0.1044,-0.87043 4.14303,-5.46601 6.37123,-6.89346 z"
       id="path4"
       inkscape:path-effect="#path-effect4"
       inkscape:original-d="m 666.58131,340.49751 c 0.2089,1.74078 0.41779,3.48156 0.62668,5.22235 -4.45649,2.85494 -8.91281,5.70977 -13.36922,8.56466 4.2476,-4.59576 8.49503,-9.19134 12.74254,-13.78701 z" />
    <path
       style="fill:#ff5555;stroke:#000000;stroke-width:1px;stroke-linecap:butt;stroke-linejoin:miter;stroke-opacity:1;fill-opacity:1"
       d="m 705.99268,312.33161 c -0.97484,1.28818 -2.646,6.58016 -2.50671,7.93795 0.13928,1.35779 2.08892,-1.21852 2.92449,-3.86454 0.83558,-2.64602 0.55706,-5.36159 -0.41778,-4.07341 z"
       id="path5"
       inkscape:path-effect="#path-effect5"
       inkscape:original-d="m 706.68899,308.3278 c -1.67115,5.29199 -3.3423,10.58397 -5.01346,15.87596 1.94972,-2.57641 3.89936,-5.15272 5.84904,-7.72908 -0.27853,-2.71568 -0.55705,-5.43125 -0.83558,-8.14688 z" />
    <path
       style="fill:#ff5555;stroke:#000000;stroke-width:1px;stroke-linecap:butt;stroke-linejoin:miter;stroke-opacity:1;fill-opacity:1"
       d="m 674.62374,378.02882 c -1.00966,0.2089 -2.95934,3.27268 -2.9245,4.59567 0.0348,1.32299 2.05411,0.90522 3.02895,-0.6267 0.97484,-1.53192 0.9052,-4.17786 -0.10445,-3.96897 z"
       id="path6"
       inkscape:path-effect="#path-effect6"
       inkscape:original-d="m 675.56376,375.17394 c -1.94968,3.06378 -3.89936,6.12756 -5.84904,9.19134 2.01936,-0.41779 4.03863,-0.83557 6.05794,-1.25336 -0.0696,-2.64605 -0.13927,-5.29199 -0.2089,-7.93798 z" />
    <path
       style="fill:#ff5555;stroke:#000000;stroke-width:1px;stroke-linecap:butt;stroke-linejoin:miter;stroke-opacity:1;fill-opacity:1"
       d="m 790.24666,306.09959 c -1.32299,1.25337 -3.06378,5.29199 -3.06376,6.99795 2e-5,1.70597 1.74077,1.0793 3.06377,-0.17409 1.32301,-1.25338 2.2282,-3.13339 2.22819,-4.83938 -1e-5,-1.70598 -0.9052,-3.23784 -2.2282,-1.98448 z"
       id="path7"
       inkscape:path-effect="#path-effect7"
       inkscape:original-d="m 790.66445,303.31434 c -1.74078,4.03862 -3.48157,8.07724 -5.22235,12.11586 1.74082,-0.62669 3.48157,-1.25336 5.22235,-1.88004 0.90523,-1.88009 1.81042,-3.7601 2.71563,-5.64015 -0.90523,-1.53192 -1.81042,-3.06378 -2.71563,-4.59567 z" />
    <path
       style="fill:#ff5555;stroke:#000000;stroke-width:1px;stroke-linecap:butt;stroke-linejoin:miter;stroke-opacity:1;fill-opacity:1"
       d="m 752.75016,378.82959 c -0.73113,-0.73113 -6.37127,2.19338 -8.4602,4.38679 -2.08893,2.1934 -0.6267,3.65563 2.19341,2.19333 2.82012,-1.4623 6.99792,-5.84899 6.26679,-6.58012 z"
       id="path8"
       inkscape:path-effect="#path-effect8"
       inkscape:original-d="m 757.65917,375.17394 c -5.64014,2.92452 -11.28028,5.84904 -16.92043,8.77355 1.46229,1.46229 2.92452,2.92452 4.38678,4.38678 4.17797,-4.38686 8.35577,-8.77355 12.53365,-13.16033 z" />
    <path
       style="fill:#ff5555;stroke:#000000;stroke-width:1px;stroke-linecap:butt;stroke-linejoin:miter;stroke-opacity:1;fill-opacity:1"
       d="m 829.44914,361.38692 c -0.0696,1.67116 3.76009,5.84904 5.74459,6.26679 1.9845,0.41776 2.12376,-2.92448 0.20885,-5.01343 -1.9149,-2.08895 -5.88381,-2.92451 -5.95344,-1.25336 z"
       id="path9"
       inkscape:path-effect="#path-effect9"
       inkscape:original-d="m 825.54978,358.88019 c 3.82973,4.17789 7.65945,8.35577 11.48918,12.53365 0.13926,-3.34237 0.27852,-6.68461 0.41779,-10.02692 -3.96907,-0.83559 -7.93798,-1.67115 -11.90697,-2.50673 z" />
    <path
       style="fill:#ff5555;stroke:#000000;stroke-width:1px;stroke-linecap:butt;stroke-linejoin:miter;stroke-opacity:1;fill-opacity:1"
       d="m 802.60624,371.51829 c -2.40229,0.80076 -6.02312,4.63049 -5.43121,5.74457 0.59192,1.11409 5.39639,-0.4874 7.2068,-2.40229 1.8104,-1.91488 0.62669,-4.14304 -1.77559,-3.34228 z"
       id="path10"
       inkscape:path-effect="#path-effect10"
       inkscape:original-d="m 803.82479,368.48932 c -3.62084,3.82973 -7.24167,7.65946 -10.8625,11.48918 4.80466,-1.60155 9.60913,-3.20304 14.4137,-4.80456 -1.18376,-2.22825 -2.36747,-4.45641 -3.5512,-6.68462 z" />
    <path
       style="fill:#ff5555;stroke:#000000;stroke-width:1px;stroke-linecap:butt;stroke-linejoin:miter;stroke-opacity:1;fill-opacity:1"
       d="m 845.56881,324.726 c 0.80076,1.28818 6.16237,3.72527 8.0424,3.65562 1.88004,-0.0697 0.27855,-2.64597 -2.4023,-3.86452 -2.68085,-1.21854 -6.44087,-1.07928 -5.6401,0.2089 z"
       id="path11"
       inkscape:path-effect="#path-effect11"
       inkscape:original-d="m 841.00795,323.57708 c 5.36162,2.4371 10.72323,4.87419 16.08485,7.31129 -1.60155,-2.57641 -3.20304,-5.15272 -4.80457,-7.72908 -3.76017,0.13926 -7.52019,0.27852 -11.28028,0.41779 z" />
  </g>
</svg>
