<?xml version="1.0" encoding="UTF-8" standalone="no"?>
<!-- Created with Inkscape (http://www.inkscape.org/) -->

<svg
   version="1.1"
   id="svg1"
   width="1600"
   height="715"
   viewBox="0 0 1600 715"
   sodipodi:docname="fly.svg"
   inkscape:version="1.4.3 (0d15f75, 2025-12-25)"
   xmlns:inkscape="http://www.inkscape.org/namespaces/inkscape"
   xmlns:sodipodi="http://sodipodi.sourceforge.net/DTD/sodipodi-0.dtd"
   xmlns="http://www.w3.org/2000/svg"
   xmlns:svg="http://www.w3.org/2000/svg">
  <defs
     id="defs1">
    <inkscape:path-effect
       effect="bspline"
       id="path-effect2"
       is_visible="true"
       lpeversion="1.3"
       weight="33.333333"
       steps="2"
       helper_size="0"
       apply_no_weight="true"
       apply_with_weight="true"
       only_selected="false"
       uniform="false" />
    <inkscape:path-effect
       effect="bspline"
       id="path-effect1"
       is_visible="true"
       lpeversion="1.3"
       weight="33.333333"
       steps="2"
       helper_size="0"
       apply_no_weight="true"
       apply_with_weight="true"
       only_selected="false"
       uniform="false" />
    <inkscape:path-effect
       effect="bspline"
       id="path-effect2-4"
       is_visible="true"
       lpeversion="1.3"
       weight="33.333333"
       steps="2"
       helper_size="0"
       apply_no_weight="true"
       apply_with_weight="true"
       only_selected="false"
       uniform="false" />
  </defs>
  <sodipodi:namedview
     id="namedview1"
     pagecolor="#ffffff"
     bordercolor="#000000"
     borderopacity="0.25"
     inkscape:showpageshadow="2"
     inkscape:pageopacity="0.0"
     inkscape:pagecheckerboard="0"
     inkscape:deskcolor="#d1d1d1"
     inkscape:zoom="1.528933"
     inkscape:cx="697.87231"
     inkscape:cy="309.03905"
     inkscape:window-width="1920"
     inkscape:window-height="991"
     inkscape:window-x="-9"
     inkscape:window-y="-9"
     inkscape:window-maximized="1"
     inkscape:current-layer="g1" />
  <g
     inkscape:groupmode="layer"
     inkscape:label="Image"
     id="g1">
    <path
       style="fill:#e6e6e6;stroke:#000000;stroke-width:1px;stroke-linecap:butt;stroke-linejoin:miter;stroke-opacity:1"
       d="m 737.27631,334.81902 c -0.15416,-1.75358 0.69372,-4.68265 2.11974,-8.03569 1.42601,-3.35305 3.43006,-7.12992 5.85813,-10.44441 2.42807,-3.3145 5.28,-6.16643 7.70806,-7.97783 2.42806,-1.8114 4.43211,-2.58219 6.28207,-2.42802 1.84995,0.15417 3.54569,1.23327 5.06804,3.21813 1.52236,1.98485 2.87124,4.87532 4.00819,7.24557 1.13695,2.37025 2.0619,4.22015 2.75563,6.14718 0.69373,1.92704 1.15621,3.93109 0.19267,5.66542 -0.96353,1.73433 -3.35298,3.19883 -6.78311,4.5863 -3.43014,1.38747 -7.90072,2.69781 -11.58135,3.41081 -3.68063,0.71299 -6.5711,0.82861 -8.63302,0.98277 -2.06192,0.15417 -3.29518,0.34687 -4.48994,0.15416 -1.19477,-0.19271 -2.35095,-0.7708 -2.50511,-2.52439 z"
       id="path2-2"
       inkscape:path-effect="#path-effect2-4"
       inkscape:original-d="m 736.27426,335.9945 c 0.84788,-2.92906 1.69577,-5.85813 2.54366,-8.78719 2.00414,-3.77703 4.00819,-7.5539 6.01229,-11.33085 2.85204,-2.85204 5.70397,-5.70397 8.55595,-8.55595 2.00414,-0.77083 4.00819,-1.54162 6.01229,-2.31242 1.69581,1.07915 3.39155,2.15825 5.08732,3.23738 1.34894,2.89058 2.69782,5.78105 4.04673,8.67157 0.92499,1.84998 1.84994,3.69988 2.77491,5.54981 0.46249,2.00414 0.92497,4.00819 1.38745,6.01229 -2.38955,1.46456 -4.779,2.92906 -7.1685,4.3936 -4.47077,1.31039 -8.94135,2.62074 -13.41203,3.93111 -2.89058,0.11562 -5.78105,0.23124 -8.67157,0.34686 -1.23332,0.19271 -2.46658,0.38541 -3.69987,0.57811 -1.15624,-0.57812 -2.31242,-1.15621 -3.46863,-1.73432 z"
       transform="rotate(180,732.50617,341.03255)" />
    <path
       style="fill:#4d4d4d;stroke:#000000;stroke-width:1px;stroke-linecap:butt;stroke-linejoin:miter;stroke-opacity:1;fill-opacity:1"
       d="m 727.74064,340.76052 c -0.65405,3.70629 1.09008,10.02878 3.37929,14.28013 2.28921,4.25136 5.12337,6.43148 7.63058,7.19453 2.50722,0.76306 4.68735,0.10902 6.54051,-1.52613 1.85316,-1.63516 3.37925,-4.25131 3.92429,-6.64952 0.54504,-2.3982 0.10901,-4.57833 -1.19912,-7.08555 -1.30812,-2.50723 -3.48824,-5.34139 -5.88646,-7.41256 -2.39821,-2.07118 -5.01436,-3.37926 -7.84861,-3.48826 -2.83425,-0.10899 -5.88643,0.98107 -6.54048,4.68736 z"
       id="path1"
       inkscape:path-effect="#path-effect1"
       inkscape:original-d="m 725.34245,338.14432 c 1.74414,6.32249 3.48827,12.64498 5.23241,18.96747 2.83428,2.18022 5.66844,4.36034 8.50266,6.54051 2.18021,-0.65406 4.36034,-1.3081 6.54051,-1.96215 1.52615,-2.61626 3.05224,-5.23241 4.57836,-7.84861 -0.43605,-2.18021 -0.87207,-4.36034 -1.30811,-6.54051 -2.18021,-2.83428 -4.36033,-5.66844 -6.5405,-8.50266 -2.61626,-1.30813 -5.23241,-2.61621 -7.84861,-3.92431 -3.0523,1.09011 -6.10448,2.18017 -9.15672,3.27026 z" />
    <path
       style="fill:#e6e6e6;stroke:#000000;stroke-width:1px;stroke-linecap:butt;stroke-linejoin:miter;stroke-opacity:1"
       d="m 737.27631,334.81902 c -0.15416,-1.75358 0.69372,-4.68265 2.11974,-8.03569 1.42601,-3.35305 3.43006,-7.12992 5.85813,-10.44441 2.42807,-3.3145 5.28,-6.16643 7.70806,-7.97783 2.42806,-1.8114 4.43211,-2.58219 6.28207,-2.42802 1.84995,0.15417 3.54569,1.23327 5.06804,3.21813 1.52236,1.98485 2.87124,4.87532 4.00819,7.24557 1.13695,2.37025 2.0619,4.22015 2.75563,6.14718 0.69373,1.92704 1.15621,3.93109 0.19267,5.66542 -0.96353,1.73433 -3.35298,3.19883 -6.78311,4.5863 -3.43014,1.38747 -7.90072,2.69781 -11.58135,3.41081 -3.68063,0.71299 -6.5711,0.82861 -8.63302,0.98277 -2.06192,0.15417 -3.29518,0.34687 -4.48994,0.15416 -1.19477,-0.19271 -2.35095,-0.7708 -2.50511,-2.52439 z"
       id="path2"
       inkscape:path-effect="#path-effect2"
       inkscape:original-d="m 736.27426,335.9945 c 0.84788,-2.92906 1.69577,-5.85813 2.54366,-8.78719 2.00414,-3.77703 4.00819,-7.5539 6.01229,-11.33085 2.85204,-2.85204 5.70397,-5.70397 8.55595,-8.55595 2.00414,-0.77083 4.00819,-1.54162 6.01229,-2.31242 1.69581,1.07915 3.39155,2.15825 5.08732,3.23738 1.34894,2.89058 2.69782,5.78105 4.04673,8.67157 0.92499,1.84998 1.84994,3.69988 2.77491,5.54981 0.46249,2.00414 0.92497,4.00819 1.38745,6.01229 -2.38955,1.46456 -4.779,2.92906 -7.1685,4.3936 -4.47077,1.31039 -8.94135,2.62074 -13.41203,3.93111 -2.89058,0.11562 -5.78105,0.23124 -8.67157,0.34686 -1.23332,0.19271 -2.46658,0.38541 -3.69987,0.57811 -1.15624,-0.57812 -2.31242,-1.15621 -3.46863,-1.73432 z" />
  </g>
</svg>
