<?xml version="1.0" encoding="UTF-8" standalone="no"?>
<!-- Created with Inkscape (http://www.inkscape.org/) -->

<svg
   version="1.1"
   id="svg1"
   width="1600"
   height="715"
   viewBox="0 0 1600 715"
   sodipodi:docname="hotdog.svg"
   inkscape:version="1.4.3 (0d15f75, 2025-12-25)"
   xmlns:inkscape="http://www.inkscape.org/namespaces/inkscape"
   xmlns:sodipodi="http://sodipodi.sourceforge.net/DTD/sodipodi-0.dtd"
   xmlns="http://www.w3.org/2000/svg"
   xmlns:svg="http://www.w3.org/2000/svg">
  <defs
     id="defs1">
    <inkscape:path-effect
       effect="bspline"
       id="path-effect17"
       is_visible="true"
       lpeversion="1.3"
       weight="33.333333"
       steps="2"
       helper_size="0"
       apply_no_weight="true"
       apply_with_weight="true"
       only_selected="false"
       uniform="false" />
    <inkscape:path-effect
       effect="bspline"
       id="path-effect8"
       is_visible="true"
       lpeversion="1.3"
       weight="33.333333"
       steps="2"
       helper_size="0"
       apply_no_weight="true"
       apply_with_weight="true"
       only_selected="false"
       uniform="false" />
    <inkscape:path-effect
       effect="bspline"
       id="path-effect7"
       is_visible="true"
       lpeversion="1.3"
       weight="33.333333"
       steps="2"
       helper_size="0"
       apply_no_weight="true"
       apply_with_weight="true"
       only_selected="false"
       uniform="false" />
    <inkscape:path-effect
       effect="bspline"
       id="path-effect6"
       is_visible="true"
       lpeversion="1.3"
       weight="33.333333"
       steps="2"
       helper_size="0"
       apply_no_weight="true"
       apply_with_weight="true"
       only_selected="false"
       uniform="false" />
    <inkscape:path-effect
       effect="bspline"
       id="path-effect5"
       is_visible="true"
       lpeversion="1.3"
       weight="33.333333"
       steps="2"
       helper_size="0"
       apply_no_weight="true"
       apply_with_weight="true"
       only_selected="false"
       uniform="false" />
    <inkscape:path-effect
       effect="bspline"
       id="path-effect4"
       is_visible="true"
       lpeversion="1.3"
       weight="33.333333"
       steps="2"
       helper_size="0"
       apply_no_weight="true"
       apply_with_weight="true"
       only_selected="false"
       uniform="false" />
    <inkscape:path-effect
       effect="bspline"
       id="path-effect3"
       is_visible="true"
       lpeversion="1.3"
       weight="33.333333"
       steps="2"
       helper_size="0"
       apply_no_weight="true"
       apply_with_weight="true"
       only_selected="false"
       uniform="false" />
    <inkscape:path-effect
       effect="bspline"
       id="path-effect2"
       is_visible="true"
       lpeversion="1.3"
       weight="33.333333"
       steps="2"
       helper_size="0"
       apply_no_weight="true"
       apply_with_weight="true"
       only_selected="false"
       uniform="false" />
    <inkscape:path-effect
       effect="bspline"
       id="path-effect1"
       is_visible="true"
       lpeversion="1.3"
       weight="33.333333"
       steps="2"
       helper_size="0"
       apply_no_weight="true"
       apply_with_weight="true"
       only_selected="false"
       uniform="false" />
  </defs>
  <sodipodi:namedview
     id="namedview1"
     pagecolor="#ffffff"
     bordercolor="#000000"
     borderopacity="0.25"
     inkscape:showpageshadow="2"
     inkscape:pageopacity="0.0"
     inkscape:pagecheckerboard="0"
     inkscape:deskcolor="#d1d1d1"
     showgrid="false"
     inkscape:zoom="0.84625"
     inkscape:cx="571.93501"
     inkscape:cy="400"
     inkscape:window-width="1920"
     inkscape:window-height="991"
     inkscape:window-x="-9"
     inkscape:window-y="-9"
     inkscape:window-maximized="1"
     inkscape:current-layer="layer1" />
  <g
     inkscape:groupmode="layer"
     inkscape:label="Image"
     id="g1" />
  <g
     inkscape:groupmode="layer"
     id="layer1"
     inkscape:label="layer2">
    <path
       style="fill:#f5f587;fill-opacity:1;stroke:#000000;stroke-width:1px;stroke-linecap:butt;stroke-linejoin:miter;stroke-opacity:1"
       d="m 526.63712,252.58493 c 4.33285,-5.02216 11.226,-10.33973 19.20246,-14.67261 7.97646,-4.33287 17.03585,-7.68091 27.67113,-8.7641 10.63528,-1.0832 22.84576,0.0985 33.57949,-0.78784 10.73372,-0.88629 19.99006,-3.84044 26.29241,-7.38553 6.30234,-3.5451 9.65038,-7.68091 16.05126,-12.4077 6.40088,-4.72678 15.85417,-10.04425 21.95956,-13.09694 6.10539,-3.05269 8.8626,-3.84047 16.14977,-7.09016 7.28717,-3.24969 19.10377,-8.96105 29.64054,-11.71831 10.53678,-2.75726 19.79312,-2.56031 27.27717,-0.5908 7.48406,1.96951 13.19542,5.71143 19.20237,8.37024 6.00696,2.6588 12.30915,4.23435 18.61152,4.92367 6.30238,0.68931 12.60457,0.49237 19.20238,0.68932 6.5978,0.19695 13.49082,0.78778 18.31606,2.16643 4.82523,1.37866 7.58244,3.54503 12.11229,4.72672 4.52985,1.18168 10.83204,1.37863 17.33136,1.47711 6.49933,0.0985 13.19541,0.0985 21.0734,-1.87104 7.87798,-1.96952 16.93737,-5.90838 23.43667,-8.37023 6.4993,-2.46186 10.43817,-3.44657 15.75582,-3.64352 5.31764,-0.19694 12.01371,0.39389 16.54352,0.88626 4.52982,0.49237 6.89314,0.88626 11.12757,1.96949 4.23443,1.08323 10.33967,2.85572 15.55882,4.72674 5.21915,1.87102 9.5519,3.84045 13.19546,4.82518 3.64355,0.98474 6.5977,0.98474 9.94584,0.49236 3.34814,-0.49237 7.09007,-1.47709 10.53668,-1.18166 3.44661,0.29544 6.5977,1.87099 9.11893,2.55595 2.52123,0.68496 4.41247,0.4793 7.0713,1.36558 2.6588,0.88628 6.085,2.86442 8.783,7.49712 2.6979,4.63269 4.6673,11.91959 5.3566,18.41892 0.6894,6.49933 0.099,12.21067 -0.3938,17.03592 -0.4924,4.82525 -0.8863,8.76412 0.3939,12.01376 1.2801,3.24964 4.2343,5.80993 8.6657,8.37027 4.4313,2.56033 10.3396,5.12059 16.3466,10.93061 6.007,5.81003 12.1122,14.86945 14.968,20.67943 2.8557,5.80998 2.4618,8.37025 3.1511,11.02905 0.6893,2.6588 2.4618,5.41601 3.5451,8.66569 1.0832,3.24968 1.477,6.99161 2.2648,10.73364 0.7878,3.74203 1.9695,7.48396 2.3634,10.63514 0.3939,3.15119 0,5.71145 -2.5604,6.49923 -2.5603,0.78779 -7.287,-0.19694 -12.9985,0.0985 -5.7115,0.29543 -12.4076,1.87098 -16.0511,4.33286 -3.6436,2.46187 -4.2344,5.8099 -4.136,10.63518 0.099,4.82528 0.8863,11.12746 1.5756,15.55881 0.6893,4.43134 1.2802,6.99161 -0.197,9.45347 -1.4771,2.46186 -5.0221,4.8252 -9.6504,8.27182 -4.6283,3.44662 -10.3397,7.97633 -14.5741,11.42294 -4.2344,3.4466 -6.9916,5.80992 -8.3702,10.04433 -1.37862,4.23441 -1.37862,10.33966 -1.37862,15.5588 0,5.21915 0,9.55191 -1.08323,13.09699 -1.08323,3.54508 -3.24961,6.30228 -7.58251,8.37024 -4.33291,2.06797 -10.83204,3.44657 -16.64204,4.03741 -5.81,0.59084 -10.93053,0.3939 -17.03597,0 -6.10543,-0.3939 -13.19539,-0.98474 -19.20234,-1.28016 -6.00694,-0.29542 -10.93052,-0.29542 -16.14968,10e-6 -5.21916,0.29542 -10.73358,0.88626 -14.8695,2.65881 -4.13592,1.77256 -6.89313,4.72671 -12.30926,7.484 -5.41613,2.75728 -13.49081,5.31755 -18.02061,7.09008 -4.5298,1.77253 -5.51452,2.75726 -9.45353,4.72676 -3.93901,1.9695 -10.83203,4.92365 -17.62678,6.89313 -6.79475,1.96949 -13.49082,2.9542 -19.39929,3.24962 -5.90847,0.29542 -11.029,-0.0985 -14.96797,-1.77255 -3.93898,-1.67408 -6.69619,-4.62823 -10.83214,-6.99162 -4.13595,-2.36338 -9.65036,-4.13587 -16.64207,-4.23433 -6.99172,-0.0985 -15.46028,1.47709 -21.36873,4.13591 -5.90846,2.65883 -9.2565,6.40075 -11.71835,9.55194 -2.46186,3.15118 -4.03741,5.71144 -7.48404,6.79465 -3.44663,1.08321 -8.7641,0.68932 -13.09697,0.39389 -4.33288,-0.29542 -7.68092,-0.49236 -9.84735,0.78782 -2.16643,1.28019 -3.15115,4.0374 -5.3176,5.41603 -2.16645,1.37863 -5.51449,1.37863 -8.07482,3.74205 -2.56034,2.36341 -4.33283,7.09005 -6.69622,10.04427 -2.3634,2.95423 -5.31755,4.13589 -8.86264,3.54502 -3.5451,-0.59087 -7.68091,-2.95419 -14.77111,-4.62825 -7.09021,-1.67406 -17.13432,-2.65878 -25.20922,-1.57553 -8.0749,1.08324 -14.18015,4.23434 -20.28557,7.8779 -6.10543,3.64356 -12.21067,7.77938 -18.71001,10.43818 -6.49933,2.6588 -13.39235,3.84046 -20.08862,5.02215 -6.69627,1.1817 -13.19541,2.36336 -18.41455,0.78774 -5.21914,-1.57563 -9.15801,-5.90838 -13.68785,-10.14279 -4.52984,-4.23441 -9.65037,-8.37022 -15.46038,-8.96103 -5.81001,-0.59081 -12.30914,2.36334 -18.02066,5.02215 -5.71152,2.65881 -10.63511,5.02213 -17.52835,6.00687 -6.89325,0.98473 -15.7557,0.59084 -20.38397,-4.13598 -4.62826,-4.72683 -5.02215,-13.78623 -4.23434,-20.28553 0.78781,-6.4993 2.75725,-10.43817 5.02217,-14.47563 2.26492,-4.03746 4.82518,-8.17327 5.41601,-12.60463 0.59082,-4.43136 -0.78778,-9.15801 -2.2649,-12.2107 -1.47712,-3.0527 -3.05267,-4.4313 -3.24961,-8.27184 -0.19693,-3.84053 0.98473,-10.14272 -0.29546,-16.54358 -1.2802,-6.40085 -5.02212,-12.89998 -8.46873,-18.51303 -3.44661,-5.61304 -6.5977,-10.33968 -8.46871,-15.7558 -1.87101,-5.41611 -2.46184,-11.52135 -2.75726,-16.93745 -0.29542,-5.4161 -0.29542,-10.14274 -1.1817,-14.18019 -0.88628,-4.03746 -2.65877,-7.38549 -3.84046,-12.99857 -1.18169,-5.61308 -1.77252,-13.49081 -0.29538,-19.20232 1.47714,-5.71151 5.02212,-9.25649 8.86264,-12.11225 3.84051,-2.85576 7.97632,-5.02213 9.45341,-8.37028 1.47709,-3.34815 0.29543,-7.87785 0.59087,-12.60463 0.29544,-4.72679 2.06793,-9.65037 4.5298,-13.3924 2.46188,-3.74202 5.61297,-6.30229 7.7794,-9.84738 2.16644,-3.5451 3.3481,-8.0748 6.40083,-10.93055 3.05273,-2.85575 7.97632,-4.03741 11.32444,-6.99166 3.34812,-2.95426 5.12061,-7.6809 9.45345,-12.70306 z"
       id="path8"
       inkscape:path-effect="#path-effect8"
       inkscape:original-d="m 524.07681,252.88035 c 6.89316,-5.31757 13.78631,-10.63515 20.67947,-15.95273 9.05976,-3.34817 18.11915,-6.69621 27.17873,-10.04431 12.21098,1.18171 24.42146,2.36337 36.6322,3.54505 9.25671,-2.95427 18.51305,-5.90842 27.76957,-8.86263 3.34817,-4.13598 6.69621,-8.27179 10.04431,-12.40768 9.45366,-5.31768 18.90695,-10.63515 28.36042,-15.95273 2.75731,-0.78781 5.51452,-1.57558 8.27178,-2.36337 11.81708,-5.71159 23.63368,-11.42294 35.45052,-17.13442 9.25671,0.19695 18.51305,0.3939 27.76957,0.59085 5.71159,3.74207 11.42295,7.48399 17.13442,11.22599 6.30244,1.57561 12.60463,3.15116 18.90694,4.72674 6.30244,-0.19695 12.60463,-0.3939 18.90694,-0.59084 6.8933,0.59085 13.78632,1.18168 20.67947,1.77252 2.75732,2.16647 5.51453,4.33284 8.27179,6.49926 6.30244,0.19695 12.60463,0.3939 18.90694,0.59085 6.69634,0 13.39242,0 20.08863,0 9.05976,-3.93903 18.11915,-7.8779 27.17873,-11.81684 3.93902,-0.98476 7.87789,-1.96948 11.81684,-2.95421 6.69634,0.59085 13.39241,1.18168 20.08862,1.77252 2.36342,0.3939 4.72674,0.78779 7.09011,1.18169 6.10549,1.77256 12.21073,3.54505 18.3161,5.31757 4.33293,1.96952 8.66568,3.93895 12.99852,5.90842 2.95427,0 5.90842,0 8.86263,0 3.74207,-0.98475 7.484,-1.96947 11.226,-2.95421 3.15122,1.57561 6.30231,3.15116 9.45347,4.72674 1.8913,-0.20566 3.78254,-0.41132 5.67377,-0.61697 3.1889,2.38953 6.7339,4.16202 10.279,5.93455 1.9695,7.28719 3.9389,14.5741 5.9084,21.86115 -0.5909,5.71159 -1.1817,11.42294 -1.7725,17.13442 -0.3939,3.93902 -0.7878,7.87789 -1.1817,11.81683 2.9542,2.56037 5.9084,5.12063 8.8626,7.68095 5.9085,2.56037 11.8168,5.12063 17.7253,7.68095 6.1054,9.05975 12.2107,18.11915 18.3161,27.17872 -0.3939,2.56037 -0.7878,5.12064 -1.1817,7.68095 1.7725,2.75732 3.545,5.51453 5.3176,8.27179 0.3939,3.74207 0.7877,7.484 1.1816,11.22599 1.1817,3.74208 2.3634,7.484 3.5451,11.226 -0.3939,2.56037 -0.7878,5.12063 -1.1817,7.68095 -4.7268,-0.98476 -9.4535,-1.96948 -14.1802,-2.95421 -6.6963,1.57561 -13.3924,3.15115 -20.0886,4.72673 -0.5909,3.34817 -1.1817,6.69621 -1.7726,10.04432 0.7878,6.30244 1.5756,12.60462 2.3634,18.90694 0.5909,2.56036 1.1817,5.12063 1.7725,7.68094 -3.5451,2.36342 -7.0901,4.72674 -10.6351,7.09011 -5.7116,4.52988 -11.423,9.05957 -17.1344,13.58936 -2.7574,2.36342 -5.5146,4.72674 -8.27182,7.09011 0,6.10548 0,12.21073 0,18.3161 0,4.33292 0,8.66568 0,12.99852 -2.16646,2.75732 -4.33284,5.51452 -6.49926,8.27179 -6.49939,1.37865 -12.99852,2.75726 -19.49779,4.13589 -5.12073,-0.19695 -10.24126,-0.3939 -15.36189,-0.59084 -7.09024,-0.59086 -14.1802,-1.18169 -21.27031,-1.77253 -4.92378,0 -9.84736,0 -14.77105,0 -5.51463,0.59086 -11.02905,1.18169 -16.54357,1.77253 -2.75732,2.95427 -5.51453,5.90842 -8.27179,8.86263 -8.075,2.56036 -16.14968,5.12063 -24.22452,7.68094 -0.98475,0.98476 -1.96947,1.96948 -2.95421,2.95421 -6.89329,2.95427 -13.78631,5.90842 -20.67947,8.86263 -6.69634,0.98476 -13.39241,1.96947 -20.08862,2.95421 -5.12073,-0.3939 -10.24126,-0.78779 -15.36189,-1.18168 -2.75732,-2.95427 -5.51453,-5.90842 -8.27179,-8.86263 -5.51464,-1.77256 -11.02905,-3.54505 -16.54357,-5.31758 -8.46891,1.57561 -16.93747,3.15116 -25.40621,4.72674 -3.34817,3.74207 -6.69621,7.48399 -10.04431,11.22599 -1.57561,2.56037 -3.15116,5.12063 -4.72674,7.68095 -5.31768,-0.3939 -10.63515,-0.78779 -15.95273,-1.18169 -3.34817,-0.19695 -6.69621,-0.39389 -10.04431,-0.59084 -0.98476,2.75732 -1.96948,5.51453 -2.95421,8.27179 -3.34817,0 -6.69621,0 -10.04432,0 -1.77256,4.72683 -3.54505,9.45347 -5.31757,14.18021 -2.95427,1.1817 -5.90842,2.36336 -8.86263,3.54505 -4.13598,-2.36342 -8.27179,-4.72674 -12.40768,-7.09011 -10.04452,-0.98475 -20.08863,-1.96947 -30.13294,-2.9542 -6.10549,3.15122 -12.21074,6.30231 -18.3161,9.45347 -6.10549,4.13597 -12.21074,8.27178 -18.3161,12.40768 -6.8933,1.1817 -13.78632,2.36337 -20.67947,3.54505 -6.49939,1.18171 -12.99853,2.36337 -19.49779,3.54505 -3.93902,-4.33293 -7.87789,-8.66568 -11.81684,-12.99852 -5.12073,-4.13598 -10.24126,-8.27179 -15.36189,-12.40768 -6.49939,2.95427 -12.99852,5.90842 -19.49778,8.86263 -4.92378,2.36341 -9.84737,4.72673 -14.77105,7.0901 -8.86281,-0.3939 -17.72526,-0.78779 -26.58789,-1.18168 -0.3939,-9.05976 -0.78779,-18.11916 -1.18168,-27.17873 1.96951,-3.93903 3.93895,-7.8779 5.90842,-11.81684 2.56036,-4.13598 5.12063,-8.27179 7.68094,-12.40768 -1.37866,-4.72683 -2.75726,-9.45348 -4.13589,-14.18021 -1.57561,-1.37866 -3.15116,-2.75726 -4.72674,-4.13589 1.18171,-6.30244 2.36337,-12.60463 3.54506,-18.90695 -3.74208,-6.49939 -7.484,-12.99852 -11.226,-19.49778 -3.15122,-4.72683 -6.30232,-9.45347 -9.45347,-14.18021 -0.59086,-6.10549 -1.18169,-12.21073 -1.77253,-18.3161 0,-4.72683 0,-9.45347 0,-14.18021 -1.77256,-3.34817 -3.54505,-6.6962 -5.31758,-10.04431 -0.59085,-7.87805 -1.18168,-15.75578 -1.77252,-23.63368 3.54512,-3.54512 7.0901,-7.0901 10.63515,-10.63515 4.13598,-2.16647 8.27179,-4.33284 12.40768,-6.49926 -1.1817,-4.52988 -2.36336,-9.05958 -3.54505,-13.58937 1.77256,-4.92378 3.54505,-9.84736 5.31758,-14.77105 3.15122,-2.56036 6.30231,-5.12063 9.45347,-7.68094 1.18171,-4.52988 2.36337,-9.05958 3.54505,-13.58937 4.92378,-1.1817 9.84737,-2.36336 14.77105,-3.54505 1.77256,-4.72683 3.54505,-9.45347 5.31758,-14.18021 z"
       transform="translate(-5.9084288,7.6809441)" />
    <path
       style="fill:#71350c;stroke:#000000;stroke-width:1px;stroke-linecap:butt;stroke-linejoin:miter;stroke-opacity:1;fill-opacity:0.75517201"
       d="m 499.81413,368.07154 c 7.65945,-4.03862 18.80047,-7.65946 31.6128,-10.30547 12.81232,-2.64601 27.29536,-4.31713 42.19663,-5.43123 14.90127,-1.11411 30.21987,-1.67115 46.51379,-3.62086 16.29391,-1.94971 33.56215,-5.29195 52.0843,-8.49503 18.52215,-3.20307 38.29707,-6.2668 56.95846,-9.88767 18.66139,-3.62088 36.20815,-7.79868 56.12295,-12.3944 19.9148,-4.59572 42.1964,-9.60908 61.13629,-12.81214 18.9399,-3.20305 34.53702,-4.59565 51.52726,-6.96315 16.99024,-2.3675 35.37256,-5.70974 49.71673,-7.65943 14.34417,-1.94968 24.64941,-2.50673 31.33406,-1.81039 6.68464,0.69633 9.74836,2.64597 12.6729,6.82392 2.92455,4.17795 5.70975,10.58391 6.12752,16.0152 0.41777,5.43129 -1.53187,9.88761 -5.15276,13.92627 -3.62088,4.03866 -8.91276,7.65942 -14.90113,11.28028 -5.98836,3.62087 -12.67284,7.24163 -23.11769,10.58397 -10.44485,3.34234 -24.64937,6.40606 -44.98201,10.44473 -20.33263,4.03867 -46.79203,9.05203 -71.44177,13.64774 -24.64974,4.59572 -47.48838,8.77352 -68.09945,12.39438 -20.61108,3.62086 -38.9934,6.68459 -57.93333,10.44473 -18.93994,3.76014 -38.43634,8.21645 -57.79405,11.55878 -19.35772,3.34233 -38.5756,5.57049 -62.94688,5.57047 -24.37129,-2e-5 -53.89441,-2.22818 -71.44157,-4.59568 -17.54717,-2.36749 -23.11757,-4.87417 -27.15621,-9.19138 -4.03865,-4.3172 -6.54533,-10.44464 -5.70971,-15.73667 0.83562,-5.29203 5.01342,-9.74835 12.67287,-13.78697 z"
       id="path1"
       inkscape:original-d="m 496.33256,367.65375 c 11.14102,-3.62083 22.28204,-7.24167 33.42307,-10.8625 14.48362,-1.67119 28.96666,-3.34231 43.44999,-5.01346 15.31921,-0.55706 30.63781,-1.1141 45.95671,-1.67115 17.26893,-3.34238 34.53717,-6.68462 51.80576,-10.02692 19.77571,-3.06385 39.55063,-6.12757 59.32594,-9.19135 17.54747,-4.17796 35.09423,-8.35576 52.64134,-12.53365 22.28249,-5.01356 44.56409,-10.02692 66.84613,-15.04038 15.59775,-1.39265 31.19487,-2.78525 46.7923,-4.17788 18.38305,-3.34238 36.76537,-6.68462 55.14806,-10.02692 10.30565,-0.55706 20.61089,-1.1141 30.91634,-1.67116 3.06384,1.94972 6.12756,3.89936 9.19134,5.84904 2.78531,6.40622 5.57051,12.81218 8.35576,19.21827 -1.94971,4.45649 -3.89935,8.91281 -5.84903,13.36922 -5.29209,3.62091 -10.58397,7.24167 -15.87596,10.8625 -6.68474,3.6209 -13.36922,7.24166 -20.05384,10.8625 -14.20508,3.06384 -28.4096,6.12756 -42.61441,9.19134 -26.46046,5.01356 -52.91986,10.02692 -79.37978,15.04038 -22.83956,4.17797 -45.6782,8.35577 -68.51729,12.53365 -18.38306,3.06384 -36.76538,6.12756 -55.14807,9.19135 -19.49718,4.45649 -38.99358,8.91281 -58.49036,13.36922 -19.21865,2.22825 -38.43653,4.45641 -57.6548,6.68462 -29.5243,-2.22825 -59.04742,-4.45641 -88.57113,-6.68462 -5.57062,-2.50678 -11.14102,-5.01346 -16.71153,-7.52019 -2.50678,-6.12768 -5.01346,-12.25512 -7.52019,-18.38269 4.17797,-4.45649 8.35577,-8.91281 12.53365,-13.36922 z"
       inkscape:path-effect="#path-effect1" />
    <path
       style="fill:#deaa87;fill-opacity:0.756863;stroke:#000000;stroke-width:1px;stroke-linecap:butt;stroke-linejoin:miter;stroke-opacity:1"
       d="m 505.10612,327.54607 c -4.03862,-3.89936 -5.15273,-9.46987 -5.15272,-15.31897 2e-5,-5.8491 1.1141,-11.97654 4.03866,-16.71151 2.92457,-4.73497 7.65941,-8.07721 15.45823,-11.97661 7.79882,-3.8994 18.6611,-8.35572 30.3593,-12.53364 11.6982,-4.17792 24.2316,-8.0772 46.65323,-12.3944 22.42163,-4.31719 54.72995,-9.05203 82.16494,-13.09069 27.435,-4.03865 49.99512,-7.38089 70.74546,-10.4447 20.75035,-3.06381 39.68971,-5.84901 54.59094,-9.33062 14.90122,-3.48161 25.7635,-7.65941 39.27215,-11.00175 13.50865,-3.34233 29.66281,-5.84901 44.14627,-7.10237 14.48346,-1.25337 27.29538,-1.25337 36.06899,0.13929 8.7736,1.39266 13.50843,4.17785 16.57223,9.33065 3.06379,5.1528 4.45639,12.67284 4.03858,17.96486 -0.41781,5.29201 -2.64596,8.35573 -9.05216,12.67294 -6.40619,4.3172 -16.98995,9.8876 -30.49861,15.7367 -13.50865,5.84909 -29.94133,11.97654 -44.98185,16.43297 -15.04052,4.45644 -28.688,7.24164 -49.85623,11.55884 -21.16823,4.31721 -49.85579,10.16613 -78.82274,15.45816 -28.96695,5.29204 -58.21155,10.02688 -86.20363,14.2048 -27.99209,4.17792 -54.73001,7.79868 -74.78398,10.16615 -20.05398,2.36748 -33.42294,3.48156 -43.58919,2.92449 -10.16625,-0.55708 -17.12925,-2.78524 -21.16787,-6.68459 z"
       id="path2"
       transform="translate(-2.0256985,24.773376)"
       inkscape:original-d="m 502.1816,329.21722 c -1.11411,-5.57051 -2.22821,-11.14102 -3.34231,-16.71153 1.11412,-6.12769 2.2282,-12.25513 3.34231,-18.38269 4.73503,-3.34238 9.46987,-6.68462 14.2048,-10.02692 10.86271,-4.4565 21.72499,-8.91282 32.58749,-13.36923 12.5339,-3.89944 25.0673,-7.79872 37.60095,-11.69807 32.30961,-4.73503 64.61793,-9.46987 96.9269,-14.20481 22.56102,-3.34237 45.12114,-6.68461 67.68171,-10.02692 18.94012,-2.78531 37.87948,-5.57051 56.81922,-8.35576 10.86271,-4.17797 21.72499,-8.35577 32.58749,-12.53366 16.1548,-2.50678 32.30896,-5.01346 48.46345,-7.52019 12.81243,0 25.62435,0 38.43653,0 4.73503,2.78532 9.46986,5.57052 14.2048,8.35577 1.39266,7.52034 2.78526,15.04038 4.17788,22.56057 -2.22825,3.06384 -4.45641,6.12756 -6.68461,9.19135 -10.58418,5.57062 -21.16794,11.14102 -31.75192,16.71153 -16.43333,6.12769 -32.86601,12.25513 -49.29902,18.38269 -13.64803,2.78531 -27.29551,5.57051 -40.94326,8.35576 -28.68871,5.84916 -57.37627,11.69808 -86.0644,17.54712 -29.24577,4.73502 -58.49037,9.46986 -87.73555,14.2048 -26.73899,3.6209 -53.47691,7.24166 -80.21536,10.8625 -13.3695,1.11412 -26.73846,2.2282 -40.10769,3.3423 -6.96327,-2.22825 -13.92627,-4.45641 -20.88941,-6.68461 z"
       inkscape:path-effect="#path-effect2" />
    <path
       style="fill:#ffdd55;stroke:#000000;stroke-width:1px;stroke-linecap:butt;stroke-linejoin:miter;stroke-opacity:1"
       d="m 953.03545,252.7305 c 1.75019,-0.24707 1.05389,1.98109 0.14868,4.55747 -0.90522,2.57638 -2.0193,5.50084 -1.04447,8.28613 0.97483,2.78528 4.03855,5.43122 6.40605,9.7484 2.36749,4.31717 4.03861,10.30535 2.92453,13.78698 -1.11409,3.48163 -5.01337,4.45645 -10.79282,4.03867 -5.77944,-0.41778 -13.43874,-2.22816 -20.19306,-1.60149 -6.75432,0.62666 -12.60324,3.69038 -16.71155,5.57046 -4.10831,1.88007 -6.47573,2.57637 -11.76774,2.50675 -5.29201,-0.0696 -13.50835,-0.90519 -22.14272,-0.90519 -8.63438,-1e-5 -17.68628,0.83555 -24.64951,2.9245 -6.96323,2.08895 -11.83733,5.43119 -15.80636,7.3809 -3.96904,1.94971 -7.03276,2.50675 -11.76772,2.78529 -4.73497,0.27853 -11.14093,0.27853 -19.14861,0.76595 -8.00767,0.48742 -17.61661,1.46224 -24.51022,3.20303 -6.8936,1.7408 -11.0714,4.24748 -15.24933,6.82386 -4.17792,2.57639 -8.35572,5.22233 -13.36922,6.26682 -5.0135,1.0445 -10.86242,0.48746 -16.29373,-0.13923 -5.43131,-0.62668 -10.44467,-1.32298 -16.01523,-0.69631 -5.57056,0.62668 -11.698,2.57632 -16.78116,4.52602 -5.08315,1.9497 -9.12169,3.89934 -13.78703,6.47572 -4.66534,2.57637 -9.95722,5.77936 -14.69221,7.52017 -4.73499,1.74082 -8.91279,2.01934 -13.36924,1.39266 -4.45645,-0.62668 -9.19129,-2.15854 -14.06554,-3.06376 -4.87424,-0.90523 -9.8876,-1.18375 -14.55296,-1.18375 -4.66535,0 -8.98241,0.27852 -13.02107,2.08894 -4.03866,1.81042 -7.79868,5.15266 -13.71739,7.10237 -5.91871,1.94971 -13.99579,2.50675 -19.77527,2.1586 -5.77949,-0.34815 -9.26099,-1.60149 -12.81222,-2.50671 -3.55124,-0.90522 -7.172,-1.46226 -10.58397,-1.11411 -3.41198,0.34815 -6.61496,1.60149 -9.40025,3.27266 -2.78528,1.67116 -5.1527,3.76006 -7.93798,5.15271 -2.78528,1.39265 -5.98826,2.08895 -9.60912,2.22822 -3.62087,0.13927 -7.65941,-0.27851 -12.11586,0.48743 -4.45645,0.76594 -9.33055,2.71558 -13.22996,3.20302 -3.8994,0.48744 -6.82386,-0.48738 -9.12173,-2.08891 -2.29786,-1.60153 -3.96898,-3.82969 -3.969,-6.26681 -1e-5,-2.43713 1.67114,-5.08312 4.87738,-5.56599 3.20625,-0.48286 7.9474,1.19733 19.37779,-0.12902 11.43038,-1.32635 29.54917,-5.6591 43.33557,-7.82552 13.78641,-2.16642 23.23969,-2.16642 37.32161,-4.43136 14.08192,-2.26494 32.79154,-6.79463 45.29776,-8.17325 12.50622,-1.37861 18.80841,0.39388 30.42847,-1.87108 11.62006,-2.26496 28.55719,-8.56715 42.34361,-11.52135 13.78642,-2.95421 24.42136,-2.56032 35.84443,-4.52983 11.42306,-1.96952 23.63355,-6.30227 34.56423,-9.35498 10.93067,-3.0527 20.58089,-4.82519 33.4811,-8.07486 12.90021,-3.24968 29.04957,-7.97632 42.836,-10.04427 13.78642,-2.06794 25.20914,-1.47711 35.54896,-1.87102 10.33983,-0.39391 19.59617,-1.77251 26.3909,-3.54505 6.79472,-1.77255 11.12748,-3.93893 12.50609,-7.68098 1.37862,-3.74205 -0.19693,-9.05953 1.11367,-13.07952 1.31061,-4.02 5.50723,-6.7423 7.25742,-6.98938 z"
       id="path5"
       transform="translate(4.8186345,5.093212)"
       inkscape:original-d="m 955.48196,250.25522 c -0.69632,2.22821 -1.39262,4.45637 -2.08895,6.68462 -1.1141,2.92451 -2.22818,5.84897 -3.3423,8.77355 3.06378,2.64599 6.1275,5.29193 9.19134,7.93798 1.67115,5.9883 3.34227,11.97648 5.01346,17.9649 -3.89936,0.97484 -7.79864,1.94966 -11.69807,2.92452 -7.65946,-1.81042 -15.31876,-3.6208 -22.97836,-5.43125 -5.84904,3.06378 -11.69796,6.1275 -17.54711,9.19134 -2.36747,0.69632 -4.73489,1.39262 -7.1024,2.08894 -8.21651,-0.83557 -16.43285,-1.67113 -24.64952,-2.50673 -9.05208,0.83558 -18.10398,1.67114 -27.15624,2.50673 -4.8742,3.34231 -9.7483,6.68455 -14.62259,10.02692 -3.06378,0.55705 -6.1275,1.11409 -9.19135,1.67116 -6.40608,0 -12.81204,0 -19.21826,0 -9.60913,0.97484 -19.21807,1.94966 -28.8274,2.92452 -4.17788,2.50673 -8.35568,5.01341 -12.53365,7.52019 -4.17788,2.64599 -8.35568,5.29193 -12.53365,7.93797 -5.84903,-0.55705 -11.69795,-1.11409 -17.54711,-1.67115 -5.01346,-0.69631 -10.02682,-1.39261 -15.04038,-2.08894 -6.12756,1.94968 -12.255,3.89932 -18.38269,5.84904 -4.03862,1.94968 -8.07716,3.89932 -12.11586,5.84903 -5.29198,3.20305 -10.58386,6.40603 -15.87596,9.60914 -4.17788,0.27852 -8.35568,0.55704 -12.53365,0.83557 -4.73493,-1.53189 -9.46977,-3.06375 -14.2048,-4.59567 -5.01346,-0.27853 -10.02682,-0.55705 -15.04038,-0.83558 -4.31715,0.27853 -8.63421,0.55705 -12.95144,0.83558 -3.76009,3.34231 -7.52011,6.68455 -11.28028,10.02692 -8.07725,0.55705 -16.15433,1.11409 -24.23173,1.67115 -3.48157,-1.25336 -6.96307,-2.5067 -10.44471,-3.76009 -3.62083,-0.55705 -7.24159,-1.11409 -10.86249,-1.67115 -3.20305,1.25336 -6.40603,2.5067 -9.60914,3.76009 -2.36746,2.08894 -4.73488,4.17784 -7.1024,6.26683 -3.20304,0.69631 -6.40602,1.39261 -9.60913,2.08894 -4.03862,-0.41779 -8.07716,-0.83557 -12.11586,-1.25337 -4.8742,1.94968 -9.7483,3.89932 -14.6226,5.84904 -2.92451,-0.97484 -5.84897,-1.94966 -8.77355,-2.92452 -1.67115,-2.2282 -3.34227,-4.45636 -5.01346,-6.68461 1.67115,-2.646 3.34231,-5.29199 5.01346,-7.93798 4.74134,1.68026 9.48249,3.36046 14.22374,5.04068 18.11952,-4.33292 36.23831,-8.66568 54.35746,-12.99852 9.45366,0 18.90694,0 28.36041,0 18.71037,-4.52988 37.41999,-9.05957 56.12999,-13.58936 6.30244,1.77256 12.60463,3.54505 18.90694,5.31757 16.93781,-6.30244 33.87494,-12.60462 50.81241,-18.90694 10.63537,0.3939 21.27031,0.78779 31.90547,1.18169 12.21097,-4.33293 24.42146,-8.66569 36.6322,-12.99853 9.65061,-1.77256 19.30083,-3.54505 28.95125,-5.31757 16.15,-4.72683 32.29936,-9.45348 48.44904,-14.18021 11.42317,0.59085 22.84589,1.18168 34.26883,1.77252 9.25671,-1.37865 18.51305,-2.75726 27.76958,-4.13589 4.33292,-2.16646 8.66568,-4.33284 12.99852,-6.49926 -1.57561,-5.31768 -3.15116,-10.63516 -4.72674,-15.95273 4.19679,-2.72242 8.39341,-5.44472 12.59011,-8.16708 z"
       inkscape:path-effect="#path-effect5" />
    <path
       style="fill:#44aa00;stroke:#000000;stroke-width:1px;stroke-linecap:butt;stroke-linejoin:miter;stroke-opacity:1"
       d="m 940.46037,244.62088 c 1.39094,-0.0615 4.17276,-0.18463 6.79465,-0.0985 2.62189,0.0862 5.08368,0.38157 6.56081,2.25258 1.47713,1.871 1.96949,5.31751 0.2462,8.02557 -1.72328,2.70806 -5.66215,4.67749 -9.45342,7.53325 -3.79128,2.85575 -7.43473,6.59768 -10.97982,8.56719 -3.54509,1.96951 -6.9916,2.16645 -10.63516,2.95424 -3.64356,0.7878 -7.48395,2.1664 -10.29049,3.93894 -2.80654,1.77254 -4.57903,3.93891 -7.1886,6.20383 -2.60957,2.26492 -6.05608,4.62824 -10.43819,5.90842 -4.38211,1.28018 -9.69958,1.47712 -14.57408,1.37865 -4.8745,-0.0985 -9.30573,-0.49236 -18.2514,-1.11308 -8.94566,-0.62073 -22.40532,-1.46826 -30.80657,-0.63868 -8.40125,0.82958 -11.74349,3.33626 -15.81696,4.72891 -4.07347,1.39266 -8.87794,1.67118 -14.76184,1.98452 -5.8839,0.31335 -12.8469,0.6615 -18.2434,2.99415 -5.39651,2.33266 -9.22616,6.64972 -13.47371,8.77352 -4.24755,2.1238 -8.91276,2.05417 -14.03071,2.71567 -5.11796,0.6615 -10.68836,2.0541 -15.87595,3.76008 -5.1876,1.70598 -9.99207,3.72525 -18.87012,4.73041 -8.87805,1.00516 -21.82923,0.99612 -29.94145,1.27466 -8.11222,0.27854 -11.38476,0.84461 -14.93599,1.12767 -3.55124,0.28305 -7.38089,0.28305 -10.79286,0.49195 -3.41198,0.20889 -6.40607,0.62667 -9.99212,1.28817 -3.58605,0.66151 -7.76385,1.5667 -11.73288,1.91486 -3.96903,0.34817 -7.72905,0.13928 -11.90697,0.62567 -4.17792,0.48639 -8.7735,1.66805 -12.16861,2.56628 -3.39511,0.89823 -5.58944,1.51294 -9.7674,1.7925 -4.17797,0.27955 -10.33908,0.22392 -13.48945,1.34502 -3.15037,1.1211 -3.28963,3.41889 -4.05557,5.02044 -0.76595,1.60154 -2.15855,2.50673 -4.03861,2.95935 -1.88006,0.45261 -4.24748,0.45261 -6.58016,-0.13926 -2.33268,-0.59187 -4.63047,-1.77558 -8.11206,-1.88003 -3.48159,-0.10446 -8.1468,0.87035 -11.46876,1.58852 -3.32196,0.71817 -5.30044,1.17964 -7.25511,1.28204 -1.95467,0.1024 -3.88531,-0.15428 -6.80495,0.27094 -2.91963,0.42522 -6.82788,1.53228 -10.61791,2.36993 -3.79004,0.83764 -7.46142,1.40577 -11.38615,2.10764 -3.92474,0.70187 -8.10254,1.53743 -12.69825,2.65154 -4.59572,1.11411 -9.60908,2.50671 -12.95143,2.92451 -3.34236,0.4178 -5.01348,-0.13924 -5.57055,-1.94966 -0.55707,-1.81042 -3e-5,-4.87414 3.60464,-7.81945 3.60466,-2.94531 10.25694,-5.77208 15.35649,-6.75672 5.09955,-0.98464 8.64623,-0.12719 16.13119,-1.07711 7.48497,-0.94992 18.90769,-3.70713 32.39874,-5.97204 13.49104,-2.26491 29.04957,-4.0374 52.28967,-7.28708 23.24009,-3.24968 54.1602,-7.97632 89.61112,-14.18024 35.45091,-6.20392 75.43042,-13.88471 108.91173,-19.59622 33.48131,-5.7115 60.46256,-9.45343 80.48977,-16.03895 20.02721,-6.58552 33.09933,-16.01419 39.63552,-20.72861 6.53619,-4.71443 6.53619,-4.71447 7.92713,-4.77602 z"
       id="path4"
       sodipodi:nodetypes="cccccccccccccccccccccccccccccccccccccccccccccccccc"
       transform="translate(5.9084217,14.771041)"
       inkscape:original-d="m 939.06943,244.68243 c 2.78188,-0.12309 5.5637,-0.24619 8.34564,-0.36928 2.46184,0.29542 4.92363,0.59083 7.38552,0.88626 0.49237,3.44658 0.98473,6.89309 1.47711,10.33973 -3.93895,1.96948 -7.87782,3.93891 -11.81684,5.90842 -3.64353,3.742 -7.28698,7.48393 -10.93058,11.226 -3.44658,0.19695 -6.89309,0.39389 -10.33973,0.59084 -3.84048,1.37863 -7.68087,2.75724 -11.52142,4.1359 -1.77253,2.16642 -3.54502,4.33279 -5.31758,6.49926 -3.44658,2.36336 -6.89309,4.72669 -10.33973,7.0901 -5.31758,0.19695 -10.63505,0.39389 -15.95273,0.59084 -4.43132,-0.39389 -8.86255,-0.78778 -13.29395,-1.18168 -13.45993,-0.84755 -26.91959,-1.69508 -40.37978,-2.54265 -3.34231,2.50673 -6.68455,5.01341 -10.02692,7.52019 -4.80457,0.27853 -9.60904,0.55705 -14.4137,0.83558 -6.96314,0.34816 -13.92614,0.69631 -20.88942,1.04447 -3.82973,4.31715 -7.65938,8.63421 -11.48918,12.95144 -4.6653,-0.0696 -9.33051,-0.13929 -13.99591,-0.20889 -5.57051,1.39262 -11.14091,2.78522 -16.71153,4.17788 -4.80457,2.01931 -9.60904,4.03858 -14.4137,6.05793 -12.95144,-0.009 -25.90262,-0.0181 -38.85432,-0.0271 -3.27274,0.56611 -6.54528,1.13218 -9.81802,1.69829 -3.82973,0 -7.65938,0 -11.48918,0 -2.99415,0.41779 -5.98824,0.83557 -8.98245,1.25337 -4.17789,0.90521 -8.35569,1.8104 -12.53365,2.71562 -3.7601,-0.20889 -7.52012,-0.41778 -11.28029,-0.62668 -4.59567,1.18168 -9.19125,2.36334 -13.78701,3.54505 -2.19446,0.61475 -4.38879,1.22946 -6.58324,1.84421 -6.16148,-0.0556 -12.32259,-0.11127 -18.48407,-0.16691 -0.13926,2.29784 -0.27852,4.59563 -0.41778,6.89351 -1.39263,0.90521 -2.78523,1.8104 -4.17789,2.71563 -2.36746,0 -4.73488,0 -7.1024,0 -2.29784,-1.18374 -4.59563,-2.36745 -6.89351,-3.5512 -4.6653,0.97484 -9.33051,1.94966 -13.99591,2.92451 -1.97852,0.46148 -3.957,0.92295 -5.93556,1.38444 -1.93078,-0.25669 -3.86142,-0.51337 -5.7922,-0.77006 -3.90849,1.10713 -7.81674,2.21419 -11.72522,3.32132 -3.67159,0.56816 -7.34297,1.13629 -11.01456,1.70445 -4.17788,0.83557 -8.35568,1.67113 -12.53365,2.50673 -5.01346,1.39262 -10.02682,2.78522 -15.04038,4.17788 -1.67115,-0.55705 -3.34227,-1.11409 -5.01346,-1.67115 0.55705,-3.06378 1.11409,-6.1275 1.67116,-9.19135 6.65226,-2.82677 13.30454,-5.65354 19.95681,-8.48031 3.54683,0.85749 7.09351,1.71494 10.64027,2.57241 11.42317,-2.75731 22.84589,-5.51452 34.26883,-8.27178 15.55915,-1.77257 31.11768,-3.54506 46.67652,-5.31758 30.92135,-4.72683 61.84146,-9.45347 92.76219,-14.18021 39.9811,-7.6811 79.96061,-15.36189 119.94091,-23.04283 26.98232,-3.74208 53.96357,-7.484 80.94535,-11.226 13.07264,-9.42904 26.14476,-18.85771 39.21714,-28.28656 z"
       inkscape:path-effect="#path-effect4" />
    <path
       style="fill:#ffdd55;fill-opacity:1;stroke:#000000;stroke-opacity:1;stroke-width:1px;stroke-linecap:butt;stroke-linejoin:miter"
       d="m 521.41802,431.0192 c -4.62826,-1.96947 -9.25652,-3.93895 -11.42294,-6.05615 -2.16641,-2.11721 -1.871,-4.38205 -2.80652,-6.40078 -0.93553,-2.01873 -3.1019,-3.79122 -3.29883,-5.90843 -0.19693,-2.11721 1.57556,-4.579 3.00344,-5.95763 1.42788,-1.37864 2.51106,-1.67405 3.88971,-1.82176 1.37865,-0.14771 3.05267,-0.14771 4.82521,0.34467 1.77255,0.49238 3.64351,1.47709 6.74547,1.87098 3.10197,0.3939 7.43472,0.19695 11.96455,-0.19695 4.52984,-0.3939 9.25648,-0.98473 13.34317,-0.24615 4.0867,0.73857 7.53321,2.80648 12.16153,3.15112 4.62832,0.34464 10.43815,-1.03397 18.61156,-0.73853 8.17342,0.29544 18.70989,2.26488 27.3264,2.21562 8.61652,-0.0493 15.31259,-2.11716 22.30429,-3.34809 6.99171,-1.23092 14.27861,-1.62481 19.35004,-1.67404 5.07142,-0.0492 7.9271,0.24618 14.22951,-0.0493 6.30241,-0.29543 16.05111,-1.18168 21.71336,-2.80651 5.66225,-1.62484 7.23779,-3.98816 13.49098,-6.35155 6.25319,-2.36339 17.18355,-4.72671 25.11072,-5.76068 7.92718,-1.03397 12.85077,-0.73856 20.13791,-0.3939 7.28715,0.34466 16.93738,0.73855 25.9478,-0.44316 9.01043,-1.18172 17.38052,-3.93892 24.37221,-7.04087 6.99168,-3.10196 12.60457,-6.54847 20.63027,-8.27176 8.02571,-1.72329 18.46371,-1.72329 26.04623,-1.32939 7.58252,0.39391 12.30916,1.18168 15.75576,0.54158 3.4466,-0.6401 5.61298,-2.708 9.01036,-5.02216 3.39739,-2.31416 8.02556,-4.87442 13.68786,-5.85915 5.66231,-0.98473 12.35838,-0.3939 18.75923,-0.19696 6.40085,0.19695 12.50609,1e-5 16.93743,-1.32941 4.43135,-1.32942 7.18856,-3.79122 11.3245,-6.25308 4.13595,-2.46187 9.65037,-4.92366 15.50961,-6.10534 5.85925,-1.18168 12.06296,-1.08321 16.54354,-0.24617 4.48058,0.83704 7.23779,2.41259 9.05956,4.77599 1.82177,2.3634 2.70802,5.51449 2.31411,9.15806 -0.39392,3.64356 -2.06793,7.77937 -3.74199,11.91527"
       id="path7"
       transform="translate(13.589365,-10.635152)"
       inkscape:original-d="m 521.41802,431.0192 c -4.62826,-1.96947 -9.25652,-3.93894 -13.88478,-5.90842 0.29542,-2.26494 0.59084,-4.52978 0.88626,-6.79468 -2.16647,-1.77256 -4.33284,-3.54505 -6.49926,-5.31758 1.77256,-2.46189 3.54505,-4.92368 5.31757,-7.38552 1.08324,-0.29543 2.16642,-0.59084 3.24964,-0.88626 1.67408,0 3.3481,0 5.02215,0 1.87104,0.98475 3.742,1.96947 5.613,2.95421 4.33293,-0.19696 8.66568,-0.3939 12.99852,-0.59085 4.72683,-0.59085 9.45347,-1.18168 14.18021,-1.77252 3.44665,2.06799 6.89316,4.13589 10.33973,6.20384 5.81007,-1.37866 11.6199,-2.75726 17.42984,-4.1359 10.53689,1.96952 21.07336,3.93895 31.61005,5.90842 6.69634,-2.06798 13.39241,-4.13589 20.08862,-6.20384 7.2872,-0.3939 14.5741,-0.78779 21.86115,-1.18168 2.8558,0.29543 5.71148,0.59084 8.56721,0.88626 9.74909,-0.88628 19.49779,-1.77252 29.24668,-2.65879 1.57561,-2.36341 3.15116,-4.72673 4.72673,-7.0901 10.9308,-2.36341 21.86116,-4.72673 32.79173,-7.0901 4.92378,0.29542 9.84737,0.59084 14.77105,0.88626 9.65061,0.3939 19.30084,0.78779 28.95126,1.18168 8.37043,-2.75731 16.74052,-5.51452 25.11078,-8.27178 5.61311,-3.44665 11.226,-6.89316 16.839,-10.33974 10.43841,0 20.87641,0 31.31462,0 4.72683,0.78781 9.45347,1.57558 14.18021,2.36337 2.16646,-2.06799 4.33284,-4.13589 6.49926,-6.20384 4.62835,-2.56037 9.25652,-5.12063 13.88478,-7.68095 6.69635,0.59086 13.39242,1.18169 20.08863,1.77253 6.10549,-0.19695 12.21073,-0.39389 18.3161,-0.59084 2.75732,-2.46189 5.51453,-4.92368 8.27179,-7.38553 5.51463,-2.46189 11.02905,-4.92368 16.54357,-7.38552 6.20397,0.0985 12.40768,0.19695 18.61152,0.29542 2.75732,1.57561 5.51453,3.15116 8.27179,4.72674 0.88628,3.15122 1.77253,6.30231 2.65879,9.45347 -1.67409,4.13597 -3.3481,8.27178 -5.02216,12.40768"
       inkscape:path-effect="#path-effect7" />
    <path
       style="fill:#deaa87;fill-opacity:0.756863;stroke:#000000;stroke-width:1px;stroke-linecap:butt;stroke-linejoin:miter;stroke-opacity:1"
       d="m 532.68014,446.19796 c 5.15273,-3.89936 11.55882,-6.12757 20.88954,-7.79873 9.33073,-1.67117 21.58561,-2.78525 35.23351,-4.03863 13.64791,-1.25337 28.68799,-2.64597 45.39971,-3.34229 16.71172,-0.69631 35.09404,-0.69631 52.64132,-1.67117 17.54727,-0.97486 34.25847,-2.9245 55.7052,-5.70979 21.44673,-2.78529 47.62761,-6.40605 70.04911,-8.77353 22.42149,-2.36748 41.08233,-3.48156 57.09768,-5.7098 16.01536,-2.22823 29.38432,-5.57047 41.08249,-8.49502 11.69818,-2.92454 21.7249,-5.43122 29.8022,-6.82385 8.0773,-1.39263 14.20474,-1.67115 19.07897,0.1393 4.87424,1.81046 8.495,5.70974 10.44468,9.60914 1.94968,3.89939 2.2282,7.79867 0.97481,11.83733 -1.25339,4.03867 -4.03859,8.21647 -10.58405,12.67292 -6.54545,4.45646 -16.85069,9.1913 -31.05568,13.36922 -14.20498,4.17792 -32.30878,7.79868 -49.02047,9.60909 -16.71169,1.81042 -32.03029,1.81042 -47.62788,3.76014 -15.59759,1.94972 -31.47323,5.849 -54.73042,9.46986 -23.25719,3.62086 -53.89439,6.9631 -87.03929,10.86251 -33.1449,3.8994 -68.79545,8.35572 -93.4451,11.28025 -24.64965,2.92454 -38.29713,4.31714 -49.43824,-0.13937 -11.14112,-4.45652 -19.77523,-14.76176 -22.14266,-22.69979 -2.36743,-7.93803 1.53185,-13.50843 6.68457,-17.40779 z"
       id="path3"
       transform="translate(8.8626339,-19.497781)"
       inkscape:original-d="m 531.42678,444.5268 c 6.40609,-2.2282 12.81218,-4.45641 19.21826,-6.68461 12.25537,-1.11412 24.51025,-2.2282 36.76538,-3.34231 15.04068,-1.39265 30.08076,-2.78525 45.12114,-4.17788 18.38306,0 36.76538,0 55.14806,0 16.71187,-1.94972 33.42307,-3.89936 50.13461,-5.84904 26.18192,-3.6209 52.3628,-7.24166 78.5442,-10.86249 18.66159,-1.11413 37.32243,-2.22821 55.98364,-3.34231 13.3695,-3.34237 26.73846,-6.68461 40.10769,-10.02692 10.02712,-2.50678 20.05384,-5.01346 30.08076,-7.52019 6.12768,-0.27853 12.25512,-0.55705 18.38268,-0.83558 3.62091,3.89944 7.24167,7.79872 10.8625,11.69808 0.27853,3.89943 0.55705,7.79871 0.83558,11.69807 -2.78531,4.17797 -5.57051,8.35577 -8.35577,12.53365 -10.30565,4.73503 -20.61089,9.46987 -30.91634,14.2048 -18.10452,3.62091 -36.20832,7.24167 -54.31248,10.8625 -15.31922,0 -30.63782,0 -45.95672,0 -15.87628,3.89944 -31.75192,7.79872 -47.62787,11.69807 -30.63843,3.34238 -61.27563,6.68462 -91.91344,10.02692 -35.65199,4.4565 -71.30254,8.91282 -106.95382,13.36923 -13.64802,1.39266 -27.2955,2.78526 -40.94326,4.17789 -8.63446,-10.30566 -17.26858,-20.6109 -25.90287,-30.91634 3.89943,-5.57062 7.79871,-11.14102 11.69807,-16.71154 z"
       inkscape:path-effect="#path-effect3" />
    <path
       style="fill:#44aa00;fill-opacity:1;stroke:#000000;stroke-width:1px;stroke-linecap:butt;stroke-linejoin:miter;stroke-opacity:1"
       d="m 955.50222,395.60562 c -145.48246,18.69768 -290.9648,37.39533 -366.11883,46.59648 -75.15404,9.20114 -79.97916,8.90573 -83.37652,7.23164 -3.39736,-1.67408 -5.36679,-4.7267 -6.69619,-8.0256 -1.3294,-3.2989 -2.0187,-6.84389 -0.44309,-8.71489 1.57562,-1.871 5.41601,-2.06794 10.43823,-1.77251 5.02222,0.29543 11.22594,1.0832 14.82024,-0.24623 3.5943,-1.32943 4.57901,-4.77594 7.33632,-6.89313 2.75731,-2.11719 7.28701,-2.90496 11.47217,-2.46182 4.18517,0.44315 8.02557,2.11717 11.42294,3.69276 3.39737,1.5756 6.35152,3.05267 9.55195,2.95418 3.20043,-0.0985 6.64694,-1.77251 12.01382,-2.80649 5.36689,-1.03397 12.6538,-1.42786 18.66074,-2.46185 6.00694,-1.03399 10.73358,-2.70801 15.36189,-4.33284 4.6283,-1.62483 9.158,-3.20037 12.85079,-2.95417 3.69279,0.2462 6.54847,2.31411 10.68442,3.64351 4.13595,1.3294 9.55189,1.92023 14.62333,1.18166 5.07144,-0.73858 9.79808,-2.80648 16.10047,-3.69274 6.3024,-0.88626 14.18013,-0.59085 20.03935,-1.42789 5.85922,-0.83705 9.69954,-2.80644 13.24467,-4.38205 3.54512,-1.57561 6.79469,-2.75727 11.52148,-3.49583 4.7268,-0.73856 10.93052,-1.03397 17.42985,-1.03397 6.49932,10e-6 13.29371,0.29541 21.02613,-1.0491 7.73241,-1.34451 16.40181,-4.32875 22.60578,-5.70741 6.20397,-1.37866 9.94179,-1.15155 12.41389,-0.0533 2.4721,1.0983 3.6784,3.06777 8.35589,1.59067 4.67749,-1.47709 12.82603,-6.40068 18.22989,-7.92706 5.40385,-1.52637 8.06254,0.34455 12.78936,-0.0986 4.72682,-0.44314 11.52125,-3.2003 16.1496,-4.33276 4.62835,-1.13247 7.09009,-0.64012 10.29056,-0.44317 3.20046,0.19695 7.13924,0.0985 11.37369,-0.73857 4.23446,-0.83704 8.76407,-2.41256 13.58937,-1.96942 4.8253,0.44314 9.94573,2.90489 18.06997,1.28004 8.12423,-1.62485 19.25132,-7.3361 26.09538,-8.37009 6.84405,-1.03399 9.40431,2.60946 13.29407,2.75714 3.88977,0.14768 9.10877,-3.20036 14.13098,-4.48051 5.0222,-1.28015 9.84731,-0.49238 14.57409,-0.88629 4.72678,-0.39391 9.35495,-1.96945 13.58935,-1.32935 4.23441,0.64011 8.07481,3.49579 9.50267,6.4008 1.42785,2.905 0.44314,5.85915 -3.54512,7.68092 -3.98825,1.82177 -10.97974,2.51107 -15.5157,3.52659 -4.53596,1.01552 -6.61619,2.35721 -8.69644,3.69891"
       id="path6"
       transform="translate(22.844922,-16.16392)"
       sodipodi:nodetypes="cccccccccccccccccccccccccccccccccccccccccc"
       inkscape:original-d="m 955.50222,395.60562 c -145.48246,18.69767 -290.9648,37.39533 -436.44757,56.09305 -4.8253,-0.29543 -9.65042,-0.59084 -14.47562,-0.88626 -1.96952,-3.05275 -3.93895,-6.10537 -5.90842,-9.15805 -0.68933,-3.54512 -1.37864,-7.09011 -2.06795,-10.63516 3.84055,-0.19695 7.68094,-0.39389 11.52142,-0.59084 6.20396,0.78781 12.40768,1.57558 18.61152,2.36337 0.98476,-3.44665 1.96947,-6.89316 2.95421,-10.33974 4.52988,-0.7878 9.05958,-1.57557 13.58936,-2.36336 3.84055,1.67408 7.68095,3.3481 11.52142,5.02215 2.95427,1.47714 5.90842,2.95421 8.86263,4.43132 3.44665,-1.67409 6.89316,-3.34811 10.33973,-5.02216 7.2872,-0.3939 14.57411,-0.78779 21.86116,-1.18168 4.72683,-1.67409 9.45347,-3.34811 14.1802,-5.02216 4.52988,-1.57561 9.05958,-3.15116 13.58937,-4.72673 2.85579,2.06798 5.71147,4.13589 8.56721,6.20384 5.41616,0.59085 10.8321,1.18168 16.24815,1.77252 4.72683,-2.06799 9.45347,-4.13589 14.18021,-6.20384 7.87805,0.29543 15.75578,0.59084 23.63368,0.88626 3.84054,-1.96951 7.68086,-3.9389 11.52141,-5.90841 3.2497,-1.18171 6.49927,-2.36337 9.7489,-3.54506 6.20396,-0.29542 12.40768,-0.59084 18.61152,-0.88626 6.79481,0.29543 13.5892,0.59083 20.38404,0.88626 8.66999,-2.98445 17.33939,-5.96869 26.00936,-8.95313 3.73797,0.22712 7.47579,0.45423 11.21369,0.68134 1.2063,1.96948 2.4126,3.93895 3.6189,5.90843 8.14868,-4.92367 16.29722,-9.84726 24.44609,-14.77105 2.65884,1.87104 5.31753,3.74196 7.97636,5.61299 6.79481,-2.75731 13.58924,-5.51446 20.38405,-8.27178 2.46189,0.49238 4.92363,0.98473 7.38553,1.47711 3.93903,-0.0985 7.87781,-0.19695 11.81684,-0.29543 4.52988,-1.57561 9.05949,-3.15113 13.58937,-4.72674 5.12072,2.46189 10.24115,4.92364 15.36188,7.38553 11.12774,-5.71159 22.25483,-11.42284 33.38257,-17.13442 2.56037,3.6436 5.12063,7.28705 7.68095,10.93058 5.21921,-3.34817 10.43821,-6.69621 15.65731,-10.04431 4.82531,0.7878 9.65042,1.57558 14.47563,2.36336 4.62835,-1.57561 9.25652,-3.15115 13.88478,-4.72673 3.84055,2.85579 7.68095,5.71147 11.52142,8.56721 -0.98475,2.95427 -1.96947,5.90842 -2.95421,8.86263 -6.99177,0.68933 -13.98326,1.37863 -20.97489,2.06794 -2.08029,1.34173 -4.16052,2.68341 -6.24077,4.02512"
       inkscape:path-effect="#path-effect6" />
  </g>
</svg>
