<?xml version="1.0" encoding="UTF-8" standalone="no"?>
<!-- Created with Inkscape (http://www.inkscape.org/) -->

<svg
   version="1.1"
   id="svg1"
   width="1600"
   height="715"
   viewBox="0 0 1600 715"
   sodipodi:docname="kiwi.svg"
   inkscape:version="1.4.3 (0d15f75, 2025-12-25)"
   xmlns:inkscape="http://www.inkscape.org/namespaces/inkscape"
   xmlns:sodipodi="http://sodipodi.sourceforge.net/DTD/sodipodi-0.dtd"
   xmlns="http://www.w3.org/2000/svg"
   xmlns:svg="http://www.w3.org/2000/svg">
  <defs
     id="defs1">
    <inkscape:path-effect
       effect="bspline"
       id="path-effect14"
       is_visible="true"
       lpeversion="1.3"
       weight="33.333333"
       steps="2"
       helper_size="0"
       apply_no_weight="true"
       apply_with_weight="true"
       only_selected="false"
       uniform="false" />
    <inkscape:path-effect
       effect="bspline"
       id="path-effect13"
       is_visible="true"
       lpeversion="1.3"
       weight="33.333333"
       steps="2"
       helper_size="0"
       apply_no_weight="true"
       apply_with_weight="true"
       only_selected="false"
       uniform="false" />
    <inkscape:path-effect
       effect="bspline"
       id="path-effect12"
       is_visible="true"
       lpeversion="1.3"
       weight="33.333333"
       steps="2"
       helper_size="0"
       apply_no_weight="true"
       apply_with_weight="true"
       only_selected="false"
       uniform="false" />
    <inkscape:path-effect
       effect="bspline"
       id="path-effect11"
       is_visible="true"
       lpeversion="1.3"
       weight="33.333333"
       steps="2"
       helper_size="0"
       apply_no_weight="true"
       apply_with_weight="true"
       only_selected="false"
       uniform="false" />
    <inkscape:path-effect
       effect="bspline"
       id="path-effect10"
       is_visible="true"
       lpeversion="1.3"
       weight="33.333333"
       steps="2"
       helper_size="0"
       apply_no_weight="true"
       apply_with_weight="true"
       only_selected="false"
       uniform="false" />
    <inkscape:path-effect
       effect="bspline"
       id="path-effect9"
       is_visible="true"
       lpeversion="1.3"
       weight="33.333333"
       steps="2"
       helper_size="0"
       apply_no_weight="true"
       apply_with_weight="true"
       only_selected="false"
       uniform="false" />
    <inkscape:path-effect
       effect="bspline"
       id="path-effect8"
       is_visible="true"
       lpeversion="1.3"
       weight="33.333333"
       steps="2"
       helper_size="0"
       apply_no_weight="true"
       apply_with_weight="true"
       only_selected="false"
       uniform="false" />
    <inkscape:path-effect
       effect="bspline"
       id="path-effect7"
       is_visible="true"
       lpeversion="1.3"
       weight="33.333333"
       steps="2"
       helper_size="0"
       apply_no_weight="true"
       apply_with_weight="true"
       only_selected="false"
       uniform="false" />
    <inkscape:path-effect
       effect="bspline"
       id="path-effect6"
       is_visible="true"
       lpeversion="1.3"
       weight="33.333333"
       steps="2"
       helper_size="0"
       apply_no_weight="true"
       apply_with_weight="true"
       only_selected="false"
       uniform="false" />
    <inkscape:path-effect
       effect="bspline"
       id="path-effect5"
       is_visible="true"
       lpeversion="1.3"
       weight="33.333333"
       steps="2"
       helper_size="0"
       apply_no_weight="true"
       apply_with_weight="true"
       only_selected="false"
       uniform="false" />
    <inkscape:path-effect
       effect="bspline"
       id="path-effect4"
       is_visible="true"
       lpeversion="1.3"
       weight="33.333333"
       steps="2"
       helper_size="0"
       apply_no_weight="true"
       apply_with_weight="true"
       only_selected="false"
       uniform="false" />
    <inkscape:path-effect
       effect="bspline"
       id="path-effect3"
       is_visible="true"
       lpeversion="1.3"
       weight="33.333333"
       steps="2"
       helper_size="0"
       apply_no_weight="true"
       apply_with_weight="true"
       only_selected="false"
       uniform="false" />
    <inkscape:path-effect
       effect="bspline"
       id="path-effect2"
       is_visible="true"
       lpeversion="1.3"
       weight="33.333333"
       steps="2"
       helper_size="0"
       apply_no_weight="true"
       apply_with_weight="true"
       only_selected="false"
       uniform="false" />
    <inkscape:path-effect
       effect="bspline"
       id="path-effect14-3"
       is_visible="true"
       lpeversion="1.3"
       weight="33.333333"
       steps="2"
       helper_size="0"
       apply_no_weight="true"
       apply_with_weight="true"
       only_selected="false"
       uniform="false" />
    <inkscape:path-effect
       effect="bspline"
       id="path-effect14-5"
       is_visible="true"
       lpeversion="1.3"
       weight="33.333333"
       steps="2"
       helper_size="0"
       apply_no_weight="true"
       apply_with_weight="true"
       only_selected="false"
       uniform="false" />
    <inkscape:path-effect
       effect="bspline"
       id="path-effect14-7"
       is_visible="true"
       lpeversion="1.3"
       weight="33.333333"
       steps="2"
       helper_size="0"
       apply_no_weight="true"
       apply_with_weight="true"
       only_selected="false"
       uniform="false" />
    <inkscape:path-effect
       effect="bspline"
       id="path-effect14-2"
       is_visible="true"
       lpeversion="1.3"
       weight="33.333333"
       steps="2"
       helper_size="0"
       apply_no_weight="true"
       apply_with_weight="true"
       only_selected="false"
       uniform="false" />
    <inkscape:path-effect
       effect="bspline"
       id="path-effect14-8"
       is_visible="true"
       lpeversion="1.3"
       weight="33.333333"
       steps="2"
       helper_size="0"
       apply_no_weight="true"
       apply_with_weight="true"
       only_selected="false"
       uniform="false" />
    <inkscape:path-effect
       effect="bspline"
       id="path-effect14-9"
       is_visible="true"
       lpeversion="1.3"
       weight="33.333333"
       steps="2"
       helper_size="0"
       apply_no_weight="true"
       apply_with_weight="true"
       only_selected="false"
       uniform="false" />
    <inkscape:path-effect
       effect="bspline"
       id="path-effect14-50"
       is_visible="true"
       lpeversion="1.3"
       weight="33.333333"
       steps="2"
       helper_size="0"
       apply_no_weight="true"
       apply_with_weight="true"
       only_selected="false"
       uniform="false" />
    <inkscape:path-effect
       effect="bspline"
       id="path-effect14-4"
       is_visible="true"
       lpeversion="1.3"
       weight="33.333333"
       steps="2"
       helper_size="0"
       apply_no_weight="true"
       apply_with_weight="true"
       only_selected="false"
       uniform="false" />
    <inkscape:path-effect
       effect="bspline"
       id="path-effect14-0"
       is_visible="true"
       lpeversion="1.3"
       weight="33.333333"
       steps="2"
       helper_size="0"
       apply_no_weight="true"
       apply_with_weight="true"
       only_selected="false"
       uniform="false" />
  </defs>
  <sodipodi:namedview
     id="namedview1"
     pagecolor="#ffffff"
     bordercolor="#000000"
     borderopacity="0.25"
     inkscape:showpageshadow="2"
     inkscape:pageopacity="0.0"
     inkscape:pagecheckerboard="0"
     inkscape:deskcolor="#d1d1d1"
     showgrid="false"
     inkscape:zoom="1.6925"
     inkscape:cx="684.19498"
     inkscape:cy="325.25849"
     inkscape:window-width="1920"
     inkscape:window-height="991"
     inkscape:window-x="-9"
     inkscape:window-y="-9"
     inkscape:window-maximized="1"
     inkscape:current-layer="g1" />
  <g
     inkscape:groupmode="layer"
     inkscape:label="Image"
     id="g1">
    <path
       id="path1"
       style="fill:#b3ff74;stroke:none;stroke-width:7.55905512;stroke-dasharray:none;stroke-opacity:1;paint-order:markers fill stroke;fill-opacity:1"
       d="M 752.4375 214.74414 A 129.93217 123.24757 0 0 0 622.50391 337.99023 A 129.93217 123.24757 0 0 0 752.4375 461.23828 A 129.93217 123.24757 0 0 0 882.36914 337.99023 A 129.93217 123.24757 0 0 0 752.4375 214.74414 z M 735.24609 319.19922 C 736.67088 319.13414 738.15278 319.49136 739.50586 319.72656 C 741.30996 320.04017 742.88563 320.13798 743.72266 320.92578 C 744.55968 321.71358 744.65691 323.19114 745.98633 323.92969 C 747.31574 324.66824 749.87672 324.66725 751.55078 324.51953 C 753.22484 324.37182 754.01308 324.07724 754.55469 325.35742 C 755.0963 326.63761 755.39075 329.49217 756.08008 331.60938 C 756.76941 333.72658 757.85305 335.10501 759.08398 336.33594 C 760.31492 337.56687 761.69448 338.65074 760.85742 339.7832 C 760.02036 340.91566 756.9663 342.09782 755.14453 343.72266 C 753.32276 345.34749 752.73311 347.41537 751.94531 349.13867 C 751.15751 350.86197 750.17212 352.23933 748.49805 352.58398 C 746.82397 352.92864 744.46136 352.23963 742.29492 352.78125 C 740.12848 353.32287 738.15895 355.09657 736.18945 355.93359 C 734.21996 356.77062 732.24973 356.67162 730.87109 355.29297 C 729.49246 353.91431 728.70533 351.2564 727.03125 349.7793 C 725.35717 348.30219 722.79626 348.00668 720.28516 347.9082 C 717.77406 347.80973 715.31213 347.90808 714.17969 347.21875 C 713.04724 346.52942 713.24534 345.05175 712.16211 343.52539 C 711.07887 341.99903 708.71552 340.42397 707.92773 338.99609 C 707.13995 337.56821 707.92777 336.28776 708.86328 334.56445 C 709.79879 332.84114 710.88112 330.67501 712.25977 329.5918 C 713.63841 328.50859 715.31276 328.50901 716.69141 327.42578 C 718.07005 326.34255 719.15374 324.17623 720.63086 322.94531 C 722.10798 321.71439 723.97837 321.41828 725.40625 321.61523 C 726.83413 321.81219 727.81934 322.50039 729.11719 322.03906 C 730.41504 321.57773 732.02589 319.96738 733.84766 319.42578 C 734.3031 319.29038 734.77116 319.22091 735.24609 319.19922 z " />
    <path
       style="fill:#44aa00;stroke:#000000;stroke-width:1px;stroke-linecap:butt;stroke-linejoin:miter;stroke-opacity:1;fill-opacity:1"
       d="m 753.09302,294.30868 c -0.96026,4.26803 0.56936,4.7581 3.28075,-2.01405 2.71139,-6.77215 6.60425,-20.80567 10.61548,-33.04346 4.01123,-12.23778 8.14033,-22.6783 7.15406,-19.92923 -0.98627,2.74908 -7.08778,18.68742 -11.86385,30.68015 -4.77607,11.99272 -8.22618,20.03855 -9.18644,24.30659 z"
       id="path14-13"
       inkscape:path-effect="#path-effect14-0"
       inkscape:original-d="m 750.6031,298.08663 c 1.52966,0.49008 3.05928,0.98015 4.58896,1.47024 3.8931,-14.03439 7.78596,-28.06791 11.67906,-42.10231 4.12936,-10.44117 8.25846,-20.88169 12.38781,-31.32286 -6.10188,15.93932 -12.2034,31.87766 -18.30529,47.81697 -3.45025,8.04614 -6.90036,16.09197 -10.35054,24.13796 z"
       transform="matrix(0.32340012,-0.31107687,0.37755611,0.22170267,346.12075,472.77777)"
       sodipodi:nodetypes="cccccc" />
    <path
       style="fill:#44aa00;stroke:#000000;stroke-width:1px;stroke-linecap:butt;stroke-linejoin:miter;stroke-opacity:1;fill-opacity:1"
       d="m 753.09302,294.30868 c -0.96026,4.26803 0.56936,4.7581 3.28075,-2.01405 2.71139,-6.77215 6.60425,-20.80567 10.61548,-33.04346 4.01123,-12.23778 8.14033,-22.6783 7.15406,-19.92923 -0.98627,2.74908 -7.08778,18.68742 -11.86385,30.68015 -4.77607,11.99272 -8.22618,20.03855 -9.18644,24.30659 z"
       id="path14-5"
       inkscape:path-effect="#path-effect14-4"
       inkscape:original-d="m 750.6031,298.08663 c 1.52966,0.49008 3.05928,0.98015 4.58896,1.47024 3.8931,-14.03439 7.78596,-28.06791 11.67906,-42.10231 4.12936,-10.44117 8.25846,-20.88169 12.38781,-31.32286 -6.10188,15.93932 -12.2034,31.87766 -18.30529,47.81697 -3.45025,8.04614 -6.90036,16.09197 -10.35054,24.13796 z"
       transform="matrix(-1.559725,-1.1977856,0.1992317,-0.25943431,1804.5543,1303.4843)"
       sodipodi:nodetypes="cccccc" />
    <path
       style="fill:#44aa00;stroke:#000000;stroke-width:1px;stroke-linecap:butt;stroke-linejoin:miter;stroke-opacity:1;fill-opacity:1"
       d="m 753.09302,294.30868 c -0.96026,4.26803 0.56936,4.7581 3.28075,-2.01405 2.71139,-6.77215 6.60425,-20.80567 10.61548,-33.04346 4.01123,-12.23778 8.14033,-22.6783 7.15406,-19.92923 -0.98627,2.74908 -7.08778,18.68742 -11.86385,30.68015 -4.77607,11.99272 -8.22618,20.03855 -9.18644,24.30659 z"
       id="path14-6"
       inkscape:path-effect="#path-effect14-50"
       inkscape:original-d="m 750.6031,298.08663 c 1.52966,0.49008 3.05928,0.98015 4.58896,1.47024 3.8931,-14.03439 7.78596,-28.06791 11.67906,-42.10231 4.12936,-10.44117 8.25846,-20.88169 12.38781,-31.32286 -6.10188,15.93932 -12.2034,31.87766 -18.30529,47.81697 -3.45025,8.04614 -6.90036,16.09197 -10.35054,24.13796 z"
       transform="matrix(-0.35689266,-0.04693462,0.03359842,-0.41481697,976.2483,526.90463)"
       sodipodi:nodetypes="cccccc" />
    <path
       style="fill:#44aa00;stroke:#000000;stroke-width:1px;stroke-linecap:butt;stroke-linejoin:miter;stroke-opacity:1;fill-opacity:1"
       d="m 753.09302,294.30868 c -0.96026,4.26803 0.56936,4.7581 3.28075,-2.01405 2.71139,-6.77215 6.60425,-20.80567 10.61548,-33.04346 4.01123,-12.23778 8.14033,-22.6783 7.15406,-19.92923 -0.98627,2.74908 -7.08778,18.68742 -11.86385,30.68015 -4.77607,11.99272 -8.22618,20.03855 -9.18644,24.30659 z"
       id="path14-9"
       inkscape:path-effect="#path-effect14-9"
       inkscape:original-d="m 750.6031,298.08663 c 1.52966,0.49008 3.05928,0.98015 4.58896,1.47024 3.8931,-14.03439 7.78596,-28.06791 11.67906,-42.10231 4.12936,-10.44117 8.25846,-20.88169 12.38781,-31.32286 -6.10188,15.93932 -12.2034,31.87766 -18.30529,47.81697 -3.45025,8.04614 -6.90036,16.09197 -10.35054,24.13796 z"
       transform="matrix(-0.51436486,-0.55834622,0.54321428,-0.43989418,917.1412,901.96238)"
       sodipodi:nodetypes="cccccc" />
    <path
       style="fill:#44aa00;stroke:#000000;stroke-width:1px;stroke-linecap:butt;stroke-linejoin:miter;stroke-opacity:1;fill-opacity:1"
       d="m 753.09302,294.30868 c -0.96026,4.26803 0.56936,4.7581 3.28075,-2.01405 2.71139,-6.77215 6.60425,-20.80567 10.61548,-33.04346 4.01123,-12.23778 8.14033,-22.6783 7.15406,-19.92923 -0.98627,2.74908 -7.08778,18.68742 -11.86385,30.68015 -4.77607,11.99272 -8.22618,20.03855 -9.18644,24.30659 z"
       id="path14-2"
       inkscape:path-effect="#path-effect14-8"
       inkscape:original-d="m 750.6031,298.08663 c 1.52966,0.49008 3.05928,0.98015 4.58896,1.47024 3.8931,-14.03439 7.78596,-28.06791 11.67906,-42.10231 4.12936,-10.44117 8.25846,-20.88169 12.38781,-31.32286 -6.10188,15.93932 -12.2034,31.87766 -18.30529,47.81697 -3.45025,8.04614 -6.90036,16.09197 -10.35054,24.13796 z"
       transform="matrix(-0.40424432,0.79786682,-0.7100297,-0.35974108,1283.6772,-135.75062)"
       sodipodi:nodetypes="cccccc" />
    <path
       style="fill:#44aa00;stroke:#000000;stroke-width:1px;stroke-linecap:butt;stroke-linejoin:miter;stroke-opacity:1;fill-opacity:1"
       d="m 753.09302,294.30868 c -0.96026,4.26803 0.56936,4.7581 3.28075,-2.01405 2.71139,-6.77215 6.60425,-20.80567 10.61548,-33.04346 4.01123,-12.23778 8.14033,-22.6783 7.15406,-19.92923 -0.98627,2.74908 -7.08778,18.68742 -11.86385,30.68015 -4.77607,11.99272 -8.22618,20.03855 -9.18644,24.30659 z"
       id="path14-41"
       inkscape:path-effect="#path-effect14-2"
       inkscape:original-d="m 750.6031,298.08663 c 1.52966,0.49008 3.05928,0.98015 4.58896,1.47024 3.8931,-14.03439 7.78596,-28.06791 11.67906,-42.10231 4.12936,-10.44117 8.25846,-20.88169 12.38781,-31.32286 -6.10188,15.93932 -12.2034,31.87766 -18.30529,47.81697 -3.45025,8.04614 -6.90036,16.09197 -10.35054,24.13796 z"
       transform="matrix(0.5182861,0.12745044,0.1640149,-0.66697803,306.79398,478.76918)"
       sodipodi:nodetypes="cccccc" />
    <path
       style="fill:#44aa00;stroke:#000000;stroke-width:1px;stroke-linecap:butt;stroke-linejoin:miter;stroke-opacity:1;fill-opacity:1"
       d="m 753.09302,294.30868 c -0.96026,4.26803 0.56936,4.7581 3.28075,-2.01405 2.71139,-6.77215 6.60425,-20.80567 10.61548,-33.04346 4.01123,-12.23778 8.14033,-22.6783 7.15406,-19.92923 -0.98627,2.74908 -7.08778,18.68742 -11.86385,30.68015 -4.77607,11.99272 -8.22618,20.03855 -9.18644,24.30659 z"
       id="path14-4"
       inkscape:path-effect="#path-effect14-7"
       inkscape:original-d="m 750.6031,298.08663 c 1.52966,0.49008 3.05928,0.98015 4.58896,1.47024 3.8931,-14.03439 7.78596,-28.06791 11.67906,-42.10231 4.12936,-10.44117 8.25846,-20.88169 12.38781,-31.32286 -6.10188,15.93932 -12.2034,31.87766 -18.30529,47.81697 -3.45025,8.04614 -6.90036,16.09197 -10.35054,24.13796 z"
       transform="matrix(0.11421222,1.1670801,-1.0645667,0.10418012,1007.5237,-569.56326)"
       sodipodi:nodetypes="cccccc" />
    <path
       style="fill:#44aa00;stroke:#000000;stroke-width:1px;stroke-linecap:butt;stroke-linejoin:miter;stroke-opacity:1;fill-opacity:1"
       d="m 753.09302,294.30868 c -0.96026,4.26803 0.56936,4.7581 3.28075,-2.01405 2.71139,-6.77215 6.60425,-20.80567 10.61548,-33.04346 4.01123,-12.23778 8.14033,-22.6783 7.15406,-19.92923 -0.98627,2.74908 -7.08778,18.68742 -11.86385,30.68015 -4.77607,11.99272 -8.22618,20.03855 -9.18644,24.30659 z"
       id="path14-18"
       inkscape:path-effect="#path-effect14-5"
       inkscape:original-d="m 750.6031,298.08663 c 1.52966,0.49008 3.05928,0.98015 4.58896,1.47024 3.8931,-14.03439 7.78596,-28.06791 11.67906,-42.10231 4.12936,-10.44117 8.25846,-20.88169 12.38781,-31.32286 -6.10188,15.93932 -12.2034,31.87766 -18.30529,47.81697 -3.45025,8.04614 -6.90036,16.09197 -10.35054,24.13796 z"
       transform="matrix(0.71399752,-0.49220587,0.42885815,0.68182718,59.518338,466.22078)"
       sodipodi:nodetypes="cccccc" />
    <path
       style="fill:#44aa00;stroke:#000000;stroke-width:1px;stroke-linecap:butt;stroke-linejoin:miter;stroke-opacity:1;fill-opacity:1"
       d="m 753.09302,294.30868 c -0.96026,4.26803 0.56936,4.7581 3.28075,-2.01405 2.71139,-6.77215 6.60425,-20.80567 10.61548,-33.04346 4.01123,-12.23778 8.14033,-22.6783 7.15406,-19.92923 -0.98627,2.74908 -7.08778,18.68742 -11.86385,30.68015 -4.77607,11.99272 -8.22618,20.03855 -9.18644,24.30659 z"
       id="path14-1"
       inkscape:path-effect="#path-effect14-3"
       inkscape:original-d="m 750.6031,298.08663 c 1.52966,0.49008 3.05928,0.98015 4.58896,1.47024 3.8931,-14.03439 7.78596,-28.06791 11.67906,-42.10231 4.12936,-10.44117 8.25846,-20.88169 12.38781,-31.32286 -6.10188,15.93932 -12.2034,31.87766 -18.30529,47.81697 -3.45025,8.04614 -6.90036,16.09197 -10.35054,24.13796 z"
       transform="matrix(0.63397446,0.58046214,-0.54851388,0.55821635,457.81044,-285.77585)"
       sodipodi:nodetypes="cccccc" />
    <path
       style="fill:#4d4d4d;stroke:#000000;stroke-width:1px;stroke-linecap:butt;stroke-linejoin:miter;stroke-opacity:1;fill-opacity:1"
       d="m 713.097,316.69128 c 0.14771,1.67406 -1.82177,0.98474 -3.93898,-1.23095 -2.1172,-2.2157 -4.38205,-5.95762 -4.52974,-7.63167 -0.14769,-1.67405 1.82175,-1.28016 3.93895,0.93553 2.11721,2.2157 4.38206,6.25304 4.52977,7.92709 z"
       id="path3"
       inkscape:path-effect="#path-effect3"
       inkscape:original-d="m 715.21418,319.05465 c -1.96947,-0.68931 -3.93895,-1.37863 -5.90842,-2.06794 -2.26494,-3.74208 -4.52979,-7.484 -6.79468,-11.226 1.96951,0.3939 3.93895,0.78779 5.90842,1.18168 2.26494,4.0375 4.52979,8.07484 6.79468,12.11226 z" />
    <path
       style="fill:#4d4d4d;stroke:#000000;stroke-width:1px;stroke-linecap:butt;stroke-linejoin:miter;stroke-opacity:1;fill-opacity:1"
       d="m 727.72033,309.05958 c -0.88626,0.34465 -2.56031,-1.92024 -2.9542,-3.93896 -0.39388,-2.01873 0.49237,-3.79123 1.37864,-4.13587 0.88627,-0.34465 1.77251,0.73854 2.16641,2.75728 0.39389,2.01874 0.29542,4.97289 -0.59085,5.31755 z"
       id="path4"
       inkscape:path-effect="#path-effect4"
       inkscape:original-d="m 728.50812,311.66913 c -1.67405,-2.2649 -3.3481,-4.52979 -5.02215,-6.79468 0.88628,-1.77256 1.77252,-3.54506 2.65879,-5.31758 0.88628,1.08323 1.77252,2.16642 2.65879,3.24963 -0.0985,2.95427 -0.19695,5.90842 -0.29543,8.86263 z" />
    <path
       style="fill:#4d4d4d;stroke:#000000;stroke-width:1px;stroke-linecap:butt;stroke-linejoin:miter;stroke-opacity:1;fill-opacity:1"
       d="m 745.0517,314.77105 c -0.98474,0.34466 -1.96947,-2.11718 -1.92022,-4.23438 0.0492,-2.11721 1.13243,-3.8897 2.11718,-4.23434 0.98474,-0.34465 1.87099,0.73854 1.82174,2.85576 -0.0492,2.11721 -1.03396,5.2683 -2.0187,5.61296 z"
       id="path5"
       inkscape:path-effect="#path-effect5"
       inkscape:original-d="m 745.0517,317.57755 c -0.98474,-2.46184 -1.96947,-4.92368 -2.95421,-7.38553 1.08323,-1.77256 2.16642,-3.54505 3.24963,-5.31757 0.88628,1.08323 1.77253,2.16642 2.65879,3.24963 -0.98476,3.15122 -1.96947,6.30231 -2.95421,9.45347 z" />
    <path
       style="fill:#4d4d4d;stroke:#000000;stroke-width:1px;stroke-linecap:butt;stroke-linejoin:miter;stroke-opacity:1;fill-opacity:1"
       d="m 761.74299,322.64894 c -0.44314,-0.73855 1.62481,-2.60955 3.10193,-2.80648 1.47711,-0.19694 2.36336,1.28014 1.32935,2.21564 -1.034,0.9355 -3.98815,1.32939 -4.43128,0.59084 z"
       id="path6"
       inkscape:path-effect="#path-effect6"
       inkscape:original-d="m 759.23191,323.78139 c 2.06794,-1.871 4.13589,-3.742 6.20384,-5.613 0.88628,1.47713 1.77252,2.95421 2.65879,4.43131 -2.95427,0.39391 -5.90842,0.78779 -8.86263,1.18169 z" />
    <path
       style="fill:#4d4d4d;stroke:#000000;stroke-width:1px;stroke-linecap:butt;stroke-linejoin:miter;stroke-opacity:1;fill-opacity:1"
       d="m 764.45101,338.06007 c 0.39389,-1.0832 2.75726,-2.06794 4.43132,-1.6248 1.67407,0.44315 2.65878,2.31411 2.26487,3.39732 -0.39391,1.08322 -2.1664,1.37864 -3.84047,0.93549 -1.67407,-0.44314 -3.24961,-1.6248 -2.85572,-2.70801 z"
       id="path7"
       inkscape:path-effect="#path-effect7"
       inkscape:original-d="m 762.48154,337.9616 c 2.36336,-0.98474 4.72673,-1.96948 7.0901,-2.95421 0.98476,1.87103 1.96947,3.74199 2.95421,5.61299 -1.77256,0.29543 -3.54505,0.59085 -5.31758,0.88627 -1.57561,-1.18171 -3.15115,-2.36337 -4.72673,-3.54505 z" />
    <path
       style="fill:#4d4d4d;stroke:#000000;stroke-width:1px;stroke-linecap:butt;stroke-linejoin:miter;stroke-opacity:1;fill-opacity:1"
       d="m 760.36436,349.53225 c 1.82176,-0.14771 4.48054,1.82176 5.02213,3.49583 0.54159,1.67407 -1.03395,3.05267 -2.85574,3.20037 -1.82178,0.1477 -3.88969,-0.93549 -4.43128,-2.60957 -0.54159,-1.67407 0.44312,-3.93892 2.26489,-4.08663 z"
       id="path8"
       inkscape:path-effect="#path-effect8"
       inkscape:original-d="m 759.52733,347.41507 c 2.65879,1.96947 5.31757,3.93894 7.97636,5.90842 -1.57561,1.37866 -3.15115,2.75726 -4.72673,4.13589 -2.06799,-1.08323 -4.1359,-2.16642 -6.20384,-3.24963 0.98475,-2.26494 1.96947,-4.52979 2.95421,-6.79468 z" />
    <path
       style="fill:#4d4d4d;stroke:#000000;stroke-width:1px;stroke-linecap:butt;stroke-linejoin:miter;stroke-opacity:1;fill-opacity:1"
       d="m 739.68488,361.20138 c -0.5416,1.37863 0.0492,4.72673 1.77256,6.5485 1.72332,1.82177 4.579,2.11718 6.00686,1.37861 1.42787,-0.73857 1.42787,-2.51106 0.54159,-4.03742 -0.88628,-1.52635 -2.65877,-2.80648 -4.38207,-3.74199 -1.72331,-0.9355 -3.39733,-1.52633 -3.93894,-0.1477 z"
       id="path9"
       inkscape:path-effect="#path-effect9"
       inkscape:original-d="m 738.55244,359.23191 c 0.59084,3.3481 1.18168,6.6962 1.77252,10.04431 2.8558,0.29543 5.71148,0.59084 8.56721,0.88626 0,-1.77256 0,-3.54505 0,-5.31758 -1.77256,-1.28018 -3.54505,-2.56031 -5.31758,-3.84047 -1.67408,-0.59085 -3.3481,-1.18168 -5.02215,-1.77252 z" />
    <path
       style="fill:#4d4d4d;stroke:#000000;stroke-width:1px;stroke-linecap:butt;stroke-linejoin:miter;stroke-opacity:1;fill-opacity:1"
       d="m 721.07336,355.3422 c -0.73855,0.14771 -2.11718,2.60955 -2.80649,4.87447 -0.68932,2.26491 -0.68932,4.33281 -0.0492,5.07136 0.64009,0.73855 1.92022,0.14772 2.65877,-1.03399 0.73856,-1.1817 0.9355,-2.95419 0.98474,-4.92369 0.0492,-1.96949 -0.0492,-4.13586 -0.78779,-3.98815 z"
       id="path10"
       inkscape:path-effect="#path-effect10"
       inkscape:original-d="m 721.71344,353.02807 c -1.37863,2.46184 -2.75726,4.92368 -4.13589,7.38552 0,2.06799 0,4.13589 0,6.20384 1.28018,-0.59085 2.56031,-1.18168 3.84047,-1.77253 0.19695,-1.77256 0.3939,-3.54505 0.59084,-5.31757 -0.0985,-2.16647 -0.19694,-4.33284 -0.29542,-6.49926 z" />
    <path
       style="fill:#4d4d4d;stroke:#000000;stroke-width:1px;stroke-linecap:butt;stroke-linejoin:miter;stroke-opacity:1;fill-opacity:1"
       d="m 704.97292,348.2521 c -1.18168,-0.64008 -5.80995,-0.44314 -7.97636,0.24619 -2.16642,0.68933 -1.871,1.87099 -0.6893,2.51107 1.1817,0.64007 3.24961,0.73855 5.41605,0.0492 2.16645,-0.68933 4.43129,-2.1664 3.24961,-2.80648 z"
       id="path11"
       inkscape:path-effect="#path-effect11"
       inkscape:original-d="m 708.4195,347.41507 c -4.62826,0.19694 -9.25653,0.39389 -13.88479,0.59084 0.29543,1.18171 0.59084,2.36337 0.88627,3.54505 2.06798,0.0985 4.13589,0.19695 6.20384,0.29542 2.26494,-1.47713 4.52978,-2.95421 6.79468,-4.43131 z" />
    <path
       style="fill:#4d4d4d;stroke:#000000;stroke-width:1px;stroke-linecap:butt;stroke-linejoin:miter;stroke-opacity:1;fill-opacity:1"
       d="m 703.39734,327.12949 c -0.98473,-1.57557 -5.2191,-3.05268 -7.43476,-2.3141 -2.21566,0.73858 -2.4126,3.69273 -1.42785,5.26831 0.98476,1.57558 3.15114,1.77253 5.36682,1.03396 2.21568,-0.73857 4.48053,-2.41259 3.49579,-3.98817 z"
       id="path12"
       inkscape:path-effect="#path-effect12"
       inkscape:original-d="m 706.64697,327.03102 c -4.23436,-1.47711 -8.46873,-2.95421 -12.7031,-4.43132 -0.19695,2.95427 -0.39389,5.90842 -0.59084,8.86263 2.16646,0.19696 4.33284,0.3939 6.49926,0.59085 2.26494,-1.67409 4.52979,-3.34811 6.79468,-5.02216 z" />
    <path
       style="fill:#44aa00;stroke:#000000;stroke-width:1px;stroke-linecap:butt;stroke-linejoin:miter;stroke-opacity:1;fill-opacity:1"
       d="m 753.09302,294.30868 c -0.96026,4.26803 0.56936,4.7581 3.28075,-2.01405 2.71139,-6.77215 6.60425,-20.80567 10.61548,-33.04346 4.01123,-12.23778 8.14033,-22.6783 7.15406,-19.92923 -0.98627,2.74908 -7.08778,18.68742 -11.86385,30.68015 -4.77607,11.99272 -8.22618,20.03855 -9.18644,24.30659 z"
       id="path14"
       inkscape:path-effect="#path-effect14"
       inkscape:original-d="m 750.6031,298.08663 c 1.52966,0.49008 3.05928,0.98015 4.58896,1.47024 3.8931,-14.03439 7.78596,-28.06791 11.67906,-42.10231 4.12936,-10.44117 8.25846,-20.88169 12.38781,-31.32286 -6.10188,15.93932 -12.2034,31.87766 -18.30529,47.81697 -3.45025,8.04614 -6.90036,16.09197 -10.35054,24.13796 z"
       transform="matrix(1.1726552,0,0,1.0696522,-133.84727,-16.147173)"
       sodipodi:nodetypes="cccccc" />
    <ellipse
       style="fill:none;fill-opacity:1;stroke:#ac4b00;stroke-width:5.63062;stroke-dasharray:none;stroke-opacity:1;paint-order:markers fill stroke"
       id="path15"
       cx="750.66479"
       cy="336.77994"
       rx="131.24486"
       ry="123.26851" />
  </g>
</svg>
