<?xml version="1.0" encoding="UTF-8" standalone="no"?>
<!-- Created with Inkscape (http://www.inkscape.org/) -->

<svg
   version="1.1"
   id="svg1"
   width="1600"
   height="715"
   viewBox="0 0 1600 715"
   sodipodi:docname="mosquito.svg"
   inkscape:version="1.4.3 (0d15f75, 2025-12-25)"
   xmlns:inkscape="http://www.inkscape.org/namespaces/inkscape"
   xmlns:sodipodi="http://sodipodi.sourceforge.net/DTD/sodipodi-0.dtd"
   xmlns="http://www.w3.org/2000/svg"
   xmlns:svg="http://www.w3.org/2000/svg">
  <defs
     id="defs1">
    <inkscape:path-effect
       effect="bspline"
       id="path-effect6"
       is_visible="true"
       lpeversion="1.3"
       weight="33.333333"
       steps="2"
       helper_size="0"
       apply_no_weight="true"
       apply_with_weight="true"
       only_selected="false"
       uniform="false" />
    <inkscape:path-effect
       effect="bspline"
       id="path-effect5"
       is_visible="true"
       lpeversion="1.3"
       weight="33.333333"
       steps="2"
       helper_size="0"
       apply_no_weight="true"
       apply_with_weight="true"
       only_selected="false"
       uniform="false" />
    <inkscape:path-effect
       effect="bspline"
       id="path-effect4"
       is_visible="true"
       lpeversion="1.3"
       weight="33.333333"
       steps="2"
       helper_size="0"
       apply_no_weight="true"
       apply_with_weight="true"
       only_selected="false"
       uniform="false" />
    <inkscape:path-effect
       effect="bspline"
       id="path-effect3"
       is_visible="true"
       lpeversion="1.3"
       weight="33.333333"
       steps="2"
       helper_size="0"
       apply_no_weight="true"
       apply_with_weight="true"
       only_selected="false"
       uniform="false" />
    <inkscape:path-effect
       effect="bspline"
       id="path-effect2"
       is_visible="true"
       lpeversion="1.3"
       weight="33.333333"
       steps="2"
       helper_size="0"
       apply_no_weight="true"
       apply_with_weight="true"
       only_selected="false"
       uniform="false" />
    <inkscape:path-effect
       effect="bspline"
       id="path-effect1"
       is_visible="true"
       lpeversion="1.3"
       weight="33.333333"
       steps="2"
       helper_size="0"
       apply_no_weight="true"
       apply_with_weight="true"
       only_selected="false"
       uniform="false" />
    <inkscape:path-effect
       effect="bspline"
       id="path-effect6-5"
       is_visible="true"
       lpeversion="1.3"
       weight="33.333333"
       steps="2"
       helper_size="0"
       apply_no_weight="true"
       apply_with_weight="true"
       only_selected="false"
       uniform="false" />
    <inkscape:path-effect
       effect="bspline"
       id="path-effect6-2"
       is_visible="true"
       lpeversion="1.3"
       weight="33.333333"
       steps="2"
       helper_size="0"
       apply_no_weight="true"
       apply_with_weight="true"
       only_selected="false"
       uniform="false" />
    <inkscape:path-effect
       effect="bspline"
       id="path-effect6-22"
       is_visible="true"
       lpeversion="1.3"
       weight="33.333333"
       steps="2"
       helper_size="0"
       apply_no_weight="true"
       apply_with_weight="true"
       only_selected="false"
       uniform="false" />
  </defs>
  <sodipodi:namedview
     id="namedview1"
     pagecolor="#ffffff"
     bordercolor="#000000"
     borderopacity="0.25"
     inkscape:showpageshadow="2"
     inkscape:pageopacity="0.0"
     inkscape:pagecheckerboard="0"
     inkscape:deskcolor="#d1d1d1"
     inkscape:zoom="1.0811189"
     inkscape:cx="784.37257"
     inkscape:cy="486.99547"
     inkscape:window-width="1920"
     inkscape:window-height="991"
     inkscape:window-x="-9"
     inkscape:window-y="-9"
     inkscape:window-maximized="1"
     inkscape:current-layer="g1" />
  <g
     inkscape:groupmode="layer"
     inkscape:label="Image"
     id="g1">
    <path
       style="fill:#333333;stroke:#000000;stroke-width:1px;stroke-linecap:butt;stroke-linejoin:miter;stroke-opacity:1;fill-opacity:1"
       d="m 800.4493,335.09208 c -2.61621,1.74414 -3.70629,5.34142 -2.23464,7.84863 1.47166,2.50721 5.50489,3.92429 8.77517,3.37922 3.27028,-0.54507 5.77743,-3.05221 6.37696,-5.50493 0.59953,-2.45271 -0.70854,-4.85085 -3.43379,-6.10445 -2.72526,-1.2536 -6.8675,-1.3626 -9.4837,0.38153 z"
       id="path1"
       inkscape:path-effect="#path-effect1"
       inkscape:original-d="m 798.92318,333.23894 c -1.09009,3.59728 -2.18017,7.19456 -3.27026,10.79184 4.0334,1.41713 8.06663,2.83422 12.09995,4.25133 2.50724,-2.50725 5.01439,-5.01439 7.52158,-7.52159 -1.30813,-2.39823 -2.6162,-4.79637 -3.9243,-7.19456 -4.14241,-0.10901 -8.28465,-0.21802 -12.42697,-0.32702 z" />
    <path
       style="fill:#333333;fill-opacity:1;stroke:#000000;stroke-width:0.405832;stroke-linecap:butt;stroke-linejoin:miter;stroke-dasharray:none;stroke-opacity:1"
       d="m 804.37048,329.77829 c 0.34235,-4.01941 1.02702,-12.05807 1.36685,-17.00975 0.33984,-4.95168 0.3348,-6.81593 0.37786,-9.12392 0.0431,-2.30799 0.13421,-5.05941 0.25687,-3.88476 0.12265,1.17465 0.27681,6.27534 0.37316,12.58349 0.0964,6.30816 0.13489,13.82337 -0.3276,17.60032 -0.46249,3.77695 -1.42598,3.81549 -1.90774,3.83476 -0.48175,0.0193 -0.48174,0.0193 -0.1394,-4.00014 z"
       id="path2"
       inkscape:path-effect="#path-effect2"
       inkscape:original-d="m 804.02814,333.7977 c 0.68469,-8.03882 1.36936,-16.07748 2.05406,-24.11648 -0.005,-1.86436 -0.0101,-3.72861 -0.0151,-5.59298 0.0912,-2.75161 0.1823,-5.50303 0.27345,-8.25463 0.15416,5.1009 0.30832,10.20159 0.46248,15.30239 0.0385,7.51551 0.0771,15.03072 0.11562,22.54608 -0.96352,0.0385 -1.92701,0.0771 -2.89052,0.11562 z"
       transform="matrix(0.87327376,-0.26902688,0.12226274,0.39687053,61.481371,417.62197)"
       sodipodi:nodetypes="ccccccc" />
    <path
       style="fill:#666666;stroke:#000000;stroke-width:1px;stroke-linecap:butt;stroke-linejoin:miter;stroke-opacity:1;fill-opacity:1"
       d="m 803.93179,348.42375 c -1.40672,1.79213 -2.79418,5.60762 -3.37228,9.48096 -0.5781,3.87334 -0.34686,7.80438 0.15417,12.48708 0.50103,4.6827 1.27182,10.11678 2.79419,13.56615 1.52236,3.44938 3.7962,4.91388 5.20292,4.567 1.40673,-0.34689 1.94628,-2.5051 2.33169,-6.07013 0.3854,-3.56503 0.61664,-8.53663 0.5781,-14.24067 -0.0385,-5.70403 -0.34686,-12.14013 -0.96352,-15.7822 -0.61665,-3.64207 -1.5416,-4.48994 -2.71709,-5.02951 -1.1755,-0.53956 -2.60146,-0.7708 -4.00818,1.02132 z"
       id="path3"
       inkscape:path-effect="#path-effect3"
       inkscape:original-d="m 803.91252,346.40039 c -1.38745,3.81549 -2.77491,7.63098 -4.16236,11.44647 0.23125,3.93119 0.46249,7.86223 0.69373,11.79334 0.77082,5.43429 1.54161,10.86837 2.31242,16.30256 2.27392,1.46456 4.54776,2.92906 6.82163,4.39359 0.53958,-2.1583 1.07913,-4.31651 1.6187,-6.47477 0.23124,-4.9718 0.46248,-9.9434 0.69372,-14.9151 -0.30833,-6.43637 -0.61664,-12.87247 -0.92496,-19.3087 -0.92499,-0.84791 -1.84994,-1.69578 -2.77491,-2.54367 -1.42602,-0.23124 -2.85198,-0.46248 -4.27797,-0.69372 z" />
    <path
       style="fill:#e6e6e6;fill-opacity:1;stroke:#000000;stroke-width:1px;stroke-linecap:butt;stroke-linejoin:miter;stroke-opacity:1"
       d="m 796.08883,344.16505 c -2.00409,-0.30832 -5.93521,0.26978 -10.13615,2.17756 -4.20094,1.90778 -8.67152,5.1451 -10.59853,8.94137 -1.92701,3.79626 -1.31038,8.15123 1.17552,10.54074 2.48589,2.3895 6.84086,2.81344 10.17462,0.82856 3.33376,-1.98487 5.64613,-6.37838 7.39973,-10.07828 1.75359,-3.6999 2.94832,-6.70598 3.50715,-8.80644 0.55884,-2.10046 0.48176,-3.29519 -1.52234,-3.60351 z"
       id="path4"
       inkscape:path-effect="#path-effect4"
       inkscape:original-d="m 798.01585,343.27862 c -3.93111,0.57811 -7.86223,1.15621 -11.79334,1.73432 -4.47077,3.23745 -8.94135,6.47477 -13.41203,9.71216 0.61666,4.35514 1.23329,8.71011 1.84994,13.06517 4.35514,0.42395 8.71011,0.84788 13.06516,1.27183 2.31247,-4.39369 4.62484,-8.7872 6.93726,-13.18079 1.19477,-3.00621 2.3895,-6.01229 3.58425,-9.01844 -0.0771,-1.19477 -0.15416,-2.3895 -0.23124,-3.58425 z"
       transform="translate(4.8560802,1.8499353)" />
    <path
       style="fill:#e6e6e6;stroke:#000000;stroke-width:1px;stroke-linecap:butt;stroke-linejoin:miter;stroke-opacity:1;fill-opacity:1"
       d="m 814.66527,346.28477 c -1.19476,2.54366 0.50102,7.51536 4.47073,10.88766 3.96972,3.37229 10.21313,5.14511 13.35416,4.45136 3.14104,-0.69376 3.17958,-3.85401 1.25252,-7.28413 -1.92705,-3.43013 -5.81954,-7.12992 -9.8085,-8.92205 -3.98897,-1.79212 -8.07416,-1.6765 -9.26891,0.86716 z"
       id="path5"
       inkscape:path-effect="#path-effect5"
       inkscape:original-d="m 811.77474,343.85673 c 1.69578,4.9717 3.39155,9.9434 5.08732,14.9151 6.24366,1.77289 12.48707,3.54571 18.7306,5.31857 0.0385,-3.16037 0.0771,-6.32062 0.11562,-9.48092 -3.89265,-3.69995 -7.78514,-7.39974 -11.67772,-11.09962 -4.08535,0.11563 -8.17054,0.23125 -12.25582,0.34687 z"
       transform="translate(-5.549806,0.11562096)" />
    <path
       style="fill:none;stroke:#373737;stroke-width:1px;stroke-linecap:butt;stroke-linejoin:miter;stroke-opacity:1"
       d="m 803.56565,355.88131 c 1.23329,0.46248 2.46658,0.92496 3.60353,0.82861 1.13695,-0.0964 2.17752,-0.75153 3.21811,-1.40672"
       id="path6"
       inkscape:path-effect="#path-effect6"
       inkscape:original-d="m 803.56565,355.88131 c 1.23329,0.46248 2.46658,0.92496 3.69988,1.38745 1.0406,-0.6552 2.08117,-1.31037 3.12176,-1.96556"
       transform="translate(-0.8093467,-0.57810479)" />
    <path
       style="fill:none;stroke:#373737;stroke-width:1px;stroke-linecap:butt;stroke-linejoin:miter;stroke-opacity:1"
       d="m 803.56565,355.88131 c 1.23329,0.46248 2.46658,0.92496 3.60353,0.82861 1.13695,-0.0964 2.17752,-0.75153 3.21811,-1.40672"
       id="path6-1"
       inkscape:path-effect="#path-effect6-5"
       inkscape:original-d="m 803.56565,355.88131 c 1.23329,0.46248 2.46658,0.92496 3.69988,1.38745 1.0406,-0.6552 2.08117,-1.31037 3.12176,-1.96556"
       transform="matrix(0.88278736,0,0,1.0192772,93.880875,-0.10291174)" />
    <path
       style="fill:none;stroke:#373737;stroke-width:1px;stroke-linecap:butt;stroke-linejoin:miter;stroke-opacity:1"
       d="m 803.56565,355.88131 c 1.23329,0.46248 2.46658,0.92496 3.60353,0.82861 1.13695,-0.0964 2.17752,-0.75153 3.21811,-1.40672"
       id="path6-14"
       inkscape:path-effect="#path-effect6-2"
       inkscape:original-d="m 803.56565,355.88131 c 1.23329,0.46248 2.46658,0.92496 3.69988,1.38745 1.0406,-0.6552 2.08117,-1.31037 3.12176,-1.96556"
       transform="matrix(0.80088178,0,0,0.63308621,160.44296,143.8156)" />
    <path
       style="fill:none;stroke:#373737;stroke-width:1px;stroke-linecap:butt;stroke-linejoin:miter;stroke-opacity:1"
       d="m 803.56565,355.88131 c 1.23329,0.46248 2.46658,0.92496 3.60353,0.82861 1.13695,-0.0964 2.17752,-0.75153 3.21811,-1.40672"
       id="path6-8"
       inkscape:path-effect="#path-effect6-22"
       inkscape:original-d="m 803.56565,355.88131 c 1.23329,0.46248 2.46658,0.92496 3.69988,1.38745 1.0406,-0.6552 2.08117,-1.31037 3.12176,-1.96556"
       transform="matrix(0.62426844,0,0,0.48932035,303.31572,201.76994)" />
  </g>
</svg>
