<?xml version="1.0" encoding="UTF-8" standalone="no"?>
<!-- Created with Inkscape (http://www.inkscape.org/) -->

<svg
   version="1.1"
   id="svg1"
   width="1600"
   height="715"
   viewBox="0 0 1600 715"
   sodipodi:docname="pizza.svg"
   inkscape:version="1.4.3 (0d15f75, 2025-12-25)"
   xmlns:inkscape="http://www.inkscape.org/namespaces/inkscape"
   xmlns:sodipodi="http://sodipodi.sourceforge.net/DTD/sodipodi-0.dtd"
   xmlns="http://www.w3.org/2000/svg"
   xmlns:svg="http://www.w3.org/2000/svg">
  <defs
     id="defs1">
    <inkscape:path-effect
       effect="bspline"
       id="path-effect8"
       is_visible="true"
       lpeversion="1.3"
       weight="33.333333"
       steps="2"
       helper_size="0"
       apply_no_weight="true"
       apply_with_weight="true"
       only_selected="false"
       uniform="false" />
    <inkscape:path-effect
       effect="bspline"
       id="path-effect7"
       is_visible="true"
       lpeversion="1.3"
       weight="33.333333"
       steps="2"
       helper_size="0"
       apply_no_weight="true"
       apply_with_weight="true"
       only_selected="false"
       uniform="false" />
    <inkscape:path-effect
       effect="bspline"
       id="path-effect6"
       is_visible="true"
       lpeversion="1.3"
       weight="33.333333"
       steps="2"
       helper_size="0"
       apply_no_weight="true"
       apply_with_weight="true"
       only_selected="false"
       uniform="false" />
    <inkscape:path-effect
       effect="bspline"
       id="path-effect5"
       is_visible="true"
       lpeversion="1.3"
       weight="33.333333"
       steps="2"
       helper_size="0"
       apply_no_weight="true"
       apply_with_weight="true"
       only_selected="false"
       uniform="false" />
    <inkscape:path-effect
       effect="bspline"
       id="path-effect4"
       is_visible="true"
       lpeversion="1.3"
       weight="33.333333"
       steps="2"
       helper_size="0"
       apply_no_weight="true"
       apply_with_weight="true"
       only_selected="false"
       uniform="false" />
    <inkscape:path-effect
       effect="bspline"
       id="path-effect3"
       is_visible="true"
       lpeversion="1.3"
       weight="33.333333"
       steps="2"
       helper_size="0"
       apply_no_weight="true"
       apply_with_weight="true"
       only_selected="false"
       uniform="false" />
    <inkscape:path-effect
       effect="bspline"
       id="path-effect2"
       is_visible="true"
       lpeversion="1.3"
       weight="33.333333"
       steps="2"
       helper_size="0"
       apply_no_weight="true"
       apply_with_weight="true"
       only_selected="false"
       uniform="false" />
    <inkscape:path-effect
       effect="bspline"
       id="path-effect1"
       is_visible="true"
       lpeversion="1.3"
       weight="33.333333"
       steps="2"
       helper_size="0"
       apply_no_weight="true"
       apply_with_weight="true"
       only_selected="false"
       uniform="false" />
    <inkscape:path-effect
       effect="bspline"
       id="path-effect4-5"
       is_visible="true"
       lpeversion="1.3"
       weight="33.333333"
       steps="2"
       helper_size="0"
       apply_no_weight="true"
       apply_with_weight="true"
       only_selected="false"
       uniform="false" />
  </defs>
  <sodipodi:namedview
     id="namedview1"
     pagecolor="#ffffff"
     bordercolor="#000000"
     borderopacity="0.25"
     inkscape:showpageshadow="2"
     inkscape:pageopacity="0.0"
     inkscape:pagecheckerboard="0"
     inkscape:deskcolor="#d1d1d1"
     showgrid="false"
     inkscape:zoom="0.59838911"
     inkscape:cx="863.98631"
     inkscape:cy="395.22778"
     inkscape:window-width="1920"
     inkscape:window-height="991"
     inkscape:window-x="-9"
     inkscape:window-y="-9"
     inkscape:window-maximized="1"
     inkscape:current-layer="g1" />
  <g
     inkscape:groupmode="layer"
     inkscape:label="Image"
     id="g1">
    <path
       style="fill:#d38d5f;fill-opacity:1;stroke:#000000;stroke-width:1px;stroke-linecap:butt;stroke-linejoin:miter;stroke-opacity:1"
       d="m 594.68242,281.83161 c 15.26342,-10.24126 30.52684,-20.48252 45.88888,-31.36398 15.36205,-10.88145 30.8221,-22.40264 45.59329,-33.33332 14.77119,-10.93068 28.85264,-21.2702 40.07872,-29.54205 11.22609,-8.27185 19.59618,-14.47557 25.65235,-18.06987 6.05616,-3.5943 9.79809,-4.57901 12.75232,-3.44653 2.95423,1.13248 5.12061,4.38204 7.23781,7.82866 2.11721,3.44661 4.18511,7.09006 5.3668,10.88133 1.18169,3.79128 1.4771,7.73015 1.92024,10.8321 0.44314,3.10194 1.03397,5.36679 1.62481,7.63168"
       id="path3"
       inkscape:path-effect="#path-effect3"
       inkscape:original-d="m 594.68242,281.83161 c 15.26342,-10.24126 30.52684,-20.48252 45.79025,-30.72378 15.46068,-11.52165 30.92073,-23.04284 46.3811,-34.56426 14.08201,-10.33994 28.16346,-20.67946 42.2452,-31.0192 8.37043,-6.20396 16.74052,-12.40768 25.11078,-18.61152 3.74207,-0.98476 7.484,-1.96947 11.226,-2.95421 2.16646,3.2497 4.33284,6.49926 6.49926,9.74889 2.06799,3.6436 4.13589,7.28705 6.20384,10.93058 0.29543,3.93902 0.59084,7.87789 0.88626,11.81684 0.59086,2.26494 1.18169,4.52979 1.77253,6.79468"
       transform="translate(-1.3008038e-6,1.7725259)" />
    <path
       style="fill:#d38d5f;fill-opacity:1;stroke:#000000;stroke-width:1px;stroke-linecap:butt;stroke-linejoin:miter;stroke-opacity:1"
       d="m 617.90897,328.79943 c 0.55705,-4.03862 1.1141,-8.07724 1.81042,-12.46407 0.69632,-4.38682 1.53188,-9.12166 1.04445,-14.48334 -0.48744,-5.36167 -2.29782,-11.34985 -8.07733,-15.45813 -5.7795,-4.10827 -15.5277,-6.33643 -22.28198,-3.3422 -6.75428,2.99423 -10.5143,11.21057 -11.83729,20.47165 -1.32298,9.26108 -0.2089,19.56632 3.06383,29.45407 3.27273,9.88775 8.70387,19.35743 16.71158,27.01694 8.00772,7.65951 18.59148,13.50843 31.75197,20.26276 13.16049,6.75432 28.89687,14.41362 47.69757,23.18727 18.80069,8.77366 40.66451,18.66111 63.80829,28.61259 23.14377,9.95147 47.56608,19.96635 70.75751,29.15911 23.19144,9.19276 45.15063,17.56285 65.66617,23.59192 20.51554,6.02907 39.58624,9.7168 51.80264,10.72511 12.2164,1.00831 17.57791,-0.66281 22.93953,-2.33396"
       id="path2"
       inkscape:path-effect="#path-effect2"
       inkscape:original-d="m 617.90897,328.79943 c 0.55705,-4.03862 1.1141,-8.07724 1.67115,-12.11586 0.8356,-4.73503 1.67116,-9.46987 2.50673,-14.2048 -1.81045,-5.98842 -3.62083,-11.9766 -5.43125,-17.9649 -9.74859,-2.22825 -19.49679,-4.45641 -29.24518,-6.68462 -3.76017,8.21667 -7.52019,16.43301 -11.28029,24.64952 1.11413,10.30565 2.22821,20.61089 3.34231,30.91633 5.43136,9.47006 10.8625,18.93974 16.29375,28.40961 10.58418,5.84915 21.16794,11.69807 31.75191,17.54711 15.73701,7.65961 31.47339,15.31891 47.21008,22.97836 21.8647,9.88786 43.72852,19.77532 65.59278,29.66297 24.42329,10.01529 48.8456,20.03017 73.26841,30.04526 21.96006,8.37042 43.91925,16.74052 65.87887,25.11078 19.07146,3.68788 38.14216,7.37561 57.21324,11.06342 5.36172,-1.67119 10.72323,-3.34231 16.08485,-5.01346"
       transform="translate(2.9542087,-0.59083737)" />
    <path
       style="fill:#ffe680;stroke:#000000;stroke-width:1px;stroke-linecap:butt;stroke-linejoin:miter;stroke-opacity:1;fill-opacity:1"
       d="m 628.91073,318.49398 c 11.14102,-9.05208 31.19486,-26.32066 52.50229,-44.14648 21.30743,-17.82582 43.86755,-36.20814 60.85772,-49.71672 16.99018,-13.50857 28.4095,-22.14269 38.57577,-21.02848 10.16628,1.11421 19.07892,11.97649 29.94154,27.43486 10.86262,15.45837 23.67455,35.51181 38.2973,58.07263 14.62276,22.56082 31.05544,47.62762 44.98183,70.04912 13.92639,22.42151 25.34571,42.19643 36.06904,62.80754 10.72334,20.6111 20.75006,42.05714 24.92793,54.86936 4.17786,12.81222 2.50674,16.99002 -6.82403,16.71144 -9.33078,-0.27857 -26.3205,-5.01341 -41.50028,-10.44472 -15.17977,-5.43131 -28.54873,-11.55875 -42.05736,-17.9649 -13.50862,-6.40616 -27.1561,-13.09064 -39.82913,-18.66119 -12.67303,-5.57056 -24.37087,-10.02688 -30.21991,-8.91271 -5.84904,1.11417 -5.84904,7.79865 -5.84904,14.06554 0,6.26688 0,12.1158 -1.53192,16.01517 -1.53192,3.89938 -4.59564,5.84902 -7.38092,3.48149 -2.78528,-2.36754 -5.29196,-9.05202 -6.12753,-15.45816 -0.83557,-6.40615 -10e-6,-12.53359 -1.39267,-17.54709 -1.39266,-5.0135 -5.01342,-8.91278 -14.48345,-15.31896 -9.47002,-6.40617 -24.78862,-15.31881 -44.00712,-25.62438 -19.21849,-10.30556 -42.33565,-22.0034 -59.74361,-33.56233 -17.40797,-11.55892 -29.10581,-22.97824 -33.84072,-29.10581 -4.73491,-6.12757 -2.50675,-6.96313 8.63427,-16.01522 z"
       id="path1"
       inkscape:path-effect="#path-effect1"
       inkscape:original-d="m 619.99791,326.71049 c 20.05384,-17.26859 40.10768,-34.53717 60.16152,-51.80576 22.56102,-18.38305 45.12114,-36.76537 67.68172,-55.14806 11.41977,-8.63446 22.83909,-17.26858 34.25864,-25.90288 8.913,10.86272 17.82564,21.725 26.73845,32.5875 12.81244,20.05424 25.62436,40.10768 38.43653,60.16152 16.43334,25.0678 32.86602,50.1346 49.29903,75.2019 11.41977,19.77571 22.83909,39.55063 34.25864,59.32595 10.02712,21.44689 20.05384,42.89293 30.08076,64.3394 -1.67118,4.17797 -3.3423,8.35577 -5.01346,12.53365 -16.9904,-4.73503 -33.98012,-9.46987 -50.97018,-14.2048 -13.36949,-6.12769 -26.73845,-12.25513 -40.10768,-18.38269 -13.64802,-6.68475 -27.2955,-13.36923 -40.94325,-20.05384 -11.69831,-4.4565 -23.39615,-8.91282 -35.09423,-13.36923 0,6.68475 0,13.36923 0,20.05384 0,5.84916 0,11.69808 0,17.54711 -3.06384,1.94972 -6.12756,3.89936 -9.19134,5.84904 -2.50678,-6.68475 -5.01346,-13.36923 -7.52019,-20.05384 0.83559,-6.12768 1.67115,-12.25512 2.50673,-18.38269 -3.6209,-3.89943 -7.24166,-7.79871 -10.8625,-11.69807 -15.31921,-8.913 -30.63781,-17.82564 -45.95672,-26.73845 -23.11808,-11.69831 -46.23524,-23.39615 -69.35286,-35.09423 -11.69831,-11.41977 -23.39615,-22.83909 -35.09422,-34.25864 2.22825,-0.83559 4.45641,-1.67115 6.68461,-2.50673 z" />
    <path
       style="fill:#338000;stroke:#000000;stroke-width:1px;stroke-linecap:butt;stroke-linejoin:miter;stroke-opacity:1;fill-opacity:1"
       d="m 710.93058,271.54111 c -4.57903,1.62482 -3.39734,5.66224 -3.2004,8.81342 0.19693,3.15118 -0.59084,5.41603 0.54164,6.15457 1.13248,0.73854 4.1851,-0.0492 7.92714,-0.44313 3.74205,-0.39389 8.17327,-0.39389 12.7031,0.49239 4.52984,0.88628 9.15801,2.65877 12.30918,2.26485 3.15118,-0.39392 4.8252,-2.95418 6.20384,-5.95766 1.37864,-3.00348 2.46183,-6.44999 0.54154,-8.41947 -1.92028,-1.96948 -6.84387,-2.46183 -14.47568,-3.10192 -7.63181,-0.64009 -17.97134,-1.42786 -22.55036,0.19695 z"
       id="path4"
       inkscape:path-effect="#path-effect4"
       inkscape:original-d="m 705.16987,269.12851 c 1.18168,4.03742 2.36337,8.07484 3.54505,12.11226 -0.78781,2.26494 -1.57558,4.52979 -2.36337,6.79468 3.05275,-0.7878 6.10537,-1.57558 9.15805,-2.36337 4.43141,0 8.86263,0 13.29395,0 4.62835,1.77256 9.25652,3.54505 13.88478,5.31758 1.67409,-2.56037 3.34811,-5.12063 5.02216,-7.68094 1.08323,-3.44665 2.16642,-6.89316 3.24963,-10.33974 -4.92378,-0.49238 -9.84737,-0.98474 -14.77105,-1.4771 -10.33994,-0.78781 -20.67947,-1.57558 -31.0192,-2.36337 z"
       transform="translate(-18.906942,22.451995)" />
    <path
       style="fill:#800000;fill-opacity:1;stroke:#000000;stroke-width:1px;stroke-linecap:butt;stroke-linejoin:miter;stroke-opacity:1"
       d="m 687.64156,334.2196 c -0.88627,5.613 1.67405,16.93747 6.10542,23.33827 4.43138,6.4008 10.73357,7.87788 17.38062,7.9271 6.64704,0.0492 13.63853,-1.32938 19.89166,-4.72677 6.25313,-3.3974 11.76755,-8.81335 11.42283,-13.29393 -0.34472,-4.48059 -6.54844,-8.02557 -15.06652,-10.9798 -8.51808,-2.95423 -19.34997,-5.31755 -26.93249,-6.54848 -7.58251,-1.23092 -11.91526,-1.32939 -12.80152,4.28361 z"
       id="path5"
       inkscape:path-effect="#path-effect5"
       inkscape:original-d="m 684.19498,328.50812 c 2.56031,11.32448 5.12063,22.64895 7.68094,33.97342 6.30244,1.47713 12.60463,2.95421 18.90695,4.43131 6.99177,-1.37866 13.98326,-2.75726 20.97489,-4.13589 5.51463,-5.41616 11.02905,-10.8321 16.54357,-16.24816 -6.20396,-3.54512 -12.40768,-7.0901 -18.61152,-10.63515 -10.83232,-2.36342 -21.66421,-4.72674 -32.49631,-7.0901 -4.33293,-0.0985 -8.66568,-0.19695 -12.99852,-0.29543 z"
       transform="translate(182.57017,75.036928)" />
    <path
       style="fill:#338000;fill-opacity:1;stroke:#000000;stroke-width:1px;stroke-linecap:butt;stroke-linejoin:miter;stroke-opacity:1"
       d="m 795.07632,362.92467 c 1.57558,-1.62482 4.43131,-1.3294 5.66223,1.77258 1.23092,3.10198 0.83703,9.01028 1.82179,14.22943 0.98476,5.21915 3.34808,9.74885 3.59425,11.22594 0.24616,1.47709 -1.6248,-0.0985 -3.69277,-1.0832 -2.06797,-0.98474 -4.33282,-1.37863 -6.20384,-1.32938 -1.87101,0.0492 -3.34808,0.54159 -3.74197,-0.34469 -0.39389,-0.88629 0.29541,-3.15113 1.03397,-4.97291 0.73857,-1.82178 1.52634,-3.20038 1.42786,-4.92369 -0.0985,-1.72331 -1.08321,-3.79122 -1.42786,-6.59776 -0.34465,-2.80653 -0.0492,-6.35151 1.52634,-7.97632 z"
       id="path6"
       inkscape:path-effect="#path-effect6"
       inkscape:original-d="m 793.79616,361.00443 c 2.85574,0.29542 5.71147,0.59084 8.56721,0.88626 -0.3939,5.90854 -0.78779,11.81684 -1.18169,17.72526 2.36342,4.52988 4.72674,9.05958 7.09011,13.58937 -1.87104,-1.57561 -3.742,-3.15116 -5.613,-4.72674 -2.26494,-0.3939 -4.52979,-0.78779 -6.79468,-1.18168 -1.47714,0.49238 -2.95421,0.98474 -4.43132,1.4771 0.68933,-2.26494 1.37863,-4.52978 2.06795,-6.79468 0.7878,-1.37866 1.57558,-2.75726 2.36337,-4.13589 -0.98476,-2.06799 -1.96948,-4.1359 -2.95421,-6.20384 0.29542,-3.54513 0.59084,-7.09011 0.88626,-10.63516 z"
       transform="translate(37.813888,-20.679468)" />
    <path
       style="fill:#800000;stroke:#000000;stroke-width:1px;stroke-linecap:butt;stroke-linejoin:miter;stroke-opacity:1;fill-opacity:1"
       d="m 878.68045,407.97637 c 3.15116,-1.77253 9.94584,-0.88626 13.98328,2.11723 4.03743,3.0035 5.31756,8.12403 4.67746,12.85081 -0.64011,4.72678 -3.20037,9.05953 -6.49928,10.6351 -3.29891,1.57556 -7.33625,0.3939 -9.84734,-2.56035 -2.51109,-2.95426 -3.4958,-7.6809 -4.23436,-12.25997 -0.73856,-4.57907 -1.23091,-9.0103 1.92024,-10.78282 z"
       id="path7"
       inkscape:path-effect="#path-effect7"
       inkscape:original-d="m 875.03693,405.31758 c 6.79468,0.88626 13.58936,1.77252 20.38405,2.65879 1.28018,5.12073 2.56031,10.24126 3.84047,15.36189 -2.56037,4.33293 -5.12063,8.66568 -7.68095,12.99852 -4.0375,-1.18171 -8.07484,-2.36337 -12.11226,-3.54505 -0.98475,-4.72683 -1.96947,-9.45347 -2.95421,-14.18021 -0.49237,-4.4314 -0.98473,-8.86263 -1.4771,-13.29394 z"
       transform="translate(-116.39586,-64.992618)" />
    <path
       style="fill:#800000;fill-opacity:1;stroke:#000000;stroke-width:1px;stroke-linecap:butt;stroke-linejoin:miter;stroke-opacity:1"
       d="m 794.53471,295.47021 c -0.9355,-6.05613 -0.83702,-12.35844 0.98477,-16.59283 1.8218,-4.23439 5.36678,-6.40077 10.14282,-8.07483 4.77603,-1.67407 10.7828,-2.85573 15.90347,-3.84047 5.12068,-0.98475 9.35496,-1.77252 14.47565,-1.37861 5.12069,0.39391 11.12746,1.96946 14.72176,5.9577 3.59431,3.98825 4.77597,10.38891 5.41605,16.74052 0.64008,6.35162 0.73855,12.65381 -0.19697,17.47905 -0.93552,4.82525 -2.90496,8.17328 -6.74549,11.02904 -3.84053,2.85576 -9.55188,5.21908 -16.64207,5.95762 -7.09019,0.73855 -15.55876,-0.1477 -21.3195,-2.01873 -5.76074,-1.87102 -8.81336,-4.7267 -11.32445,-9.0596 -2.5111,-4.3329 -4.48054,-10.14273 -5.41604,-16.19886 z"
       id="path8"
       inkscape:path-effect="#path-effect8"
       inkscape:original-d="m 793.50074,295.7164 c 0.0985,-6.30232 0.19695,-12.60463 0.29542,-18.90695 3.54512,-2.16646 7.0901,-4.33284 10.63516,-6.49926 6.00701,-1.18171 12.01378,-2.36337 18.02067,-3.54505 4.23446,-0.7878 8.46874,-1.57558 12.70311,-2.36337 6.00701,1.57561 12.01378,3.15116 18.02068,4.72674 1.1817,6.40091 2.36336,12.80157 3.54505,19.20236 0.0985,6.30244 0.19695,12.60463 0.29542,18.90694 -1.96951,3.34818 -3.93895,6.69621 -5.90842,10.04432 -5.71159,2.36341 -11.42294,4.72673 -17.13442,7.0901 -8.4689,-0.88628 -16.93747,-1.77253 -25.4062,-2.65879 -3.05275,-2.85579 -6.10537,-5.71147 -9.15805,-8.56721 -1.96951,-5.81006 -3.93895,-11.61989 -5.90842,-17.42983 z"
       transform="translate(-13.589364,-24.224519)" />
    <path
       style="fill:#d38d5f;fill-opacity:1;stroke:#000000;stroke-width:0;paint-order:markers fill stroke;stroke-opacity:1"
       d="m 622.30681,322.71935 c 10e-4,-0.14705 0.41545,-2.85967 0.92014,-6.02806 1.0668,-6.6972 1.41569,-13.68198 0.86988,-17.41481 -1.6055,-10.9801 -8.99011,-17.27389 -22.11357,-18.84705 l -1.85721,-0.22264 75.41703,-31.8348 c 41.47937,-17.50913 75.53411,-31.83336 75.6772,-31.8316 0.14308,0.002 -0.45515,0.5611 -1.3294,1.24299 -22.51809,17.56345 -56.74675,45.6761 -94.35174,77.49285 -14.66718,12.40958 -22.02662,18.56942 -27.32644,22.87218 -2.68094,2.17657 -5.10709,4.15561 -5.39143,4.39785 -0.28434,0.24224 -0.51585,0.32013 -0.51446,0.17309 z"
       id="path9" />
    <path
       style="fill:#338000;fill-opacity:1;stroke:#000000;stroke-width:1px;stroke-linecap:butt;stroke-linejoin:miter;stroke-opacity:1"
       d="m 710.93058,271.54111 c -4.57903,1.62482 -3.39734,5.66224 -3.2004,8.81342 0.19693,3.15118 -0.59084,5.41603 0.54164,6.15457 1.13248,0.73854 4.1851,-0.0492 7.92714,-0.44313 3.74205,-0.39389 8.17327,-0.39389 12.7031,0.49239 4.52984,0.88628 9.15801,2.65877 12.30918,2.26485 3.15118,-0.39392 4.8252,-2.95418 6.20384,-5.95766 1.37864,-3.00348 2.46183,-6.44999 0.54154,-8.41947 -1.92028,-1.96948 -6.84387,-2.46183 -14.47568,-3.10192 -7.63181,-0.64009 -17.97134,-1.42786 -22.55036,0.19695 z"
       id="path4-1"
       inkscape:path-effect="#path-effect4-5"
       inkscape:original-d="m 705.16987,269.12851 c 1.18168,4.03742 2.36337,8.07484 3.54505,12.11226 -0.78781,2.26494 -1.57558,4.52979 -2.36337,6.79468 3.05275,-0.7878 6.10537,-1.57558 9.15805,-2.36337 4.43141,0 8.86263,0 13.29395,0 4.62835,1.77256 9.25652,3.54505 13.88478,5.31758 1.67409,-2.56037 3.34811,-5.12063 5.02216,-7.68094 1.08323,-3.44665 2.16642,-6.89316 3.24963,-10.33974 -4.92378,-0.49238 -9.84737,-0.98474 -14.77105,-1.4771 -10.33994,-0.78781 -20.67947,-1.57558 -31.0192,-2.36337 z"
       transform="matrix(0.6696405,0,0,0.44380127,282.12431,278.10089)" />
  </g>
</svg>
