<?xml version="1.0" encoding="UTF-8" standalone="no"?>
<!-- Created with Inkscape (http://www.inkscape.org/) -->

<svg
   width="210mm"
   height="297mm"
   viewBox="0 0 210 297"
   version="1.1"
   id="svg1"
   xml:space="preserve"
   inkscape:version="1.4.3 (0d15f75, 2025-12-25)"
   sodipodi:docname="shell_spiral.svg"
   inkscape:export-filename="..\Users\avina\bitmap.png"
   inkscape:export-xdpi="96"
   inkscape:export-ydpi="96"
   xmlns:inkscape="http://www.inkscape.org/namespaces/inkscape"
   xmlns:sodipodi="http://sodipodi.sourceforge.net/DTD/sodipodi-0.dtd"
   xmlns="http://www.w3.org/2000/svg"
   xmlns:svg="http://www.w3.org/2000/svg"><sodipodi:namedview
     id="namedview1"
     pagecolor="#ffffff"
     bordercolor="#000000"
     borderopacity="0.25"
     inkscape:showpageshadow="2"
     inkscape:pageopacity="0.0"
     inkscape:pagecheckerboard="0"
     inkscape:deskcolor="#d1d1d1"
     inkscape:document-units="mm"
     showguides="true"
     inkscape:zoom="1.4142136"
     inkscape:cx="292.7422"
     inkscape:cy="484.01458"
     inkscape:window-width="1920"
     inkscape:window-height="991"
     inkscape:window-x="-9"
     inkscape:window-y="-9"
     inkscape:window-maximized="1"
     inkscape:current-layer="path24" /><defs
     id="defs1"><inkscape:path-effect
       effect="bspline"
       id="path-effect28"
       is_visible="true"
       lpeversion="1.3"
       weight="33.333333"
       steps="2"
       helper_size="0"
       apply_no_weight="true"
       apply_with_weight="true"
       only_selected="false"
       uniform="false" /><inkscape:path-effect
       effect="bspline"
       id="path-effect27"
       is_visible="true"
       lpeversion="1.3"
       weight="33.333333"
       steps="2"
       helper_size="0"
       apply_no_weight="true"
       apply_with_weight="true"
       only_selected="false"
       uniform="false" /><inkscape:path-effect
       effect="bspline"
       id="path-effect26"
       is_visible="true"
       lpeversion="1.3"
       weight="33.333333"
       steps="2"
       helper_size="0"
       apply_no_weight="true"
       apply_with_weight="true"
       only_selected="false"
       uniform="false" /><inkscape:path-effect
       effect="bspline"
       id="path-effect25"
       is_visible="true"
       lpeversion="1.3"
       weight="33.333333"
       steps="2"
       helper_size="0"
       apply_no_weight="true"
       apply_with_weight="true"
       only_selected="false"
       uniform="false" /><inkscape:path-effect
       effect="bspline"
       id="path-effect24"
       is_visible="true"
       lpeversion="1.3"
       weight="33.333333"
       steps="2"
       helper_size="0"
       apply_no_weight="true"
       apply_with_weight="true"
       only_selected="false"
       uniform="false" /><inkscape:path-effect
       effect="bspline"
       id="path-effect23"
       is_visible="true"
       lpeversion="1.3"
       weight="33.333333"
       steps="2"
       helper_size="0"
       apply_no_weight="true"
       apply_with_weight="true"
       only_selected="false"
       uniform="false" /><inkscape:path-effect
       effect="bspline"
       id="path-effect22"
       is_visible="true"
       lpeversion="1.3"
       weight="33.333333"
       steps="2"
       helper_size="0"
       apply_no_weight="true"
       apply_with_weight="true"
       only_selected="false"
       uniform="false" /></defs><g
     inkscape:label="Layer 1"
     inkscape:groupmode="layer"
     id="layer1"><g
       id="path24"
       style="opacity:0.6;stroke:none;stroke-opacity:1;fill:#000000;fill-opacity:1"
       transform="translate(-17.586334,0.93544375)"><path
         style="baseline-shift:baseline;display:inline;overflow:visible;vector-effect:none;enable-background:accumulate;stop-color:#000000;stop-opacity:1;stroke:none;stroke-opacity:1;fill:none;fill-opacity:1"
         d="m 113.97436,126.45726 c -1.62821,1.04025 -3.25641,2.08049 -3.55038,4.77159 -0.29398,2.69111 0.74625,7.0329 3.34689,8.86462 2.60065,1.83173 6.76154,1.15332 11.51052,-0.42968 4.74898,-1.583 10.08577,-4.07049 11.3069,-8.3672 1.22113,-4.29671 -1.6734,-10.40236 -5.38214,-13.704 -3.70873,-3.30165 -8.23144,-3.79914 -12.66382,-3.32424 -4.43238,0.47491 -8.77417,1.92218 -12.09845,3.867 -3.32427,1.94483 -5.63085,4.38708 -8.095796,7.93752 -2.464948,3.55044 -5.088113,8.20882 -4.726258,13.68146 0.361855,5.47264 3.708657,11.7592 9.430074,17.29967 5.72141,5.54047 13.81704,10.33453 23.97083,10.78677 10.15379,0.45224 22.36509,-3.43728 30.0991,-9.8145 7.734,-6.37723 10.99035,-15.24173 12.34718,-23.31498 1.35683,-8.07326 0.81411,-15.35481 -3.21125,-23.04364 -4.02536,-7.68882 -11.53305,-15.784463 -19.96815,-20.420335 -8.4351,-4.635873 -17.79709,-5.811774 -27.43074,-3.505094 -9.63364,2.306681 -19.538358,8.095738 -26.277355,13.794509 -6.738997,5.69878 -10.31193,11.30693 -13.116082,16.91525 -2.804151,5.60832 -4.839367,11.21647 -5.698694,17.29969 -0.859327,6.08322 -0.542737,12.64113 1.469944,18.38513 2.012682,5.744 5.721295,10.67374 10.470284,14.90258 4.748988,4.22885 10.538046,7.75656 16.915253,9.56568 6.37721,1.80912 13.34217,1.89957 19.40276,0.92714 6.06059,-0.97242 11.21647,-3.00763 15.51701,-5.90762 4.30055,-2.89999 7.74553,-6.66457 11.19057,-10.42922"
         id="path1" /><path
         style="baseline-shift:baseline;display:inline;overflow:visible;vector-effect:none;enable-background:accumulate;stop-color:#000000;stop-opacity:1;stroke:none;stroke-opacity:1;fill:#ffffff;fill-opacity:1"
         d="m 126.01563,86.533203 c -2.37225,0.142031 -4.7719,0.501685 -7.1875,1.080078 -9.66243,2.313571 -19.577968,8.110745 -26.332036,13.822269 -6.754068,5.71152 -10.33996,11.34006 -13.148438,16.95703 -2.808477,5.61697 -4.849139,11.23913 -5.710937,17.33984 -0.861798,6.10072 -0.547032,12.6777 1.474609,18.44727 2.021641,5.76957 5.746236,10.71893 10.507813,14.95898 4.761576,4.24006 10.566371,7.77805 16.966799,9.59375 6.40042,1.81571 13.38343,1.90483 19.46094,0.92969 6.0775,-0.97514 11.25096,-3.01638 15.56835,-5.92774 4.3174,-2.91135 7.76981,-6.68457 11.21485,-10.44921 l -0.0703,-0.0645 c 3.09305,-1.45323 6.02335,-3.09472 8.44531,-5.09179 7.76637,-6.40391 11.03459,-15.30472 12.39453,-23.39649 1.35994,-8.09176 0.8144,-15.41205 -3.22461,-23.12695 -4.03901,-7.7149 -11.55845,-15.823386 -20.02148,-20.474611 -6.34728,-3.488418 -13.22116,-5.023748 -20.33789,-4.597656 z m 0.0156,0.263672 c 7.06857,-0.424112 13.88994,1.101016 20.19531,4.566406 8.40717,4.62052 15.90236,12.702489 19.91406,20.365239 4.01171,7.66275 4.55099,14.90619 3.19727,22.96093 -1.35372,8.05475 -4.59914,16.88384 -12.30078,23.23438 -7.70164,6.35054 -19.89242,10.23569 -30.00781,9.78515 -10.1154,-0.45053 -18.18076,-5.22638 -23.88477,-10.75 -5.704008,-5.52361 -9.031872,-11.78717 -9.390624,-17.21289 -0.358752,-5.42571 2.244017,-10.05563 4.703125,-13.59765 2.459109,-3.54203 4.747099,-5.96452 8.052739,-7.89844 3.30563,-1.93392 7.6337,-3.37676 12.04687,-3.84961 4.41317,-0.47285 8.88873,0.0205 12.5625,3.29102 1.83688,1.63525 3.47713,3.97413 4.50391,6.43164 1.02677,2.45751 1.43643,5.03065 0.83789,7.13672 -0.59855,2.10606 -2.21055,3.7803 -4.27539,5.12695 -2.06485,1.34665 -4.57644,2.36271 -6.94532,3.15234 -2.36887,0.78963 -4.58859,1.35106 -6.52929,1.48828 -1.9407,0.13723 -3.5964,-0.15066 -4.86328,-1.04297 -1.26688,-0.8923 -2.16858,-2.41031 -2.71094,-4.04296 -0.54236,-1.63265 -0.72636,-3.3761 -0.58203,-4.69727 0.14432,-1.32117 0.61065,-2.22288 1.24219,-2.93164 0.63153,-0.70876 1.43394,-1.22402 2.24804,-1.74414 l -0.14258,-0.22266 c -0.8141,0.52013 -1.63962,1.04682 -2.30273,1.79102 -0.66311,0.74419 -1.15699,1.70819 -1.30664,3.07812 -0.14965,1.36994 0.0393,3.1416 0.59375,4.81055 0.55442,1.66895 1.47483,3.23637 2.80859,4.17578 1.33377,0.93942 3.05801,1.22965 5.03516,1.08985 1.97715,-0.1398 4.21169,-0.70858 6.5918,-1.50196 2.3801,-0.79337 4.91173,-1.81267 7.00781,-3.17969 2.09607,-1.36701 3.76218,-3.08669 4.38476,-5.27734 0.62259,-2.19064 0.19474,-4.8176 -0.84765,-7.3125 -1.0424,-2.4949 -2.70042,-4.859 -4.57227,-6.52539 -3.7437,-3.33277 -8.31599,-3.83439 -12.76758,-3.35742 -4.45159,0.47697 -8.80747,1.92903 -12.15039,3.88476 -3.34292,1.95574 -5.66593,4.41772 -8.136716,7.97657 -2.470788,3.55885 -5.114958,8.24605 -4.75,13.76562 0.364959,5.51957 3.729932,11.82744 9.468746,17.38477 5.73882,5.55732 13.86641,10.37026 24.0586,10.82422 6.88312,0.30657 14.61193,-1.49441 21.35156,-4.58789 -3.35834,3.66871 -6.72474,7.31508 -10.90039,10.13085 -4.2837,2.88863 -9.42118,4.91702 -15.46484,5.88672 -6.04367,0.96971 -12.99171,0.87871 -19.34571,-0.92382 -6.353989,-1.80254 -12.126878,-5.31948 -16.863278,-9.53711 -4.7364,-4.21764 -8.429872,-9.12923 -10.433594,-14.84766 -2.003722,-5.71843 -2.319746,-12.25849 -1.462891,-18.32422 0.856856,-6.06572 2.885722,-11.65814 5.685547,-17.25781 2.799826,-5.59967 6.358107,-11.18702 13.082032,-16.87305 6.723924,-5.686028 16.619744,-11.467786 26.224614,-13.767576 2.40121,-0.574948 4.78443,-0.932848 7.14062,-1.074219 z"
         id="path2" /></g></g></svg>
