<?xml version="1.0" encoding="UTF-8" standalone="no"?>
<!-- Created with Inkscape (http://www.inkscape.org/) -->

<svg
   version="1.1"
   id="svg1"
   width="1600"
   height="715"
   viewBox="0 0 1600 715"
   sodipodi:docname="swiss_roll.svg"
   inkscape:version="1.4.3 (0d15f75, 2025-12-25)"
   xmlns:inkscape="http://www.inkscape.org/namespaces/inkscape"
   xmlns:sodipodi="http://sodipodi.sourceforge.net/DTD/sodipodi-0.dtd"
   xmlns="http://www.w3.org/2000/svg"
   xmlns:svg="http://www.w3.org/2000/svg">
  <defs
     id="defs1">
    <inkscape:path-effect
       effect="bspline"
       id="path-effect2"
       is_visible="true"
       lpeversion="1.3"
       weight="33.333333"
       steps="2"
       helper_size="0"
       apply_no_weight="true"
       apply_with_weight="true"
       only_selected="false"
       uniform="false" />
    <inkscape:path-effect
       effect="bspline"
       id="path-effect1"
       is_visible="true"
       lpeversion="1.3"
       weight="33.333333"
       steps="2"
       helper_size="0"
       apply_no_weight="true"
       apply_with_weight="true"
       only_selected="false"
       uniform="false" />
    <inkscape:path-effect
       effect="bspline"
       id="path-effect1-2"
       is_visible="true"
       lpeversion="1.3"
       weight="33.333333"
       steps="2"
       helper_size="0"
       apply_no_weight="true"
       apply_with_weight="true"
       only_selected="false"
       uniform="false" />
  </defs>
  <sodipodi:namedview
     id="namedview1"
     pagecolor="#ffffff"
     bordercolor="#000000"
     borderopacity="0.25"
     inkscape:showpageshadow="2"
     inkscape:pageopacity="0.0"
     inkscape:pagecheckerboard="0"
     inkscape:deskcolor="#d1d1d1"
     showgrid="false"
     inkscape:zoom="0.84625"
     inkscape:cx="726.7356"
     inkscape:cy="332.64402"
     inkscape:window-width="1920"
     inkscape:window-height="991"
     inkscape:window-x="-9"
     inkscape:window-y="-9"
     inkscape:window-maximized="1"
     inkscape:current-layer="g1" />
  <g
     inkscape:groupmode="layer"
     inkscape:label="Image"
     id="g1">
    <path
       style="fill:#ff8080;stroke:#000000;stroke-width:1px;stroke-linecap:butt;stroke-linejoin:miter;stroke-opacity:1;fill-opacity:1"
       d="m 666.86361,270.21172 c 8.86263,-6.69621 19.89168,-11.42294 28.75438,-14.67259 8.8627,-3.24965 15.55877,-5.02214 27.96663,-7.09011 12.40786,-2.06797 30.52666,-4.43129 46.77495,-3.74194 16.2483,0.68935 30.62517,4.43127 42.24515,9.15807 11.61998,4.72679 20.48243,10.43815 28.95125,18.51309 8.46881,8.07495 16.54349,18.51295 22.55042,30.62534 6.00694,12.1124 9.9458,25.89844 11.8168,36.53367 1.871,10.63523 1.67406,18.11908 -1.08326,25.60315 -2.75731,7.48407 -8.07479,14.96792 -16.74059,20.48248 -8.6658,5.51456 -20.67935,9.05954 -35.746,12.01377 -15.06665,2.95424 -33.18544,5.31756 -59.87216,8.86266 -26.68671,3.5451 -61.93957,8.27174 -83.11148,10.2412 -21.17191,1.96947 -28.26187,1.1817 -33.97339,-3.84055 -5.71151,-5.02225 -10.04427,-14.27859 -13.49087,-24.61844 -3.44661,-10.33985 -6.00687,-21.76256 -6.89312,-32.10239 -0.88625,-10.33983 -0.0985,-19.59617 3.44663,-29.73907 3.54512,-10.14289 9.84731,-21.17172 16.34663,-31.01917 6.49933,-9.84745 13.19541,-18.51296 22.05803,-25.20917 z"
       id="path1-1"
       inkscape:path-effect="#path-effect1-2"
       inkscape:original-d="m 664.69719,268.24225 c 11.02905,-4.72674 22.0581,-9.45348 33.08715,-14.18021 6.69635,-1.77256 13.39242,-3.54505 20.08863,-5.31758 18.11951,-2.36341 36.23831,-4.72673 54.35746,-7.0901 14.37744,3.74207 28.75431,7.484 43.13146,11.22599 8.86281,5.71159 17.72526,11.42295 26.58789,17.13442 8.075,10.43842 16.14968,20.87642 24.22452,31.31462 3.93902,13.78659 7.87789,27.57263 11.81684,41.35894 -0.19695,7.48415 -0.3939,14.968 -0.59084,22.452 -5.31769,7.48414 -10.63516,14.96799 -15.95274,22.45199 -12.01402,3.54512 -24.02757,7.0901 -36.04136,10.63515 -18.11951,2.36342 -36.2383,4.72674 -54.35746,7.09011 -35.25427,4.72683 -70.50713,9.45347 -105.7607,14.1802 -7.09025,-0.7878 -14.18021,-1.57557 -21.27031,-2.36336 -4.33293,-9.25671 -8.66569,-18.51305 -12.99853,-27.76957 -2.56036,-11.42318 -5.12063,-22.84589 -7.68094,-34.26884 0.7878,-9.25671 1.57558,-18.51305 2.36337,-27.76957 6.30244,-11.02927 12.60462,-22.0581 18.90694,-33.08715 6.69634,-8.66585 13.39242,-17.33136 20.08862,-25.99704 z"
       transform="matrix(1.0628416,0,0,1.112101,-82.054543,-28.65145)" />
    <path
       style="fill:#f4e3d7;stroke:#000000;stroke-width:1px;stroke-linecap:butt;stroke-linejoin:miter;stroke-opacity:1;fill-opacity:1"
       d="m 666.86361,270.21172 c 8.86263,-6.69621 19.89168,-11.42294 28.75438,-14.67259 8.8627,-3.24965 15.55877,-5.02214 27.96663,-7.09011 12.40786,-2.06797 30.52666,-4.43129 46.77495,-3.74194 16.2483,0.68935 30.62517,4.43127 42.24515,9.15807 11.61998,4.72679 20.48243,10.43815 28.95125,18.51309 8.46881,8.07495 16.54349,18.51295 22.55042,30.62534 6.00694,12.1124 9.9458,25.89844 11.8168,36.53367 1.871,10.63523 1.67406,18.11908 -1.08326,25.60315 -2.75731,7.48407 -8.07479,14.96792 -16.74059,20.48248 -8.6658,5.51456 -20.67935,9.05954 -35.746,12.01377 -15.06665,2.95424 -33.18544,5.31756 -59.87216,8.86266 -26.68671,3.5451 -61.93957,8.27174 -83.11148,10.2412 -21.17191,1.96947 -28.26187,1.1817 -33.97339,-3.84055 -5.71151,-5.02225 -10.04427,-14.27859 -13.49087,-24.61844 -3.44661,-10.33985 -6.00687,-21.76256 -6.89312,-32.10239 -0.88625,-10.33983 -0.0985,-19.59617 3.44663,-29.73907 3.54512,-10.14289 9.84731,-21.17172 16.34663,-31.01917 6.49933,-9.84745 13.19541,-18.51296 22.05803,-25.20917 z"
       id="path1"
       inkscape:path-effect="#path-effect1"
       inkscape:original-d="m 664.69719,268.24225 c 11.02905,-4.72674 22.0581,-9.45348 33.08715,-14.18021 6.69635,-1.77256 13.39242,-3.54505 20.08863,-5.31758 18.11951,-2.36341 36.23831,-4.72673 54.35746,-7.0901 14.37744,3.74207 28.75431,7.484 43.13146,11.22599 8.86281,5.71159 17.72526,11.42295 26.58789,17.13442 8.075,10.43842 16.14968,20.87642 24.22452,31.31462 3.93902,13.78659 7.87789,27.57263 11.81684,41.35894 -0.19695,7.48415 -0.3939,14.968 -0.59084,22.452 -5.31769,7.48414 -10.63516,14.96799 -15.95274,22.45199 -12.01402,3.54512 -24.02757,7.0901 -36.04136,10.63515 -18.11951,2.36342 -36.2383,4.72674 -54.35746,7.09011 -35.25427,4.72683 -70.50713,9.45347 -105.7607,14.1802 -7.09025,-0.7878 -14.18021,-1.57557 -21.27031,-2.36336 -4.33293,-9.25671 -8.66569,-18.51305 -12.99853,-27.76957 -2.56036,-11.42318 -5.12063,-22.84589 -7.68094,-34.26884 0.7878,-9.25671 1.57558,-18.51305 2.36337,-27.76957 6.30244,-11.02927 12.60462,-22.0581 18.90694,-33.08715 6.69634,-8.66585 13.39242,-17.33136 20.08862,-25.99704 z"
       transform="translate(-47.267356,19.497784)" />
    <path
       style="fill:#e9afaf;stroke:#000000;stroke-width:1px;stroke-linecap:butt;stroke-linejoin:miter;stroke-opacity:1;fill-opacity:1"
       d="m 704.1027,409.73449 c -6.31836,-3.23523 -15.18099,-10.32533 -21.97572,-17.31703 -6.79473,-6.9917 -11.52137,-13.88472 -15.85425,-22.35356 -4.33288,-8.46883 -8.27174,-18.51294 -8.56713,-27.9665 -0.29539,-9.45356 3.05265,-18.31601 8.66572,-26.78483 5.61308,-8.46881 13.49082,-16.54349 23.63373,-24.22451 10.14291,-7.68102 22.55034,-14.96792 37.22308,-19.49773 14.67275,-4.5298 31.60988,-6.30229 48.15361,-2.26478 16.54374,4.03752 32.6931,13.88469 42.1466,28.36051 9.4535,14.47582 12.21071,33.57933 10.63507,48.25201 -1.57564,14.67267 -7.48394,24.91373 -16.93754,32.98863 -9.4536,8.0749 -22.45187,13.9832 -36.13985,16.24808 -13.68798,2.26488 -28.06485,0.88627 -37.81379,-4.23444 -9.74894,-5.12072 -14.86947,-13.98318 -17.33131,-23.6337 -2.46184,-9.65052 -2.2649,-20.08852 0.49242,-27.37561 2.75731,-7.28709 8.07478,-11.42291 14.08174,-13.98323 6.00696,-2.56033 12.70304,-3.54504 18.61151,-1.37857 5.90847,2.16647 11.029,7.48395 12.60456,11.81682 1.57556,4.33287 -0.39388,7.68091 -2.46184,8.66564 -2.06797,0.98472 -4.23435,-0.39389 -6.59775,-1.87101 -2.36339,-1.47712 -4.92365,-3.05266 -8.6657,-1.28009 -3.74205,1.77258 -8.66563,6.89311 -10.14272,11.81684 -1.47709,4.92373 0.49235,9.65037 4.52983,14.27868 4.03748,4.6283 10.14273,9.158 15.75578,11.4229 5.61305,2.26489 10.73357,2.26489 17.42986,-0.0985 6.6963,-2.36341 14.96792,-7.09005 20.384,-16.24824 5.41607,-9.15818 7.97634,-22.74728 6.59765,-33.77641 -1.37868,-11.02914 -6.69615,-19.4977 -15.75585,-25.99701 -9.05971,-6.49931 -21.86103,-11.029 -37.42005,-10.63506 -15.55902,0.39395 -33.87476,5.71142 -46.38098,13.88485 -12.50622,8.17342 -19.2023,19.20225 -22.05803,30.92074 -2.85572,11.71849 -1.87101,24.12592 2.95429,34.95812 4.8253,10.83219 13.49081,20.08853 19.80921,26.37648 6.31841,6.28794 10.28938,9.60717 10.38781,11.57665 0.0984,1.96948 -3.67559,2.58912 -9.99396,-0.64611 z"
       id="path2"
       inkscape:path-effect="#path-effect2"
       inkscape:original-d="m 706.64697,413.58937 c -8.86263,-7.09011 -17.72526,-14.18021 -26.58789,-21.27032 -4.72683,-6.89329 -9.45347,-13.78631 -14.1802,-20.67946 -3.93903,-10.04452 -7.87789,-20.08863 -11.81684,-30.13294 3.34817,-8.86281 6.69621,-17.72526 10.04431,-26.58789 7.87805,-8.075 15.75579,-16.14968 23.63368,-24.22452 12.40793,-7.2872 24.81536,-14.5741 37.22304,-21.86115 16.93781,-1.77256 33.87494,-3.54505 50.81241,-5.31758 16.15,9.84756 32.29936,19.69473 48.44904,29.5421 2.75732,19.10427 5.51453,38.20778 8.27179,57.31167 -5.90854,10.24146 -11.81684,20.48252 -17.72526,30.72378 -12.99878,5.90854 -25.99705,11.81684 -38.99557,17.72526 -14.37744,-1.37866 -28.75431,-2.75727 -43.13146,-4.1359 -5.12073,-8.8628 -10.24126,-17.72526 -15.36189,-26.58789 0.19695,-10.43841 0.39389,-20.87641 0.59084,-31.31462 5.31768,-4.13597 10.63515,-8.27179 15.95273,-12.40768 6.69634,-0.98476 13.39242,-1.96947 20.08863,-2.95421 5.12073,5.31768 10.24126,10.63516 15.36189,15.95273 -1.96951,3.34817 -3.93895,6.69621 -5.90842,10.04432 -2.16646,-1.37866 -4.33284,-2.75727 -6.49926,-4.1359 -2.56037,-1.57561 -5.12063,-3.15115 -7.68095,-4.72673 -4.92378,5.12073 -9.84736,10.24126 -14.77105,15.36189 1.96952,4.72683 3.93895,9.45347 5.90842,14.1802 6.10549,4.52988 12.21074,9.05958 18.3161,13.58937 5.12074,0 10.24126,0 15.36189,0 8.27196,-4.72683 16.54358,-9.45347 24.81537,-14.18021 2.56036,-13.58963 5.12063,-27.17873 7.68094,-40.76809 -5.31768,-8.46891 -10.63515,-16.93747 -15.95273,-25.40621 -12.80183,-4.52987 -25.60315,-9.05957 -38.40473,-13.58936 -18.31646,5.31768 -36.6322,10.63515 -54.9483,15.95273 -6.69634,11.02927 -13.39242,22.0581 -20.08863,33.08715 0.98476,12.40793 1.96948,24.81536 2.95421,37.22304 8.66586,9.25671 17.33137,18.51305 25.99705,27.76958 3.97113,3.31936 7.9421,6.63859 11.91315,9.95789 -3.77418,0.61966 -7.54821,1.2393 -11.32231,1.85895 z"
       transform="translate(-45.49483,19.497786)" />
  </g>
</svg>
